<?xml version="1.0" encoding="utf-8" standalone="no"?>
<!DOCTYPE svg PUBLIC "-//W3C//DTD SVG 1.1//EN"
  "http://www.w3.org/Graphics/SVG/1.1/DTD/svg11.dtd">
<svg xmlns:xlink="http://www.w3.org/1999/xlink" width="2152.770312pt" height="711.678009pt" viewBox="0 0 2152.770312 711.678009" xmlns="http://www.w3.org/2000/svg" version="1.1">
 <metadata>
  <rdf:RDF xmlns:dc="http://purl.org/dc/elements/1.1/" xmlns:cc="http://creativecommons.org/ns#" xmlns:rdf="http://www.w3.org/1999/02/22-rdf-syntax-ns#">
   <cc:Work>
    <dc:type rdf:resource="http://purl.org/dc/dcmitype/StillImage"/>
    <dc:date>2024-10-29T15:44:30.968680</dc:date>
    <dc:format>image/svg+xml</dc:format>
    <dc:creator>
     <cc:Agent>
      <dc:title>Matplotlib v3.9.2, https://matplotlib.org/</dc:title>
     </cc:Agent>
    </dc:creator>
   </cc:Work>
  </rdf:RDF>
 </metadata>
 <defs>
  <style type="text/css">*{stroke-linejoin: round; stroke-linecap: butt}</style>
 </defs>
 <g id="figure_1">
  <g id="patch_1">
   <path d="M 0 711.678009 
L 2152.770312 711.678009 
L 2152.770312 0 
L 0 0 
z
" style="fill: #ffffff"/>
  </g>
  <g id="axes_1">
   <g id="patch_2">
    <path d="M 89.770313 562.309344 
L 2145.570312 562.309344 
L 2145.570312 20.117344 
L 89.770313 20.117344 
z
" style="fill: #ffffff"/>
   </g>
   <g id="patch_3">
    <path d="M 183.215767 562.309344 
L 231.136513 562.309344 
L 231.136513 56.805669 
L 183.215767 56.805669 
z
" clip-path="url(#pc41527f7bc)" style="fill: #f0e442"/>
   </g>
   <g id="patch_4">
    <path d="M 231.136513 562.309344 
L 279.057259 562.309344 
L 279.057259 445.015141 
L 231.136513 445.015141 
z
" clip-path="url(#pc41527f7bc)" style="fill: #0072b2"/>
   </g>
   <g id="patch_5">
    <path d="M 279.057259 562.309344 
L 326.978005 562.309344 
L 326.978005 47.046213 
L 279.057259 47.046213 
z
" clip-path="url(#pc41527f7bc)" style="fill: #cc79a7"/>
   </g>
   <g id="patch_6">
    <path d="M 374.898751 562.309344 
L 422.819497 562.309344 
L 422.819497 368.023877 
L 374.898751 368.023877 
z
" clip-path="url(#pc41527f7bc)" style="fill: #f0e442"/>
   </g>
   <g id="patch_7">
    <path d="M 422.819497 562.309344 
L 470.740243 562.309344 
L 470.740243 549.296736 
L 422.819497 549.296736 
z
" clip-path="url(#pc41527f7bc)" style="fill: #0072b2"/>
   </g>
   <g id="patch_8">
    <path d="M 470.740243 562.309344 
L 518.660988 562.309344 
L 518.660988 482.78785 
L 470.740243 482.78785 
z
" clip-path="url(#pc41527f7bc)" style="fill: #cc79a7"/>
   </g>
   <g id="patch_9">
    <path d="M 566.581734 562.309344 
L 614.50248 562.309344 
L 614.50248 418.628464 
L 566.581734 418.628464 
z
" clip-path="url(#pc41527f7bc)" style="fill: #f0e442"/>
   </g>
   <g id="patch_10">
    <path d="M 614.50248 562.309344 
L 662.423226 562.309344 
L 662.423226 430.556688 
L 614.50248 430.556688 
z
" clip-path="url(#pc41527f7bc)" style="fill: #0072b2"/>
   </g>
   <g id="patch_11">
    <path d="M 662.423226 562.309344 
L 710.343972 562.309344 
L 710.343972 406.88097 
L 662.423226 406.88097 
z
" clip-path="url(#pc41527f7bc)" style="fill: #cc79a7"/>
   </g>
   <g id="patch_12">
    <path d="M 758.264718 562.309344 
L 806.185464 562.309344 
L 806.185464 420.43577 
L 758.264718 420.43577 
z
" clip-path="url(#pc41527f7bc)" style="fill: #f0e442"/>
   </g>
   <g id="patch_13">
    <path d="M 806.185464 562.309344 
L 854.10621 562.309344 
L 854.10621 499.957264 
L 806.185464 499.957264 
z
" clip-path="url(#pc41527f7bc)" style="fill: #0072b2"/>
   </g>
   <g id="patch_14">
    <path d="M 854.10621 562.309344 
L 902.026956 562.309344 
L 902.026956 486.583194 
L 854.10621 486.583194 
z
" clip-path="url(#pc41527f7bc)" style="fill: #cc79a7"/>
   </g>
   <g id="patch_15">
    <path d="M 949.947702 562.309344 
L 997.868448 562.309344 
L 997.868448 498.149957 
L 949.947702 498.149957 
z
" clip-path="url(#pc41527f7bc)" style="fill: #f0e442"/>
   </g>
   <g id="patch_16">
    <path d="M 997.868448 562.309344 
L 1045.789194 562.309344 
L 1045.789194 525.259557 
L 997.868448 525.259557 
z
" clip-path="url(#pc41527f7bc)" style="fill: #0072b2"/>
   </g>
   <g id="patch_17">
    <path d="M 1045.789194 562.309344 
L 1093.70994 562.309344 
L 1093.70994 471.401818 
L 1045.789194 471.401818 
z
" clip-path="url(#pc41527f7bc)" style="fill: #cc79a7"/>
   </g>
   <g id="patch_18">
    <path d="M 1141.630685 562.309344 
L 1189.551431 562.309344 
L 1189.551431 503.029685 
L 1141.630685 503.029685 
z
" clip-path="url(#pc41527f7bc)" style="fill: #f0e442"/>
   </g>
   <g id="patch_19">
    <path d="M 1189.551431 562.309344 
L 1237.472177 562.309344 
L 1237.472177 533.030976 
L 1189.551431 533.030976 
z
" clip-path="url(#pc41527f7bc)" style="fill: #0072b2"/>
   </g>
   <g id="patch_20">
    <path d="M 1237.472177 562.309344 
L 1285.392923 562.309344 
L 1285.392923 524.355904 
L 1237.472177 524.355904 
z
" clip-path="url(#pc41527f7bc)" style="fill: #cc79a7"/>
   </g>
   <g id="patch_21">
    <path d="M 1333.313669 562.309344 
L 1381.234415 562.309344 
L 1381.234415 518.391792 
L 1333.313669 518.391792 
z
" clip-path="url(#pc41527f7bc)" style="fill: #f0e442"/>
   </g>
   <g id="patch_22">
    <path d="M 1381.234415 562.309344 
L 1429.155161 562.309344 
L 1429.155161 401.639781 
L 1381.234415 401.639781 
z
" clip-path="url(#pc41527f7bc)" style="fill: #0072b2"/>
   </g>
   <g id="patch_23">
    <path d="M 1429.155161 562.309344 
L 1477.075907 562.309344 
L 1477.075907 528.151248 
L 1429.155161 528.151248 
z
" clip-path="url(#pc41527f7bc)" style="fill: #cc79a7"/>
   </g>
   <g id="patch_24">
    <path d="M 1524.996653 562.309344 
L 1572.917399 562.309344 
L 1572.917399 523.994442 
L 1524.996653 523.994442 
z
" clip-path="url(#pc41527f7bc)" style="fill: #f0e442"/>
   </g>
   <g id="patch_25">
    <path d="M 1572.917399 562.309344 
L 1620.838145 562.309344 
L 1620.838145 550.923312 
L 1572.917399 550.923312 
z
" clip-path="url(#pc41527f7bc)" style="fill: #0072b2"/>
   </g>
   <g id="patch_26">
    <path d="M 1620.838145 562.309344 
L 1668.758891 562.309344 
L 1668.758891 539.53728 
L 1620.838145 539.53728 
z
" clip-path="url(#pc41527f7bc)" style="fill: #cc79a7"/>
   </g>
   <g id="patch_27">
    <path d="M 1716.679637 562.309344 
L 1764.600382 562.309344 
L 1764.600382 529.054901 
L 1716.679637 529.054901 
z
" clip-path="url(#pc41527f7bc)" style="fill: #f0e442"/>
   </g>
   <g id="patch_28">
    <path d="M 1764.600382 562.309344 
L 1812.521128 562.309344 
L 1812.521128 538.633626 
L 1764.600382 538.633626 
z
" clip-path="url(#pc41527f7bc)" style="fill: #0072b2"/>
   </g>
   <g id="patch_29">
    <path d="M 1812.521128 562.309344 
L 1860.441874 562.309344 
L 1860.441874 494.173882 
L 1812.521128 494.173882 
z
" clip-path="url(#pc41527f7bc)" style="fill: #cc79a7"/>
   </g>
   <g id="patch_30">
    <path d="M 1908.36262 562.309344 
L 1956.283366 562.309344 
L 1956.283366 533.753898 
L 1908.36262 533.753898 
z
" clip-path="url(#pc41527f7bc)" style="fill: #f0e442"/>
   </g>
   <g id="patch_31">
    <path d="M 1956.283366 562.309344 
L 2004.204112 562.309344 
L 2004.204112 535.019013 
L 1956.283366 535.019013 
z
" clip-path="url(#pc41527f7bc)" style="fill: #0072b2"/>
   </g>
   <g id="patch_32">
    <path d="M 2004.204112 562.309344 
L 2052.124858 562.309344 
L 2052.124858 535.741936 
L 2004.204112 535.741936 
z
" clip-path="url(#pc41527f7bc)" style="fill: #cc79a7"/>
   </g>
   <g id="matplotlib.axis_1">
    <g id="xtick_1">
     <g id="line2d_1">
      <defs>
       <path id="mc085df0112" d="M 0 0 
L 0 3.5 
" style="stroke: #000000; stroke-width: 0.8"/>
      </defs>
      <g>
       <use xlink:href="#mc085df0112" x="255.096886" y="562.309344" style="stroke: #000000; stroke-width: 0.8"/>
      </g>
     </g>
     <g id="text_1">
      <!-- mir-17 -->
      <g transform="translate(200.144386 601.644031) scale(0.34 -0.34)">
       <defs>
        <path id="DejaVuSans-6d" d="M 3328 2828 
Q 3544 3216 3844 3400 
Q 4144 3584 4550 3584 
Q 5097 3584 5394 3201 
Q 5691 2819 5691 2113 
L 5691 0 
L 5113 0 
L 5113 2094 
Q 5113 2597 4934 2840 
Q 4756 3084 4391 3084 
Q 3944 3084 3684 2787 
Q 3425 2491 3425 1978 
L 3425 0 
L 2847 0 
L 2847 2094 
Q 2847 2600 2669 2842 
Q 2491 3084 2119 3084 
Q 1678 3084 1418 2786 
Q 1159 2488 1159 1978 
L 1159 0 
L 581 0 
L 581 3500 
L 1159 3500 
L 1159 2956 
Q 1356 3278 1631 3431 
Q 1906 3584 2284 3584 
Q 2666 3584 2933 3390 
Q 3200 3197 3328 2828 
z
" transform="scale(0.015625)"/>
        <path id="DejaVuSans-69" d="M 603 3500 
L 1178 3500 
L 1178 0 
L 603 0 
L 603 3500 
z
M 603 4863 
L 1178 4863 
L 1178 4134 
L 603 4134 
L 603 4863 
z
" transform="scale(0.015625)"/>
        <path id="DejaVuSans-72" d="M 2631 2963 
Q 2534 3019 2420 3045 
Q 2306 3072 2169 3072 
Q 1681 3072 1420 2755 
Q 1159 2438 1159 1844 
L 1159 0 
L 581 0 
L 581 3500 
L 1159 3500 
L 1159 2956 
Q 1341 3275 1631 3429 
Q 1922 3584 2338 3584 
Q 2397 3584 2469 3576 
Q 2541 3569 2628 3553 
L 2631 2963 
z
" transform="scale(0.015625)"/>
        <path id="DejaVuSans-2d" d="M 313 2009 
L 1997 2009 
L 1997 1497 
L 313 1497 
L 313 2009 
z
" transform="scale(0.015625)"/>
        <path id="DejaVuSans-31" d="M 794 531 
L 1825 531 
L 1825 4091 
L 703 3866 
L 703 4441 
L 1819 4666 
L 2450 4666 
L 2450 531 
L 3481 531 
L 3481 0 
L 794 0 
L 794 531 
z
" transform="scale(0.015625)"/>
        <path id="DejaVuSans-37" d="M 525 4666 
L 3525 4666 
L 3525 4397 
L 1831 0 
L 1172 0 
L 2766 4134 
L 525 4134 
L 525 4666 
z
" transform="scale(0.015625)"/>
       </defs>
       <use xlink:href="#DejaVuSans-6d"/>
       <use xlink:href="#DejaVuSans-69" x="97.412109"/>
       <use xlink:href="#DejaVuSans-72" x="125.195312"/>
       <use xlink:href="#DejaVuSans-2d" x="159.933594"/>
       <use xlink:href="#DejaVuSans-31" x="196.017578"/>
       <use xlink:href="#DejaVuSans-37" x="259.640625"/>
      </g>
     </g>
    </g>
    <g id="xtick_2">
     <g id="line2d_2">
      <g>
       <use xlink:href="#mc085df0112" x="446.77987" y="562.309344" style="stroke: #000000; stroke-width: 0.8"/>
      </g>
     </g>
     <g id="text_2">
      <!-- mir-19 -->
      <g transform="translate(391.82737 601.644031) scale(0.34 -0.34)">
       <defs>
        <path id="DejaVuSans-39" d="M 703 97 
L 703 672 
Q 941 559 1184 500 
Q 1428 441 1663 441 
Q 2288 441 2617 861 
Q 2947 1281 2994 2138 
Q 2813 1869 2534 1725 
Q 2256 1581 1919 1581 
Q 1219 1581 811 2004 
Q 403 2428 403 3163 
Q 403 3881 828 4315 
Q 1253 4750 1959 4750 
Q 2769 4750 3195 4129 
Q 3622 3509 3622 2328 
Q 3622 1225 3098 567 
Q 2575 -91 1691 -91 
Q 1453 -91 1209 -44 
Q 966 3 703 97 
z
M 1959 2075 
Q 2384 2075 2632 2365 
Q 2881 2656 2881 3163 
Q 2881 3666 2632 3958 
Q 2384 4250 1959 4250 
Q 1534 4250 1286 3958 
Q 1038 3666 1038 3163 
Q 1038 2656 1286 2365 
Q 1534 2075 1959 2075 
z
" transform="scale(0.015625)"/>
       </defs>
       <use xlink:href="#DejaVuSans-6d"/>
       <use xlink:href="#DejaVuSans-69" x="97.412109"/>
       <use xlink:href="#DejaVuSans-72" x="125.195312"/>
       <use xlink:href="#DejaVuSans-2d" x="159.933594"/>
       <use xlink:href="#DejaVuSans-31" x="196.017578"/>
       <use xlink:href="#DejaVuSans-39" x="259.640625"/>
      </g>
     </g>
    </g>
    <g id="xtick_3">
     <g id="line2d_3">
      <g>
       <use xlink:href="#mc085df0112" x="638.462853" y="562.309344" style="stroke: #000000; stroke-width: 0.8"/>
      </g>
     </g>
     <g id="text_3">
      <!-- mir-25 -->
      <g transform="translate(583.510353 601.644031) scale(0.34 -0.34)">
       <defs>
        <path id="DejaVuSans-32" d="M 1228 531 
L 3431 531 
L 3431 0 
L 469 0 
L 469 531 
Q 828 903 1448 1529 
Q 2069 2156 2228 2338 
Q 2531 2678 2651 2914 
Q 2772 3150 2772 3378 
Q 2772 3750 2511 3984 
Q 2250 4219 1831 4219 
Q 1534 4219 1204 4116 
Q 875 4013 500 3803 
L 500 4441 
Q 881 4594 1212 4672 
Q 1544 4750 1819 4750 
Q 2544 4750 2975 4387 
Q 3406 4025 3406 3419 
Q 3406 3131 3298 2873 
Q 3191 2616 2906 2266 
Q 2828 2175 2409 1742 
Q 1991 1309 1228 531 
z
" transform="scale(0.015625)"/>
        <path id="DejaVuSans-35" d="M 691 4666 
L 3169 4666 
L 3169 4134 
L 1269 4134 
L 1269 2991 
Q 1406 3038 1543 3061 
Q 1681 3084 1819 3084 
Q 2600 3084 3056 2656 
Q 3513 2228 3513 1497 
Q 3513 744 3044 326 
Q 2575 -91 1722 -91 
Q 1428 -91 1123 -41 
Q 819 9 494 109 
L 494 744 
Q 775 591 1075 516 
Q 1375 441 1709 441 
Q 2250 441 2565 725 
Q 2881 1009 2881 1497 
Q 2881 1984 2565 2268 
Q 2250 2553 1709 2553 
Q 1456 2553 1204 2497 
Q 953 2441 691 2322 
L 691 4666 
z
" transform="scale(0.015625)"/>
       </defs>
       <use xlink:href="#DejaVuSans-6d"/>
       <use xlink:href="#DejaVuSans-69" x="97.412109"/>
       <use xlink:href="#DejaVuSans-72" x="125.195312"/>
       <use xlink:href="#DejaVuSans-2d" x="159.933594"/>
       <use xlink:href="#DejaVuSans-32" x="196.017578"/>
       <use xlink:href="#DejaVuSans-35" x="259.640625"/>
      </g>
     </g>
    </g>
    <g id="xtick_4">
     <g id="line2d_4">
      <g>
       <use xlink:href="#mc085df0112" x="830.145837" y="562.309344" style="stroke: #000000; stroke-width: 0.8"/>
      </g>
     </g>
     <g id="text_4">
      <!-- mir-15 -->
      <g transform="translate(775.193337 601.644031) scale(0.34 -0.34)">
       <use xlink:href="#DejaVuSans-6d"/>
       <use xlink:href="#DejaVuSans-69" x="97.412109"/>
       <use xlink:href="#DejaVuSans-72" x="125.195312"/>
       <use xlink:href="#DejaVuSans-2d" x="159.933594"/>
       <use xlink:href="#DejaVuSans-31" x="196.017578"/>
       <use xlink:href="#DejaVuSans-35" x="259.640625"/>
      </g>
     </g>
    </g>
    <g id="xtick_5">
     <g id="line2d_5">
      <g>
       <use xlink:href="#mc085df0112" x="1021.828821" y="562.309344" style="stroke: #000000; stroke-width: 0.8"/>
      </g>
     </g>
     <g id="text_5">
      <!-- mir-221 -->
      <g transform="translate(956.060071 601.644031) scale(0.34 -0.34)">
       <use xlink:href="#DejaVuSans-6d"/>
       <use xlink:href="#DejaVuSans-69" x="97.412109"/>
       <use xlink:href="#DejaVuSans-72" x="125.195312"/>
       <use xlink:href="#DejaVuSans-2d" x="159.933594"/>
       <use xlink:href="#DejaVuSans-32" x="196.017578"/>
       <use xlink:href="#DejaVuSans-32" x="259.640625"/>
       <use xlink:href="#DejaVuSans-31" x="323.263672"/>
      </g>
     </g>
    </g>
    <g id="xtick_6">
     <g id="line2d_6">
      <g>
       <use xlink:href="#mc085df0112" x="1213.511804" y="562.309344" style="stroke: #000000; stroke-width: 0.8"/>
      </g>
     </g>
     <g id="text_6">
      <!-- mir-30 -->
      <g transform="translate(1158.559304 601.644031) scale(0.34 -0.34)">
       <defs>
        <path id="DejaVuSans-33" d="M 2597 2516 
Q 3050 2419 3304 2112 
Q 3559 1806 3559 1356 
Q 3559 666 3084 287 
Q 2609 -91 1734 -91 
Q 1441 -91 1130 -33 
Q 819 25 488 141 
L 488 750 
Q 750 597 1062 519 
Q 1375 441 1716 441 
Q 2309 441 2620 675 
Q 2931 909 2931 1356 
Q 2931 1769 2642 2001 
Q 2353 2234 1838 2234 
L 1294 2234 
L 1294 2753 
L 1863 2753 
Q 2328 2753 2575 2939 
Q 2822 3125 2822 3475 
Q 2822 3834 2567 4026 
Q 2313 4219 1838 4219 
Q 1578 4219 1281 4162 
Q 984 4106 628 3988 
L 628 4550 
Q 988 4650 1302 4700 
Q 1616 4750 1894 4750 
Q 2613 4750 3031 4423 
Q 3450 4097 3450 3541 
Q 3450 3153 3228 2886 
Q 3006 2619 2597 2516 
z
" transform="scale(0.015625)"/>
        <path id="DejaVuSans-30" d="M 2034 4250 
Q 1547 4250 1301 3770 
Q 1056 3291 1056 2328 
Q 1056 1369 1301 889 
Q 1547 409 2034 409 
Q 2525 409 2770 889 
Q 3016 1369 3016 2328 
Q 3016 3291 2770 3770 
Q 2525 4250 2034 4250 
z
M 2034 4750 
Q 2819 4750 3233 4129 
Q 3647 3509 3647 2328 
Q 3647 1150 3233 529 
Q 2819 -91 2034 -91 
Q 1250 -91 836 529 
Q 422 1150 422 2328 
Q 422 3509 836 4129 
Q 1250 4750 2034 4750 
z
" transform="scale(0.015625)"/>
       </defs>
       <use xlink:href="#DejaVuSans-6d"/>
       <use xlink:href="#DejaVuSans-69" x="97.412109"/>
       <use xlink:href="#DejaVuSans-72" x="125.195312"/>
       <use xlink:href="#DejaVuSans-2d" x="159.933594"/>
       <use xlink:href="#DejaVuSans-33" x="196.017578"/>
       <use xlink:href="#DejaVuSans-30" x="259.640625"/>
      </g>
     </g>
    </g>
    <g id="xtick_7">
     <g id="line2d_7">
      <g>
       <use xlink:href="#mc085df0112" x="1405.194788" y="562.309344" style="stroke: #000000; stroke-width: 0.8"/>
      </g>
     </g>
     <g id="text_7">
      <!-- let-7 -->
      <g transform="translate(1366.397601 601.644031) scale(0.34 -0.34)">
       <defs>
        <path id="DejaVuSans-6c" d="M 603 4863 
L 1178 4863 
L 1178 0 
L 603 0 
L 603 4863 
z
" transform="scale(0.015625)"/>
        <path id="DejaVuSans-65" d="M 3597 1894 
L 3597 1613 
L 953 1613 
Q 991 1019 1311 708 
Q 1631 397 2203 397 
Q 2534 397 2845 478 
Q 3156 559 3463 722 
L 3463 178 
Q 3153 47 2828 -22 
Q 2503 -91 2169 -91 
Q 1331 -91 842 396 
Q 353 884 353 1716 
Q 353 2575 817 3079 
Q 1281 3584 2069 3584 
Q 2775 3584 3186 3129 
Q 3597 2675 3597 1894 
z
M 3022 2063 
Q 3016 2534 2758 2815 
Q 2500 3097 2075 3097 
Q 1594 3097 1305 2825 
Q 1016 2553 972 2059 
L 3022 2063 
z
" transform="scale(0.015625)"/>
        <path id="DejaVuSans-74" d="M 1172 4494 
L 1172 3500 
L 2356 3500 
L 2356 3053 
L 1172 3053 
L 1172 1153 
Q 1172 725 1289 603 
Q 1406 481 1766 481 
L 2356 481 
L 2356 0 
L 1766 0 
Q 1100 0 847 248 
Q 594 497 594 1153 
L 594 3053 
L 172 3053 
L 172 3500 
L 594 3500 
L 594 4494 
L 1172 4494 
z
" transform="scale(0.015625)"/>
       </defs>
       <use xlink:href="#DejaVuSans-6c"/>
       <use xlink:href="#DejaVuSans-65" x="27.783203"/>
       <use xlink:href="#DejaVuSans-74" x="89.306641"/>
       <use xlink:href="#DejaVuSans-2d" x="128.515625"/>
       <use xlink:href="#DejaVuSans-37" x="164.599609"/>
      </g>
     </g>
    </g>
    <g id="xtick_8">
     <g id="line2d_8">
      <g>
       <use xlink:href="#mc085df0112" x="1596.877772" y="562.309344" style="stroke: #000000; stroke-width: 0.8"/>
      </g>
     </g>
     <g id="text_8">
      <!-- mir-26 -->
      <g transform="translate(1541.925272 601.644031) scale(0.34 -0.34)">
       <defs>
        <path id="DejaVuSans-36" d="M 2113 2584 
Q 1688 2584 1439 2293 
Q 1191 2003 1191 1497 
Q 1191 994 1439 701 
Q 1688 409 2113 409 
Q 2538 409 2786 701 
Q 3034 994 3034 1497 
Q 3034 2003 2786 2293 
Q 2538 2584 2113 2584 
z
M 3366 4563 
L 3366 3988 
Q 3128 4100 2886 4159 
Q 2644 4219 2406 4219 
Q 1781 4219 1451 3797 
Q 1122 3375 1075 2522 
Q 1259 2794 1537 2939 
Q 1816 3084 2150 3084 
Q 2853 3084 3261 2657 
Q 3669 2231 3669 1497 
Q 3669 778 3244 343 
Q 2819 -91 2113 -91 
Q 1303 -91 875 529 
Q 447 1150 447 2328 
Q 447 3434 972 4092 
Q 1497 4750 2381 4750 
Q 2619 4750 2861 4703 
Q 3103 4656 3366 4563 
z
" transform="scale(0.015625)"/>
       </defs>
       <use xlink:href="#DejaVuSans-6d"/>
       <use xlink:href="#DejaVuSans-69" x="97.412109"/>
       <use xlink:href="#DejaVuSans-72" x="125.195312"/>
       <use xlink:href="#DejaVuSans-2d" x="159.933594"/>
       <use xlink:href="#DejaVuSans-32" x="196.017578"/>
       <use xlink:href="#DejaVuSans-36" x="259.640625"/>
      </g>
     </g>
    </g>
    <g id="xtick_9">
     <g id="line2d_9">
      <g>
       <use xlink:href="#mc085df0112" x="1788.560755" y="562.309344" style="stroke: #000000; stroke-width: 0.8"/>
      </g>
     </g>
     <g id="text_9">
      <!-- mir-196 -->
      <g transform="translate(1722.792005 601.644031) scale(0.34 -0.34)">
       <use xlink:href="#DejaVuSans-6d"/>
       <use xlink:href="#DejaVuSans-69" x="97.412109"/>
       <use xlink:href="#DejaVuSans-72" x="125.195312"/>
       <use xlink:href="#DejaVuSans-2d" x="159.933594"/>
       <use xlink:href="#DejaVuSans-31" x="196.017578"/>
       <use xlink:href="#DejaVuSans-39" x="259.640625"/>
       <use xlink:href="#DejaVuSans-36" x="323.263672"/>
      </g>
     </g>
    </g>
    <g id="xtick_10">
     <g id="line2d_10">
      <g>
       <use xlink:href="#mc085df0112" x="1980.243739" y="562.309344" style="stroke: #000000; stroke-width: 0.8"/>
      </g>
     </g>
     <g id="text_10">
      <!-- mir-103 -->
      <g transform="translate(1914.474989 601.644031) scale(0.34 -0.34)">
       <use xlink:href="#DejaVuSans-6d"/>
       <use xlink:href="#DejaVuSans-69" x="97.412109"/>
       <use xlink:href="#DejaVuSans-72" x="125.195312"/>
       <use xlink:href="#DejaVuSans-2d" x="159.933594"/>
       <use xlink:href="#DejaVuSans-31" x="196.017578"/>
       <use xlink:href="#DejaVuSans-30" x="259.640625"/>
       <use xlink:href="#DejaVuSans-33" x="323.263672"/>
      </g>
     </g>
    </g>
   </g>
   <g id="matplotlib.axis_2">
    <g id="ytick_1">
     <g id="line2d_11">
      <path d="M 89.770313 562.309344 
L 2145.570312 562.309344 
" clip-path="url(#pc41527f7bc)" style="fill: none; stroke-dasharray: 0.8,1.32; stroke-dashoffset: 0; stroke: #000000; stroke-opacity: 0.8; stroke-width: 0.8"/>
     </g>
     <g id="line2d_12">
      <defs>
       <path id="meeeecb65c9" d="M 0 0 
L -3.5 0 
" style="stroke: #000000; stroke-width: 0.8"/>
      </defs>
      <g>
       <use xlink:href="#meeeecb65c9" x="89.770313" y="562.309344" style="stroke: #000000; stroke-width: 0.8"/>
      </g>
     </g>
     <g id="text_11">
      <!-- 0% -->
      <g transform="translate(28.8325 575.226688) scale(0.34 -0.34)">
       <defs>
        <path id="DejaVuSans-25" d="M 4653 2053 
Q 4381 2053 4226 1822 
Q 4072 1591 4072 1178 
Q 4072 772 4226 539 
Q 4381 306 4653 306 
Q 4919 306 5073 539 
Q 5228 772 5228 1178 
Q 5228 1588 5073 1820 
Q 4919 2053 4653 2053 
z
M 4653 2450 
Q 5147 2450 5437 2106 
Q 5728 1763 5728 1178 
Q 5728 594 5436 251 
Q 5144 -91 4653 -91 
Q 4153 -91 3862 251 
Q 3572 594 3572 1178 
Q 3572 1766 3864 2108 
Q 4156 2450 4653 2450 
z
M 1428 4353 
Q 1159 4353 1004 4120 
Q 850 3888 850 3481 
Q 850 3069 1003 2837 
Q 1156 2606 1428 2606 
Q 1700 2606 1854 2837 
Q 2009 3069 2009 3481 
Q 2009 3884 1853 4118 
Q 1697 4353 1428 4353 
z
M 4250 4750 
L 4750 4750 
L 1831 -91 
L 1331 -91 
L 4250 4750 
z
M 1428 4750 
Q 1922 4750 2215 4408 
Q 2509 4066 2509 3481 
Q 2509 2891 2217 2550 
Q 1925 2209 1428 2209 
Q 931 2209 642 2551 
Q 353 2894 353 3481 
Q 353 4063 643 4406 
Q 934 4750 1428 4750 
z
" transform="scale(0.015625)"/>
       </defs>
       <use xlink:href="#DejaVuSans-30"/>
       <use xlink:href="#DejaVuSans-25" x="63.623047"/>
      </g>
     </g>
    </g>
    <g id="ytick_2">
     <g id="line2d_13">
      <path d="M 89.770313 381.578677 
L 2145.570312 381.578677 
" clip-path="url(#pc41527f7bc)" style="fill: none; stroke-dasharray: 0.8,1.32; stroke-dashoffset: 0; stroke: #000000; stroke-opacity: 0.8; stroke-width: 0.8"/>
     </g>
     <g id="line2d_14">
      <g>
       <use xlink:href="#meeeecb65c9" x="89.770313" y="381.578677" style="stroke: #000000; stroke-width: 0.8"/>
      </g>
     </g>
     <g id="text_12">
      <!-- 10% -->
      <g transform="translate(7.2 394.496021) scale(0.34 -0.34)">
       <use xlink:href="#DejaVuSans-31"/>
       <use xlink:href="#DejaVuSans-30" x="63.623047"/>
       <use xlink:href="#DejaVuSans-25" x="127.246094"/>
      </g>
     </g>
    </g>
    <g id="ytick_3">
     <g id="line2d_15">
      <path d="M 89.770313 200.84801 
L 2145.570312 200.84801 
" clip-path="url(#pc41527f7bc)" style="fill: none; stroke-dasharray: 0.8,1.32; stroke-dashoffset: 0; stroke: #000000; stroke-opacity: 0.8; stroke-width: 0.8"/>
     </g>
     <g id="line2d_16">
      <g>
       <use xlink:href="#meeeecb65c9" x="89.770313" y="200.84801" style="stroke: #000000; stroke-width: 0.8"/>
      </g>
     </g>
     <g id="text_13">
      <!-- 20% -->
      <g transform="translate(7.2 213.765354) scale(0.34 -0.34)">
       <use xlink:href="#DejaVuSans-32"/>
       <use xlink:href="#DejaVuSans-30" x="63.623047"/>
       <use xlink:href="#DejaVuSans-25" x="127.246094"/>
      </g>
     </g>
    </g>
    <g id="ytick_4">
     <g id="line2d_17">
      <path d="M 89.770313 20.117344 
L 2145.570312 20.117344 
" clip-path="url(#pc41527f7bc)" style="fill: none; stroke-dasharray: 0.8,1.32; stroke-dashoffset: 0; stroke: #000000; stroke-opacity: 0.8; stroke-width: 0.8"/>
     </g>
     <g id="line2d_18">
      <g>
       <use xlink:href="#meeeecb65c9" x="89.770313" y="20.117344" style="stroke: #000000; stroke-width: 0.8"/>
      </g>
     </g>
     <g id="text_14">
      <!-- 30% -->
      <g transform="translate(7.2 33.034688) scale(0.34 -0.34)">
       <use xlink:href="#DejaVuSans-33"/>
       <use xlink:href="#DejaVuSans-30" x="63.623047"/>
       <use xlink:href="#DejaVuSans-25" x="127.246094"/>
      </g>
     </g>
    </g>
   </g>
   <g id="patch_33">
    <path d="M 89.770313 562.309344 
L 89.770313 20.117344 
" style="fill: none; stroke: #000000; stroke-linejoin: miter; stroke-linecap: square"/>
   </g>
   <g id="patch_34">
    <path d="M 89.770313 562.309344 
L 2145.570313 562.309344 
" style="fill: none; stroke: #000000; stroke-linejoin: miter; stroke-linecap: square"/>
   </g>
   <g id="legend_1">
    <g id="patch_35">
     <path d="M 553.474844 683.807071 
L 593.474844 683.807071 
L 593.474844 643.807071 
L 553.474844 643.807071 
z
" style="fill: #f0e442"/>
    </g>
    <g id="text_15">
     <!-- Manakov2022 -->
     <g transform="translate(648.674844 683.807071) scale(0.34 -0.34)">
      <defs>
       <path id="DejaVuSans-4d" d="M 628 4666 
L 1569 4666 
L 2759 1491 
L 3956 4666 
L 4897 4666 
L 4897 0 
L 4281 0 
L 4281 4097 
L 3078 897 
L 2444 897 
L 1241 4097 
L 1241 0 
L 628 0 
L 628 4666 
z
" transform="scale(0.015625)"/>
       <path id="DejaVuSans-61" d="M 2194 1759 
Q 1497 1759 1228 1600 
Q 959 1441 959 1056 
Q 959 750 1161 570 
Q 1363 391 1709 391 
Q 2188 391 2477 730 
Q 2766 1069 2766 1631 
L 2766 1759 
L 2194 1759 
z
M 3341 1997 
L 3341 0 
L 2766 0 
L 2766 531 
Q 2569 213 2275 61 
Q 1981 -91 1556 -91 
Q 1019 -91 701 211 
Q 384 513 384 1019 
Q 384 1609 779 1909 
Q 1175 2209 1959 2209 
L 2766 2209 
L 2766 2266 
Q 2766 2663 2505 2880 
Q 2244 3097 1772 3097 
Q 1472 3097 1187 3025 
Q 903 2953 641 2809 
L 641 3341 
Q 956 3463 1253 3523 
Q 1550 3584 1831 3584 
Q 2591 3584 2966 3190 
Q 3341 2797 3341 1997 
z
" transform="scale(0.015625)"/>
       <path id="DejaVuSans-6e" d="M 3513 2113 
L 3513 0 
L 2938 0 
L 2938 2094 
Q 2938 2591 2744 2837 
Q 2550 3084 2163 3084 
Q 1697 3084 1428 2787 
Q 1159 2491 1159 1978 
L 1159 0 
L 581 0 
L 581 3500 
L 1159 3500 
L 1159 2956 
Q 1366 3272 1645 3428 
Q 1925 3584 2291 3584 
Q 2894 3584 3203 3211 
Q 3513 2838 3513 2113 
z
" transform="scale(0.015625)"/>
       <path id="DejaVuSans-6b" d="M 581 4863 
L 1159 4863 
L 1159 1991 
L 2875 3500 
L 3609 3500 
L 1753 1863 
L 3688 0 
L 2938 0 
L 1159 1709 
L 1159 0 
L 581 0 
L 581 4863 
z
" transform="scale(0.015625)"/>
       <path id="DejaVuSans-6f" d="M 1959 3097 
Q 1497 3097 1228 2736 
Q 959 2375 959 1747 
Q 959 1119 1226 758 
Q 1494 397 1959 397 
Q 2419 397 2687 759 
Q 2956 1122 2956 1747 
Q 2956 2369 2687 2733 
Q 2419 3097 1959 3097 
z
M 1959 3584 
Q 2709 3584 3137 3096 
Q 3566 2609 3566 1747 
Q 3566 888 3137 398 
Q 2709 -91 1959 -91 
Q 1206 -91 779 398 
Q 353 888 353 1747 
Q 353 2609 779 3096 
Q 1206 3584 1959 3584 
z
" transform="scale(0.015625)"/>
       <path id="DejaVuSans-76" d="M 191 3500 
L 800 3500 
L 1894 563 
L 2988 3500 
L 3597 3500 
L 2284 0 
L 1503 0 
L 191 3500 
z
" transform="scale(0.015625)"/>
      </defs>
      <use xlink:href="#DejaVuSans-4d"/>
      <use xlink:href="#DejaVuSans-61" x="86.279297"/>
      <use xlink:href="#DejaVuSans-6e" x="147.558594"/>
      <use xlink:href="#DejaVuSans-61" x="210.9375"/>
      <use xlink:href="#DejaVuSans-6b" x="272.216797"/>
      <use xlink:href="#DejaVuSans-6f" x="326.501953"/>
      <use xlink:href="#DejaVuSans-76" x="387.683594"/>
      <use xlink:href="#DejaVuSans-32" x="446.863281"/>
      <use xlink:href="#DejaVuSans-30" x="510.486328"/>
      <use xlink:href="#DejaVuSans-32" x="574.109375"/>
      <use xlink:href="#DejaVuSans-32" x="637.732422"/>
     </g>
    </g>
    <g id="patch_36">
     <path d="M 955.142344 683.807071 
L 995.142344 683.807071 
L 995.142344 643.807071 
L 955.142344 643.807071 
z
" style="fill: #0072b2"/>
    </g>
    <g id="text_16">
     <!-- Hejret2023 -->
     <g transform="translate(1050.342344 683.807071) scale(0.34 -0.34)">
      <defs>
       <path id="DejaVuSans-48" d="M 628 4666 
L 1259 4666 
L 1259 2753 
L 3553 2753 
L 3553 4666 
L 4184 4666 
L 4184 0 
L 3553 0 
L 3553 2222 
L 1259 2222 
L 1259 0 
L 628 0 
L 628 4666 
z
" transform="scale(0.015625)"/>
       <path id="DejaVuSans-6a" d="M 603 3500 
L 1178 3500 
L 1178 -63 
Q 1178 -731 923 -1031 
Q 669 -1331 103 -1331 
L -116 -1331 
L -116 -844 
L 38 -844 
Q 366 -844 484 -692 
Q 603 -541 603 -63 
L 603 3500 
z
M 603 4863 
L 1178 4863 
L 1178 4134 
L 603 4134 
L 603 4863 
z
" transform="scale(0.015625)"/>
      </defs>
      <use xlink:href="#DejaVuSans-48"/>
      <use xlink:href="#DejaVuSans-65" x="75.195312"/>
      <use xlink:href="#DejaVuSans-6a" x="136.71875"/>
      <use xlink:href="#DejaVuSans-72" x="164.501953"/>
      <use xlink:href="#DejaVuSans-65" x="203.365234"/>
      <use xlink:href="#DejaVuSans-74" x="264.888672"/>
      <use xlink:href="#DejaVuSans-32" x="304.097656"/>
      <use xlink:href="#DejaVuSans-30" x="367.720703"/>
      <use xlink:href="#DejaVuSans-32" x="431.34375"/>
      <use xlink:href="#DejaVuSans-33" x="494.966797"/>
     </g>
    </g>
    <g id="patch_37">
     <path d="M 1308.269531 683.807071 
L 1348.269531 683.807071 
L 1348.269531 643.807071 
L 1308.269531 643.807071 
z
" style="fill: #cc79a7"/>
    </g>
    <g id="text_17">
     <!-- Klimentova2022 -->
     <g transform="translate(1403.469531 683.807071) scale(0.34 -0.34)">
      <defs>
       <path id="DejaVuSans-4b" d="M 628 4666 
L 1259 4666 
L 1259 2694 
L 3353 4666 
L 4166 4666 
L 1850 2491 
L 4331 0 
L 3500 0 
L 1259 2247 
L 1259 0 
L 628 0 
L 628 4666 
z
" transform="scale(0.015625)"/>
      </defs>
      <use xlink:href="#DejaVuSans-4b"/>
      <use xlink:href="#DejaVuSans-6c" x="65.576172"/>
      <use xlink:href="#DejaVuSans-69" x="93.359375"/>
      <use xlink:href="#DejaVuSans-6d" x="121.142578"/>
      <use xlink:href="#DejaVuSans-65" x="218.554688"/>
      <use xlink:href="#DejaVuSans-6e" x="280.078125"/>
      <use xlink:href="#DejaVuSans-74" x="343.457031"/>
      <use xlink:href="#DejaVuSans-6f" x="382.666016"/>
      <use xlink:href="#DejaVuSans-76" x="443.847656"/>
      <use xlink:href="#DejaVuSans-61" x="503.027344"/>
      <use xlink:href="#DejaVuSans-32" x="564.306641"/>
      <use xlink:href="#DejaVuSans-30" x="627.929688"/>
      <use xlink:href="#DejaVuSans-32" x="691.552734"/>
      <use xlink:href="#DejaVuSans-32" x="755.175781"/>
     </g>
    </g>
   </g>
  </g>
 </g>
 <defs>
  <clipPath id="pc41527f7bc">
   <rect x="89.770313" y="20.117344" width="2055.8" height="542.192"/>
  </clipPath>
 </defs>
</svg>
