<?xml version="1.0" encoding="utf-8" standalone="no"?>
<!DOCTYPE svg PUBLIC "-//W3C//DTD SVG 1.1//EN"
  "http://www.w3.org/Graphics/SVG/1.1/DTD/svg11.dtd">
<svg xmlns:xlink="http://www.w3.org/1999/xlink" width="826.772764pt" height="712.8pt" viewBox="0 0 826.772764 712.8" xmlns="http://www.w3.org/2000/svg" version="1.1">
 <metadata>
  <rdf:RDF xmlns:dc="http://purl.org/dc/elements/1.1/" xmlns:cc="http://creativecommons.org/ns#" xmlns:rdf="http://www.w3.org/1999/02/22-rdf-syntax-ns#">
   <cc:Work>
    <dc:type rdf:resource="http://purl.org/dc/dcmitype/StillImage"/>
    <dc:date>2024-10-29T16:13:39.453691</dc:date>
    <dc:format>image/svg+xml</dc:format>
    <dc:creator>
     <cc:Agent>
      <dc:title>Matplotlib v3.9.2, https://matplotlib.org/</dc:title>
     </cc:Agent>
    </dc:creator>
   </cc:Work>
  </rdf:RDF>
 </metadata>
 <defs>
  <style type="text/css">*{stroke-linejoin: round; stroke-linecap: butt}</style>
 </defs>
 <g id="figure_1">
  <g id="patch_1">
   <path d="M 0 712.8 
L 826.772764 712.8 
L 826.772764 0 
L 0 0 
z
" style="fill: #ffffff"/>
  </g>
  <g id="axes_1">
   <g id="patch_2">
    <path d="M 659.269048 476.197046 
C 659.057194 476.361135 658.844905 476.524663 658.632183 476.687627 
C 658.419461 476.85059 658.206308 477.012989 657.992724 477.174822 
C 657.509083 478.753471 656.975897 480.316513 656.393956 481.861629 
C 655.812016 483.406745 655.18161 484.933171 654.503673 486.438642 
C 655.330366 484.74705 656.14091 483.047614 656.935193 481.340565 
C 657.729476 479.633516 658.507463 477.918932 659.269048 476.197046 
M 659.269048 236.602954 
C 645.786584 206.120103 627.254347 178.130881 604.454809 153.817055 
C 581.65527 129.503229 554.913892 109.211876 525.359752 93.79974 
C 495.805612 78.387605 463.860594 68.074695 430.873484 63.296442 
C 397.886375 58.51819 364.328062 59.342804 331.615451 65.735469 
C 298.90284 72.128134 267.5029 83.997594 238.741404 100.842696 
C 209.979908 117.687797 184.267424 139.268077 162.689589 164.672371 
C 141.111753 190.076664 123.976588 218.942326 112.007577 250.050586 
C 100.038566 281.158847 93.406565 314.065637 92.391592 347.381564 
C 91.37662 380.69749 95.993163 413.946968 106.046303 445.726136 
C 116.099443 477.505303 131.445671 507.360514 151.437036 534.031217 
C 171.428402 560.70192 195.77953 583.807392 223.462264 602.372073 
C 251.144998 620.936753 281.764168 634.695631 314.026968 643.067778 
C 346.289768 651.439925 379.735648 654.305829 412.952452 651.544485 
C 446.169256 648.783141 478.682816 640.433967 509.120341 626.849483 
C 539.557866 613.265 567.484861 594.639124 591.72219 571.758281 
C 615.959518 548.877437 636.161193 522.068248 651.474258 492.462654 
C 645.030256 504.015587 635.776937 513.759972 624.572348 520.792226 
C 613.36776 527.824481 600.569277 531.920309 587.363687 532.699909 
C 574.158096 533.479509 560.966594 530.918016 549.012412 525.252953 
C 537.05823 519.58789 526.722651 510.999948 518.964079 500.285473 
C 498.00878 493.365134 478.816053 481.949754 462.731738 466.839807 
C 446.647424 451.729861 434.056477 433.286983 425.841807 412.804433 
C 417.627136 392.321884 413.985348 370.289883 415.171813 348.253369 
C 416.358278 326.216855 422.3446 304.70324 432.711004 285.221111 
C 443.077407 265.738983 457.575787 248.754618 475.189482 235.459002 
C 492.803177 222.163385 513.110627 212.874729 534.687826 208.244377 
C 556.265024 203.614024 578.595551 203.752796 600.113534 208.650961 
C 621.631518 213.549127 641.821957 223.089455 659.269048 236.602954 
" clip-path="url(#pff9d04ae71)" style="fill: none; opacity: 0"/>
   </g>
   <g id="patch_3">
    <path d="M 659.269048 236.602954 
C 675.957896 274.335203 684.579379 315.141786 684.579379 356.4 
C 684.579379 397.658214 675.957896 438.464797 659.269048 476.197046 
C 677.552114 462.036048 692.353038 443.875735 702.53438 423.111712 
C 712.715721 402.347689 718.009816 379.525838 718.009816 356.4 
C 718.009816 333.274162 712.715721 310.452311 702.53438 289.688288 
C 692.353038 268.924265 677.552114 250.763952 659.269048 236.602954 
" clip-path="url(#pff9d04ae71)" style="fill: none; opacity: 0"/>
   </g>
   <g id="patch_4">
    <path d="M 659.269048 236.602954 
C 641.821957 223.089455 621.631518 213.549127 600.113534 208.650961 
C 578.595551 203.752796 556.265024 203.614024 534.687826 208.244377 
C 513.110627 212.874729 492.803177 222.163385 475.189482 235.459002 
C 457.575787 248.754618 443.077407 265.738983 432.711004 285.221111 
C 422.3446 304.70324 416.358278 326.216855 415.171813 348.253369 
C 413.985348 370.289883 417.627136 392.321884 425.841807 412.804433 
C 434.056477 433.286983 446.647424 451.729861 462.731738 466.839807 
C 478.816053 481.949754 498.00878 493.365134 518.964079 500.285473 
C 511.100998 489.426674 506.140717 476.737062 504.555325 463.424358 
C 502.969934 450.111653 504.811375 436.612034 509.904392 424.21031 
C 514.997409 411.808587 523.175135 400.91109 533.659262 392.554977 
C 544.14339 384.198863 556.590418 378.657913 569.815714 376.459479 
C 583.04101 374.261046 596.61126 375.477159 609.234932 379.992077 
C 621.858604 384.506994 633.122094 392.172789 641.953413 402.259878 
C 650.784733 412.346967 656.894531 424.524857 659.701316 437.63453 
C 662.508101 450.744203 661.91991 464.356134 657.992724 477.174822 
C 658.206308 477.012989 658.419461 476.85059 658.632183 476.687627 
C 658.844905 476.524663 659.057194 476.361135 659.269048 476.197046 
C 675.957896 438.464797 684.579379 397.658214 684.579379 356.4 
C 684.579379 315.141786 675.957896 274.335203 659.269048 236.602954 
" clip-path="url(#pff9d04ae71)" style="fill: none; opacity: 0"/>
   </g>
   <g id="patch_5">
    <path d="M 657.992724 477.174822 
C 638.425796 492.000749 615.545877 501.851861 591.328788 505.877453 
C 567.1117 509.903046 542.275201 507.983806 518.964079 500.285473 
C 526.722651 510.999948 537.05823 519.58789 549.012412 525.252953 
C 560.966594 530.918016 574.158096 533.479509 587.363687 532.699909 
C 600.569277 531.920309 613.36776 527.824481 624.572348 520.792226 
C 635.776937 513.759972 645.030256 504.015587 651.474258 492.462654 
C 651.99057 491.464441 652.501195 490.463296 653.00611 489.45927 
C 653.511025 488.455243 654.01022 487.448351 654.503673 486.438642 
C 655.18161 484.933171 655.812016 483.406745 656.393956 481.861629 
C 656.975897 480.316513 657.509083 478.753471 657.992724 477.174822 
" clip-path="url(#pff9d04ae71)" style="fill: none; opacity: 0"/>
   </g>
   <g id="patch_6">
    <path d="M 518.964079 500.285473 
C 542.275201 507.983806 567.1117 509.903046 591.328788 505.877453 
C 615.545877 501.851861 638.425796 492.000749 657.992724 477.174822 
C 661.91991 464.356134 662.508101 450.744203 659.701316 437.63453 
C 656.894531 424.524857 650.784733 412.346967 641.953413 402.259878 
C 633.122094 392.172789 621.858604 384.506994 609.234932 379.992077 
C 596.61126 375.477159 583.04101 374.261046 569.815714 376.459479 
C 556.590418 378.657913 544.14339 384.198863 533.659262 392.554977 
C 523.175135 400.91109 514.997409 411.808587 509.904392 424.21031 
C 504.811375 436.612034 502.969934 450.111653 504.555325 463.424358 
C 506.140717 476.737062 511.100998 489.426674 518.964079 500.285473 
" clip-path="url(#pff9d04ae71)" style="fill: none; opacity: 0"/>
   </g>
   <g id="patch_7">
    <path d="M 388.416815 652.562564 
C 466.960045 652.562564 542.296922 621.357008 597.835372 565.818557 
C 653.373823 510.280107 684.579379 434.94323 684.579379 356.4 
C 684.579379 277.85677 653.373823 202.519893 597.835372 146.981443 
C 542.296922 91.442992 466.960045 60.237436 388.416815 60.237436 
C 309.873585 60.237436 234.536708 91.442992 178.998257 146.981443 
C 123.459807 202.519893 92.25425 277.85677 92.25425 356.4 
C 92.25425 434.94323 123.459807 510.280107 178.998257 565.818557 
C 234.536708 621.357008 309.873585 652.562564 388.416815 652.562564 
L 388.416815 652.562564 
z
" clip-path="url(#pff9d04ae71)" style="fill: none; stroke: #f0e442; stroke-width: 10; stroke-linejoin: miter"/>
   </g>
   <g id="patch_8">
    <path d="M 566.481238 507.928577 
C 606.667087 507.928577 645.212437 491.962571 673.628123 463.546885 
C 702.043809 435.131199 718.009816 396.585848 718.009816 356.4 
C 718.009816 316.214152 702.043809 277.668801 673.628123 249.253115 
C 645.212437 220.837429 606.667087 204.871423 566.481238 204.871423 
C 526.29539 204.871423 487.750039 220.837429 459.334353 249.253115 
C 430.918667 277.668801 414.952661 316.214152 414.952661 356.4 
C 414.952661 396.585848 430.918667 435.131199 459.334353 463.546885 
C 487.750039 491.962571 526.29539 507.928577 566.481238 507.928577 
L 566.481238 507.928577 
z
" clip-path="url(#pff9d04ae71)" style="fill: none; stroke: #0072b2; stroke-width: 10; stroke-linejoin: miter"/>
   </g>
   <g id="patch_9">
    <path d="M 582.724397 532.836731 
C 603.601562 532.836731 623.626463 524.542146 638.388848 509.779761 
C 653.151233 495.017376 661.445819 474.992475 661.445819 454.11531 
C 661.445819 433.238145 653.151233 413.213244 638.388848 398.450859 
C 623.626463 383.688475 603.601562 375.393889 582.724397 375.393889 
C 561.847232 375.393889 541.822331 383.688475 527.059946 398.450859 
C 512.297562 413.213244 504.002976 433.238145 504.002976 454.11531 
C 504.002976 474.992475 512.297562 495.017376 527.059946 509.779761 
C 541.822331 524.542146 561.847232 532.836731 582.724397 532.836731 
L 582.724397 532.836731 
z
" clip-path="url(#pff9d04ae71)" style="fill: none; stroke: #cc79a7; stroke-width: 10; stroke-linejoin: miter"/>
   </g>
   <g id="patch_10">
    <path d="M 73.048866 175.950344 
L 99.567583 175.950344 
L 99.567583 149.431626 
L 73.048866 149.431626 
z
" clip-path="url(#pff9d04ae71)" style="fill: #f0e442"/>
   </g>
   <g id="patch_11">
    <path d="M 725.409326 266.113985 
L 751.928044 266.113985 
L 751.928044 239.595267 
L 725.409326 239.595267 
z
" clip-path="url(#pff9d04ae71)" style="fill: #0072b2"/>
   </g>
   <g id="patch_12">
    <path d="M 709.498095 600.24983 
L 736.016813 600.24983 
L 736.016813 573.731113 
L 709.498095 573.731113 
z
" clip-path="url(#pff9d04ae71)" style="fill: #cc79a7"/>
   </g>
   <g id="text_1">
    <!-- 827 -->
    <g transform="translate(268.752209 368.561299) scale(0.25 -0.25)">
     <defs>
      <path id="DejaVuSans-38" d="M 2034 2216 
Q 1584 2216 1326 1975 
Q 1069 1734 1069 1313 
Q 1069 891 1326 650 
Q 1584 409 2034 409 
Q 2484 409 2743 651 
Q 3003 894 3003 1313 
Q 3003 1734 2745 1975 
Q 2488 2216 2034 2216 
z
M 1403 2484 
Q 997 2584 770 2862 
Q 544 3141 544 3541 
Q 544 4100 942 4425 
Q 1341 4750 2034 4750 
Q 2731 4750 3128 4425 
Q 3525 4100 3525 3541 
Q 3525 3141 3298 2862 
Q 3072 2584 2669 2484 
Q 3125 2378 3379 2068 
Q 3634 1759 3634 1313 
Q 3634 634 3220 271 
Q 2806 -91 2034 -91 
Q 1263 -91 848 271 
Q 434 634 434 1313 
Q 434 1759 690 2068 
Q 947 2378 1403 2484 
z
M 1172 3481 
Q 1172 3119 1398 2916 
Q 1625 2713 2034 2713 
Q 2441 2713 2670 2916 
Q 2900 3119 2900 3481 
Q 2900 3844 2670 4047 
Q 2441 4250 2034 4250 
Q 1625 4250 1398 4047 
Q 1172 3844 1172 3481 
z
" transform="scale(0.015625)"/>
      <path id="DejaVuSans-32" d="M 1228 531 
L 3431 531 
L 3431 0 
L 469 0 
L 469 531 
Q 828 903 1448 1529 
Q 2069 2156 2228 2338 
Q 2531 2678 2651 2914 
Q 2772 3150 2772 3378 
Q 2772 3750 2511 3984 
Q 2250 4219 1831 4219 
Q 1534 4219 1204 4116 
Q 875 4013 500 3803 
L 500 4441 
Q 881 4594 1212 4672 
Q 1544 4750 1819 4750 
Q 2544 4750 2975 4387 
Q 3406 4025 3406 3419 
Q 3406 3131 3298 2873 
Q 3191 2616 2906 2266 
Q 2828 2175 2409 1742 
Q 1991 1309 1228 531 
z
" transform="scale(0.015625)"/>
      <path id="DejaVuSans-37" d="M 525 4666 
L 3525 4666 
L 3525 4397 
L 1831 0 
L 1172 0 
L 2766 4134 
L 525 4134 
L 525 4666 
z
" transform="scale(0.015625)"/>
     </defs>
     <use xlink:href="#DejaVuSans-38"/>
     <use xlink:href="#DejaVuSans-32" x="63.623047"/>
     <use xlink:href="#DejaVuSans-37" x="127.246094"/>
    </g>
   </g>
   <g id="text_2">
    <!-- 23 -->
    <g transform="translate(685.388347 363.298438) scale(0.25 -0.25)">
     <defs>
      <path id="DejaVuSans-33" d="M 2597 2516 
Q 3050 2419 3304 2112 
Q 3559 1806 3559 1356 
Q 3559 666 3084 287 
Q 2609 -91 1734 -91 
Q 1441 -91 1130 -33 
Q 819 25 488 141 
L 488 750 
Q 750 597 1062 519 
Q 1375 441 1716 441 
Q 2309 441 2620 675 
Q 2931 909 2931 1356 
Q 2931 1769 2642 2001 
Q 2353 2234 1838 2234 
L 1294 2234 
L 1294 2753 
L 1863 2753 
Q 2328 2753 2575 2939 
Q 2822 3125 2822 3475 
Q 2822 3834 2567 4026 
Q 2313 4219 1838 4219 
Q 1578 4219 1281 4162 
Q 984 4106 628 3988 
L 628 4550 
Q 988 4650 1302 4700 
Q 1616 4750 1894 4750 
Q 2613 4750 3031 4423 
Q 3450 4097 3450 3541 
Q 3450 3153 3228 2886 
Q 3006 2619 2597 2516 
z
" transform="scale(0.015625)"/>
     </defs>
     <use xlink:href="#DejaVuSans-32"/>
     <use xlink:href="#DejaVuSans-33" x="63.623047"/>
    </g>
   </g>
   <g id="text_3">
    <!-- 199 -->
    <g transform="translate(500.569786 343.635113) scale(0.25 -0.25)">
     <defs>
      <path id="DejaVuSans-31" d="M 794 531 
L 1825 531 
L 1825 4091 
L 703 3866 
L 703 4441 
L 1819 4666 
L 2450 4666 
L 2450 531 
L 3481 531 
L 3481 0 
L 794 0 
L 794 531 
z
" transform="scale(0.015625)"/>
      <path id="DejaVuSans-39" d="M 703 97 
L 703 672 
Q 941 559 1184 500 
Q 1428 441 1663 441 
Q 2288 441 2617 861 
Q 2947 1281 2994 2138 
Q 2813 1869 2534 1725 
Q 2256 1581 1919 1581 
Q 1219 1581 811 2004 
Q 403 2428 403 3163 
Q 403 3881 828 4315 
Q 1253 4750 1959 4750 
Q 2769 4750 3195 4129 
Q 3622 3509 3622 2328 
Q 3622 1225 3098 567 
Q 2575 -91 1691 -91 
Q 1453 -91 1209 -44 
Q 966 3 703 97 
z
M 1959 2075 
Q 2384 2075 2632 2365 
Q 2881 2656 2881 3163 
Q 2881 3666 2632 3958 
Q 2384 4250 1959 4250 
Q 1534 4250 1286 3958 
Q 1038 3666 1038 3163 
Q 1038 2656 1286 2365 
Q 1534 2075 1959 2075 
z
" transform="scale(0.015625)"/>
     </defs>
     <use xlink:href="#DejaVuSans-31"/>
     <use xlink:href="#DejaVuSans-39" x="63.623047"/>
     <use xlink:href="#DejaVuSans-39" x="127.246094"/>
    </g>
   </g>
   <g id="text_4">
    <!-- 11 -->
    <g transform="translate(575.946954 528.922951) scale(0.25 -0.25)">
     <use xlink:href="#DejaVuSans-31"/>
     <use xlink:href="#DejaVuSans-31" x="63.623047"/>
    </g>
   </g>
   <g id="text_5">
    <!-- 67 -->
    <g transform="translate(564.666001 448.066904) scale(0.25 -0.25)">
     <defs>
      <path id="DejaVuSans-36" d="M 2113 2584 
Q 1688 2584 1439 2293 
Q 1191 2003 1191 1497 
Q 1191 994 1439 701 
Q 1688 409 2113 409 
Q 2538 409 2786 701 
Q 3034 994 3034 1497 
Q 3034 2003 2786 2293 
Q 2538 2584 2113 2584 
z
M 3366 4563 
L 3366 3988 
Q 3128 4100 2886 4159 
Q 2644 4219 2406 4219 
Q 1781 4219 1451 3797 
Q 1122 3375 1075 2522 
Q 1259 2794 1537 2939 
Q 1816 3084 2150 3084 
Q 2853 3084 3261 2657 
Q 3669 2231 3669 1497 
Q 3669 778 3244 343 
Q 2819 -91 2113 -91 
Q 1303 -91 875 529 
Q 447 1150 447 2328 
Q 447 3434 972 4092 
Q 1497 4750 2381 4750 
Q 2619 4750 2861 4703 
Q 3103 4656 3366 4563 
z
" transform="scale(0.015625)"/>
     </defs>
     <use xlink:href="#DejaVuSans-36"/>
     <use xlink:href="#DejaVuSans-37" x="63.623047"/>
    </g>
   </g>
   <g id="text_6">
    <!-- Manakov2022 -->
    <g transform="translate(7.2 138.824139) scale(0.23 -0.23)">
     <defs>
      <path id="DejaVuSans-4d" d="M 628 4666 
L 1569 4666 
L 2759 1491 
L 3956 4666 
L 4897 4666 
L 4897 0 
L 4281 0 
L 4281 4097 
L 3078 897 
L 2444 897 
L 1241 4097 
L 1241 0 
L 628 0 
L 628 4666 
z
" transform="scale(0.015625)"/>
      <path id="DejaVuSans-61" d="M 2194 1759 
Q 1497 1759 1228 1600 
Q 959 1441 959 1056 
Q 959 750 1161 570 
Q 1363 391 1709 391 
Q 2188 391 2477 730 
Q 2766 1069 2766 1631 
L 2766 1759 
L 2194 1759 
z
M 3341 1997 
L 3341 0 
L 2766 0 
L 2766 531 
Q 2569 213 2275 61 
Q 1981 -91 1556 -91 
Q 1019 -91 701 211 
Q 384 513 384 1019 
Q 384 1609 779 1909 
Q 1175 2209 1959 2209 
L 2766 2209 
L 2766 2266 
Q 2766 2663 2505 2880 
Q 2244 3097 1772 3097 
Q 1472 3097 1187 3025 
Q 903 2953 641 2809 
L 641 3341 
Q 956 3463 1253 3523 
Q 1550 3584 1831 3584 
Q 2591 3584 2966 3190 
Q 3341 2797 3341 1997 
z
" transform="scale(0.015625)"/>
      <path id="DejaVuSans-6e" d="M 3513 2113 
L 3513 0 
L 2938 0 
L 2938 2094 
Q 2938 2591 2744 2837 
Q 2550 3084 2163 3084 
Q 1697 3084 1428 2787 
Q 1159 2491 1159 1978 
L 1159 0 
L 581 0 
L 581 3500 
L 1159 3500 
L 1159 2956 
Q 1366 3272 1645 3428 
Q 1925 3584 2291 3584 
Q 2894 3584 3203 3211 
Q 3513 2838 3513 2113 
z
" transform="scale(0.015625)"/>
      <path id="DejaVuSans-6b" d="M 581 4863 
L 1159 4863 
L 1159 1991 
L 2875 3500 
L 3609 3500 
L 1753 1863 
L 3688 0 
L 2938 0 
L 1159 1709 
L 1159 0 
L 581 0 
L 581 4863 
z
" transform="scale(0.015625)"/>
      <path id="DejaVuSans-6f" d="M 1959 3097 
Q 1497 3097 1228 2736 
Q 959 2375 959 1747 
Q 959 1119 1226 758 
Q 1494 397 1959 397 
Q 2419 397 2687 759 
Q 2956 1122 2956 1747 
Q 2956 2369 2687 2733 
Q 2419 3097 1959 3097 
z
M 1959 3584 
Q 2709 3584 3137 3096 
Q 3566 2609 3566 1747 
Q 3566 888 3137 398 
Q 2709 -91 1959 -91 
Q 1206 -91 779 398 
Q 353 888 353 1747 
Q 353 2609 779 3096 
Q 1206 3584 1959 3584 
z
" transform="scale(0.015625)"/>
      <path id="DejaVuSans-76" d="M 191 3500 
L 800 3500 
L 1894 563 
L 2988 3500 
L 3597 3500 
L 2284 0 
L 1503 0 
L 191 3500 
z
" transform="scale(0.015625)"/>
      <path id="DejaVuSans-30" d="M 2034 4250 
Q 1547 4250 1301 3770 
Q 1056 3291 1056 2328 
Q 1056 1369 1301 889 
Q 1547 409 2034 409 
Q 2525 409 2770 889 
Q 3016 1369 3016 2328 
Q 3016 3291 2770 3770 
Q 2525 4250 2034 4250 
z
M 2034 4750 
Q 2819 4750 3233 4129 
Q 3647 3509 3647 2328 
Q 3647 1150 3233 529 
Q 2819 -91 2034 -91 
Q 1250 -91 836 529 
Q 422 1150 422 2328 
Q 422 3509 836 4129 
Q 1250 4750 2034 4750 
z
" transform="scale(0.015625)"/>
     </defs>
     <use xlink:href="#DejaVuSans-4d"/>
     <use xlink:href="#DejaVuSans-61" x="86.279297"/>
     <use xlink:href="#DejaVuSans-6e" x="147.558594"/>
     <use xlink:href="#DejaVuSans-61" x="210.9375"/>
     <use xlink:href="#DejaVuSans-6b" x="272.216797"/>
     <use xlink:href="#DejaVuSans-6f" x="326.501953"/>
     <use xlink:href="#DejaVuSans-76" x="387.683594"/>
     <use xlink:href="#DejaVuSans-32" x="446.863281"/>
     <use xlink:href="#DejaVuSans-30" x="510.486328"/>
     <use xlink:href="#DejaVuSans-32" x="574.109375"/>
     <use xlink:href="#DejaVuSans-32" x="637.732422"/>
    </g>
   </g>
   <g id="text_7">
    <!-- Hejret2023 -->
    <g transform="translate(672.37189 228.98778) scale(0.23 -0.23)">
     <defs>
      <path id="DejaVuSans-48" d="M 628 4666 
L 1259 4666 
L 1259 2753 
L 3553 2753 
L 3553 4666 
L 4184 4666 
L 4184 0 
L 3553 0 
L 3553 2222 
L 1259 2222 
L 1259 0 
L 628 0 
L 628 4666 
z
" transform="scale(0.015625)"/>
      <path id="DejaVuSans-65" d="M 3597 1894 
L 3597 1613 
L 953 1613 
Q 991 1019 1311 708 
Q 1631 397 2203 397 
Q 2534 397 2845 478 
Q 3156 559 3463 722 
L 3463 178 
Q 3153 47 2828 -22 
Q 2503 -91 2169 -91 
Q 1331 -91 842 396 
Q 353 884 353 1716 
Q 353 2575 817 3079 
Q 1281 3584 2069 3584 
Q 2775 3584 3186 3129 
Q 3597 2675 3597 1894 
z
M 3022 2063 
Q 3016 2534 2758 2815 
Q 2500 3097 2075 3097 
Q 1594 3097 1305 2825 
Q 1016 2553 972 2059 
L 3022 2063 
z
" transform="scale(0.015625)"/>
      <path id="DejaVuSans-6a" d="M 603 3500 
L 1178 3500 
L 1178 -63 
Q 1178 -731 923 -1031 
Q 669 -1331 103 -1331 
L -116 -1331 
L -116 -844 
L 38 -844 
Q 366 -844 484 -692 
Q 603 -541 603 -63 
L 603 3500 
z
M 603 4863 
L 1178 4863 
L 1178 4134 
L 603 4134 
L 603 4863 
z
" transform="scale(0.015625)"/>
      <path id="DejaVuSans-72" d="M 2631 2963 
Q 2534 3019 2420 3045 
Q 2306 3072 2169 3072 
Q 1681 3072 1420 2755 
Q 1159 2438 1159 1844 
L 1159 0 
L 581 0 
L 581 3500 
L 1159 3500 
L 1159 2956 
Q 1341 3275 1631 3429 
Q 1922 3584 2338 3584 
Q 2397 3584 2469 3576 
Q 2541 3569 2628 3553 
L 2631 2963 
z
" transform="scale(0.015625)"/>
      <path id="DejaVuSans-74" d="M 1172 4494 
L 1172 3500 
L 2356 3500 
L 2356 3053 
L 1172 3053 
L 1172 1153 
Q 1172 725 1289 603 
Q 1406 481 1766 481 
L 2356 481 
L 2356 0 
L 1766 0 
Q 1100 0 847 248 
Q 594 497 594 1153 
L 594 3053 
L 172 3053 
L 172 3500 
L 594 3500 
L 594 4494 
L 1172 4494 
z
" transform="scale(0.015625)"/>
     </defs>
     <use xlink:href="#DejaVuSans-48"/>
     <use xlink:href="#DejaVuSans-65" x="75.195312"/>
     <use xlink:href="#DejaVuSans-6a" x="136.71875"/>
     <use xlink:href="#DejaVuSans-72" x="164.501953"/>
     <use xlink:href="#DejaVuSans-65" x="203.365234"/>
     <use xlink:href="#DejaVuSans-74" x="264.888672"/>
     <use xlink:href="#DejaVuSans-32" x="304.097656"/>
     <use xlink:href="#DejaVuSans-30" x="367.720703"/>
     <use xlink:href="#DejaVuSans-32" x="431.34375"/>
     <use xlink:href="#DejaVuSans-33" x="494.966797"/>
    </g>
   </g>
   <g id="text_8">
    <!-- Klimentova2022 -->
    <g transform="translate(631.245889 564.688801) scale(0.23 -0.23)">
     <defs>
      <path id="DejaVuSans-4b" d="M 628 4666 
L 1259 4666 
L 1259 2694 
L 3353 4666 
L 4166 4666 
L 1850 2491 
L 4331 0 
L 3500 0 
L 1259 2247 
L 1259 0 
L 628 0 
L 628 4666 
z
" transform="scale(0.015625)"/>
      <path id="DejaVuSans-6c" d="M 603 4863 
L 1178 4863 
L 1178 0 
L 603 0 
L 603 4863 
z
" transform="scale(0.015625)"/>
      <path id="DejaVuSans-69" d="M 603 3500 
L 1178 3500 
L 1178 0 
L 603 0 
L 603 3500 
z
M 603 4863 
L 1178 4863 
L 1178 4134 
L 603 4134 
L 603 4863 
z
" transform="scale(0.015625)"/>
      <path id="DejaVuSans-6d" d="M 3328 2828 
Q 3544 3216 3844 3400 
Q 4144 3584 4550 3584 
Q 5097 3584 5394 3201 
Q 5691 2819 5691 2113 
L 5691 0 
L 5113 0 
L 5113 2094 
Q 5113 2597 4934 2840 
Q 4756 3084 4391 3084 
Q 3944 3084 3684 2787 
Q 3425 2491 3425 1978 
L 3425 0 
L 2847 0 
L 2847 2094 
Q 2847 2600 2669 2842 
Q 2491 3084 2119 3084 
Q 1678 3084 1418 2786 
Q 1159 2488 1159 1978 
L 1159 0 
L 581 0 
L 581 3500 
L 1159 3500 
L 1159 2956 
Q 1356 3278 1631 3431 
Q 1906 3584 2284 3584 
Q 2666 3584 2933 3390 
Q 3200 3197 3328 2828 
z
" transform="scale(0.015625)"/>
     </defs>
     <use xlink:href="#DejaVuSans-4b"/>
     <use xlink:href="#DejaVuSans-6c" x="65.576172"/>
     <use xlink:href="#DejaVuSans-69" x="93.359375"/>
     <use xlink:href="#DejaVuSans-6d" x="121.142578"/>
     <use xlink:href="#DejaVuSans-65" x="218.554688"/>
     <use xlink:href="#DejaVuSans-6e" x="280.078125"/>
     <use xlink:href="#DejaVuSans-74" x="343.457031"/>
     <use xlink:href="#DejaVuSans-6f" x="382.666016"/>
     <use xlink:href="#DejaVuSans-76" x="443.847656"/>
     <use xlink:href="#DejaVuSans-61" x="503.027344"/>
     <use xlink:href="#DejaVuSans-32" x="564.306641"/>
     <use xlink:href="#DejaVuSans-30" x="627.929688"/>
     <use xlink:href="#DejaVuSans-32" x="691.552734"/>
     <use xlink:href="#DejaVuSans-32" x="755.175781"/>
    </g>
   </g>
  </g>
 </g>
 <defs>
  <clipPath id="pff9d04ae71">
   <rect x="39.216815" y="7.2" width="731.830437" height="698.4"/>
  </clipPath>
 </defs>
</svg>
