<?xml version="1.0" encoding="UTF-8" standalone="no"?>
<svg
   width="826.55615pt"
   height="712.79999pt"
   viewBox="0 0 826.55616 712.8"
   version="1.1"
   id="svg234"
   sodipodi:docname="venn.svg"
   inkscape:export-filename="venn.png"
   inkscape:export-xdpi="300"
   inkscape:export-ydpi="300"
   inkscape:version="1.2.2 (b0a8486541, 2022-12-01)"
   xmlns:inkscape="http://www.inkscape.org/namespaces/inkscape"
   xmlns:sodipodi="http://sodipodi.sourceforge.net/DTD/sodipodi-0.dtd"
   xmlns:xlink="http://www.w3.org/1999/xlink"
   xmlns="http://www.w3.org/2000/svg"
   xmlns:svg="http://www.w3.org/2000/svg"
   xmlns:rdf="http://www.w3.org/1999/02/22-rdf-syntax-ns#"
   xmlns:cc="http://creativecommons.org/ns#"
   xmlns:dc="http://purl.org/dc/elements/1.1/">
  <sodipodi:namedview
     id="namedview236"
     pagecolor="#ffffff"
     bordercolor="#cccccc"
     borderopacity="1"
     inkscape:showpageshadow="0"
     inkscape:pageopacity="1"
     inkscape:pagecheckerboard="0"
     inkscape:deskcolor="#d1d1d1"
     inkscape:document-units="pt"
     showgrid="false"
     inkscape:zoom="0.82596803"
     inkscape:cx="551.47413"
     inkscape:cy="380.76534"
     inkscape:window-width="1920"
     inkscape:window-height="957"
     inkscape:window-x="0"
     inkscape:window-y="0"
     inkscape:window-maximized="1"
     inkscape:current-layer="svg234" />
  <metadata
     id="metadata18">
    <rdf:RDF>
      <cc:Work>
        <dc:type
           rdf:resource="http://purl.org/dc/dcmitype/StillImage" />
        <dc:date>2024-12-03T12:41:46.761466</dc:date>
        <dc:format>image/svg+xml</dc:format>
        <dc:creator>
          <cc:Agent>
            <dc:title>Matplotlib v3.9.2, https://matplotlib.org/</dc:title>
          </cc:Agent>
        </dc:creator>
      </cc:Work>
    </rdf:RDF>
  </metadata>
  <defs
     id="defs22">
    <rect
       x="948.39478"
       y="466.10083"
       width="26.011147"
       height="43.466991"
       id="rect497" />
    <style
       type="text/css"
       id="style20">*{stroke-linejoin: round; stroke-linecap: butt}</style>
  </defs>
  <g
     id="figure_1">
    <g
       id="patch_1">
      <path
         d="M 0,712.8 H 826.55616 V 0 H 0 Z"
         style="fill:#ffffff"
         id="path24" />
    </g>
    <g
       id="axes_1">
      <g
         id="patch_2">
        <path
           d="M 658.39002,235.96451 C 645.08456,206.07012 626.91661,178.58627 604.62566,154.63166 582.33472,130.67705 556.2274,110.58117 527.36638,95.162006 498.50535,79.74284 467.2876,69.212474 434.98381,63.999539 c -32.30379,-5.212935 -65.24928,-5.036736 -97.49546,0.521423 -32.24619,5.558159 -63.34952,16.421829 -92.04397,32.148812 -28.69445,15.726986 -54.58533,36.100956 -76.61878,60.292626 -22.03345,24.19166 -39.90639,51.86827 -52.89134,81.90326 -12.98495,30.03498 -20.903291,62.01524 -23.432717,94.63902 -2.529426,32.62379 0.364854,65.44238 8.565037,97.11992 8.20017,31.67754 21.59346,61.77831 39.63468,89.0771 18.04123,27.29878 40.48225,51.42008 66.40962,71.38207 25.92737,19.96199 54.98447,35.49009 85.98854,45.95224 31.00408,10.46215 63.52869,15.71446 96.24993,15.54312 32.72125,-0.17133 65.18907,-5.76395 96.08189,-16.55021 30.89281,-10.78626 59.7857,-26.6178 85.5026,-46.85021 25.71691,-20.23241 47.90409,-44.5874 65.65845,-72.07361 -15.90386,13.72954 -36.60544,20.6343 -57.56679,19.20072 -20.96134,-1.43359 -40.5301,-11.09251 -54.41665,-26.85947 -23.18117,-5.0829 -44.9074,-15.3667 -63.5336,-30.07272 -18.62621,-14.70602 -33.6701,-33.45347 -43.99256,-54.82282 -10.32246,-21.36936 -15.65622,-44.80729 -15.59741,-68.5391 0.0588,-23.73182 5.50868,-47.14302 15.93693,-68.46095 10.42825,-21.31793 25.56487,-39.99059 44.26373,-54.60411 18.69887,-14.61352 40.4758,-24.78951 63.68188,-29.75745 23.20607,-4.96794 47.24042,-4.59921 70.28317,1.07829 23.04275,5.6775 44.49727,16.51675 62.73903,31.69702"
           clip-path="url(#pf1011f2014)"
           style="opacity:0;fill:none"
           id="path27" />
      </g>
      <g
         id="patch_3">
        <path
           d="m 658.39002,235.96451 c 15.88181,35.68285 24.54964,74.15729 25.50335,113.20326 0.95372,39.04597 -5.8254,77.89771 -19.94617,114.31338 -0.14019,1.64947 -0.33169,3.29417 -0.57423,4.93171 -0.24255,1.63755 -0.53601,3.26715 -0.87996,4.88644 16.80917,-15.00122 30.18669,-33.45299 39.21767,-54.09339 9.03098,-20.6404 13.50474,-42.98792 13.11531,-65.51419 -0.38943,-22.52628 -5.63296,-44.7058 -15.37198,-65.02171 -9.73903,-20.31591 -23.74634,-38.29426 -41.06399,-52.7055"
           clip-path="url(#pf1011f2014)"
           style="opacity:0;fill:none"
           id="path30" />
      </g>
      <g
         id="patch_4">
        <path
           d="m 658.39002,235.96451 c -18.24176,-15.18027 -39.69628,-26.01952 -62.73903,-31.69702 -23.04275,-5.6775 -47.0771,-6.04623 -70.28317,-1.07829 -23.20608,4.96794 -44.98301,15.14393 -63.68188,29.75745 -18.69886,14.61352 -33.83548,33.28618 -44.26373,54.60411 -10.42825,21.31793 -15.87811,44.72913 -15.93693,68.46095 -0.0588,23.73181 5.27495,47.16974 15.59741,68.5391 10.32246,21.36935 25.36635,40.1168 43.99256,54.82282 18.6262,14.70602 40.35243,24.98982 63.5336,30.07272 -8.71726,-9.89767 -14.84507,-21.80463 -17.83282,-34.65095 -2.98775,-12.84631 -2.74318,-26.23534 0.71173,-38.96397 3.45491,-12.72863 10.01348,-24.40385 19.08639,-33.97657 9.07291,-9.57271 20.38,-16.74735 32.90526,-20.8792 12.52527,-4.13186 25.88196,-5.09337 38.86989,-2.79812 12.98793,2.29524 25.20607,7.77637 35.55654,15.95086 10.35048,8.17448 18.51368,18.78993 23.75611,30.89247 5.24243,12.10254 7.4022,25.31848 6.28525,38.46028 14.12077,-36.41567 20.89989,-75.26741 19.94617,-114.31338 -0.95371,-39.04597 -9.62154,-77.52041 -25.50335,-113.20326"
           clip-path="url(#pf1011f2014)"
           style="opacity:0;fill:none"
           id="path33" />
      </g>
      <g
         id="patch_5">
        <path
           d="m 636.59229,517.1051 c 6.54876,-5.65344 12.13435,-12.33483 16.53755,-19.78193 4.4032,-7.44712 7.56563,-15.56123 9.36317,-24.02387 -0.67358,0.60113 -1.35234,1.19643 -2.03621,1.78583 -0.68387,0.58939 -1.37282,1.17287 -2.06678,1.75036 -3.10675,6.98018 -6.48244,13.83754 -10.11947,20.55668 -3.63704,6.71914 -7.53271,13.29504 -11.67826,19.71293"
           clip-path="url(#pf1011f2014)"
           style="opacity:0;fill:none"
           id="path36" />
      </g>
      <g
         id="patch_6">
        <path
           d="m 636.59229,517.1051 c 4.14555,-6.41789 8.04122,-12.99379 11.67826,-19.71293 3.63703,-6.71914 7.01272,-13.5765 10.11947,-20.55668 -18.34252,15.26412 -39.93205,26.13802 -63.11616,31.78944 -23.18411,5.65142 -47.3558,5.9324 -70.66501,0.82142 13.88655,15.76696 33.45531,25.42588 54.41665,26.85947 20.96135,1.43358 41.66293,-5.47118 57.56679,-19.20072"
           clip-path="url(#pf1011f2014)"
           style="opacity:0;fill:none"
           id="path39" />
      </g>
      <g
         id="patch_7">
        <path
           d="m 524.60885,509.44635 c 23.30921,5.11098 47.4809,4.83 70.66501,-0.82142 23.18411,-5.65142 44.77364,-16.52532 63.11616,-31.78944 0.98038,-2.20269 1.93383,-4.41727 2.86013,-6.64324 0.9263,-2.22597 1.82538,-4.46317 2.69705,-6.7111 1.11695,-13.1418 -1.04282,-26.35774 -6.28525,-38.46028 -5.24243,-12.10254 -13.40563,-22.71799 -23.75611,-30.89247 -10.35047,-8.17449 -22.56861,-13.65562 -35.55654,-15.95086 -12.98793,-2.29525 -26.34462,-1.33374 -38.86989,2.79812 -12.52526,4.13185 -23.83235,11.30649 -32.90526,20.8792 -9.07291,9.57272 -15.63148,21.24794 -19.08639,33.97657 -3.45491,12.72863 -3.69948,26.11766 -0.71173,38.96397 2.98775,12.84632 9.11556,24.75328 17.83282,34.65095"
           clip-path="url(#pf1011f2014)"
           style="opacity:0;fill:none"
           id="path42" />
      </g>
      <g
         id="patch_8">
        <path
           d="m 387.79849,652.58319 c 78.5487,0 153.89083,-31.20773 209.43315,-86.75005 55.54232,-55.54232 86.75004,-130.88444 86.75004,-209.43314 0,-78.5487 -31.20772,-153.89083 -86.75004,-209.43314 C 541.68932,91.424537 466.34719,60.216807 387.79849,60.216807 c -78.5487,0 -153.89082,31.20773 -209.43314,86.750053 C 122.82303,202.50917 91.615299,277.8513 91.615299,356.4 c 0,78.5487 31.207731,153.89082 86.750051,209.43314 55.54232,55.54232 130.88444,86.75005 209.43314,86.75005 z"
           clip-path="url(#pf1011f2014)"
           style="fill:none;stroke:#f0e442;stroke-width:10;stroke-linejoin:miter"
           id="path45" />
      </g>
      <g
         id="patch_9">
        <path
           d="m 558.1671,513.0823 c 41.55263,0 81.40897,-16.50904 110.79111,-45.89119 29.38215,-29.38214 45.89118,-69.23848 45.89118,-110.79111 0,-41.55263 -16.50903,-81.40897 -45.89118,-110.79111 -29.38214,-29.38215 -69.23848,-45.89119 -110.79111,-45.89119 -41.55263,0 -81.40897,16.50904 -110.79112,45.89119 -29.38214,29.38214 -45.89118,69.23848 -45.89118,110.79111 0,41.55263 16.50904,81.40897 45.89118,110.79111 29.38215,29.38215 69.23849,45.89119 110.79112,45.89119 z"
           clip-path="url(#pf1011f2014)"
           style="fill:none;stroke:#0072b2;stroke-width:10;stroke-linejoin:miter"
           id="path48" />
      </g>
      <g
         id="patch_10">
        <path
           d="m 584.4681,536.49171 c 21.1541,0 41.44463,-8.40461 56.40283,-23.36281 14.95821,-14.95821 23.36282,-35.24874 23.36282,-56.40283 0,-21.1541 -8.40461,-41.44463 -23.36282,-56.40284 -14.9582,-14.9582 -35.24873,-23.36281 -56.40283,-23.36281 -21.1541,0 -41.44463,8.40461 -56.40283,23.36281 -14.95821,14.95821 -23.36282,35.24874 -23.36282,56.40284 0,21.15409 8.40461,41.44462 23.36282,56.40283 14.9582,14.9582 35.24873,23.36281 56.40283,23.36281 z"
           clip-path="url(#pf1011f2014)"
           style="fill:none;stroke:#cc79a7;stroke-width:10;stroke-linejoin:miter"
           id="path51" />
      </g>
      <g
         id="patch_11">
        <path
           d="M 73.085997,176.22174 H 99.594401 V 149.71333 H 73.085997 Z"
           clip-path="url(#pf1011f2014)"
           style="fill:#f0e442"
           id="path54" />
      </g>
      <g
         id="patch_12">
        <path
           d="m 725.19272,266.35031 h 26.50841 v -26.5084 h -26.50841 z"
           clip-path="url(#pf1011f2014)"
           style="fill:#0072b2"
           id="path57" />
      </g>
      <g
         id="patch_13">
        <path
           d="m 709.28768,600.35619 h 26.50841 v -26.5084 h -26.50841 z"
           clip-path="url(#pf1011f2014)"
           style="fill:#cc79a7"
           id="path60" />
      </g>
      <g
         id="text_1">
        <!-- 1137 -->
        <g
           transform="matrix(0.25,0,0,-0.25,245.52742,354.74716)"
           id="g76">
          <defs
             id="defs66">
            <path
               id="DejaVuSans-31"
               d="M 794,531 H 1825 V 4091 L 703,3866 v 575 l 1116,225 h 631 V 531 H 3481 V 0 H 794 Z"
               transform="scale(0.015625)" />
            <path
               id="DejaVuSans-33"
               d="m 2597,2516 q 453,-97 707,-404 255,-306 255,-756 0,-690 -475,-1069 -475,-378 -1350,-378 -293,0 -604,58 -311,58 -642,174 v 609 q 262,-153 574,-231 313,-78 654,-78 593,0 904,234 311,234 311,681 0,413 -289,645 -289,233 -804,233 h -544 v 519 h 569 q 465,0 712,186 247,186 247,536 0,359 -255,551 -254,193 -729,193 -260,0 -557,-57 -297,-56 -653,-174 v 562 q 360,100 674,150 314,50 592,50 719,0 1137,-327 419,-326 419,-882 0,-388 -222,-655 -222,-267 -631,-370 z"
               transform="scale(0.015625)" />
            <path
               id="DejaVuSans-37"
               d="M 525,4666 H 3525 V 4397 L 1831,0 H 1172 L 2766,4134 H 525 Z"
               transform="scale(0.015625)" />
          </defs>
          <use
             xlink:href="#DejaVuSans-31"
             id="use68" />
          <use
             xlink:href="#DejaVuSans-31"
             x="63.623047"
             id="use70" />
          <use
             xlink:href="#DejaVuSans-33"
             x="127.24609"
             id="use72" />
          <use
             xlink:href="#DejaVuSans-37"
             x="190.86914"
             id="use74" />
        </g>
      </g>
      <g
         id="text_2"
         inkscape:transform-center-x="-25.119674"
         inkscape:transform-center-y="-11.307755"
         inkscape:label="text_2"
         transform="translate(-3.9)">
        <!-- 30 -->
        <g
           transform="matrix(0.25,0,0,-0.25,687.21724,364.66146)"
           id="g86"
           inkscape:label="g86">
          <defs
             id="defs80">
            <path
               id="DejaVuSans-30"
               d="m 2034,4250 q -487,0 -733,-480 -245,-479 -245,-1442 0,-959 245,-1439 246,-480 733,-480 491,0 736,480 246,480 246,1439 0,963 -246,1442 -245,480 -736,480 z m 0,500 q 785,0 1199,-621 414,-620 414,-1801 0,-1178 -414,-1799 -414,-620 -1199,-620 -784,0 -1198,620 -414,621 -414,1799 0,1181 414,1801 414,621 1198,621 z"
               transform="scale(0.015625)" />
          </defs>
          <use
             xlink:href="#DejaVuSans-33"
             id="use82" />
          <use
             xlink:href="#DejaVuSans-30"
             x="63.623047"
             id="use84" />
        </g>
      </g>
      <g
         id="text_3">
        <!-- 309 -->
        <g
           transform="matrix(0.25,0,0,-0.25,485.82946,344.40534)"
           id="g98">
          <defs
             id="defs90">
            <path
               id="DejaVuSans-39"
               d="m 703,97 v 575 q 238,-113 481,-172 244,-59 479,-59 625,0 954,420 330,420 377,1277 -181,-269 -460,-413 -278,-144 -615,-144 -700,0 -1108,423 -408,424 -408,1159 0,718 425,1152 425,435 1131,435 810,0 1236,-621 427,-620 427,-1801 Q 3622,1225 3098,567 2575,-91 1691,-91 1453,-91 1209,-44 966,3 703,97 Z m 1256,1978 q 425,0 673,290 249,291 249,798 0,503 -249,795 -248,292 -673,292 -425,0 -673,-292 -248,-292 -248,-795 0,-507 248,-798 248,-290 673,-290 z"
               transform="scale(0.015625)" />
          </defs>
          <use
             xlink:href="#DejaVuSans-33"
             id="use92" />
          <use
             xlink:href="#DejaVuSans-30"
             x="63.623047"
             id="use94" />
          <use
             xlink:href="#DejaVuSans-39"
             x="127.24609"
             id="use96" />
        </g>
      </g>
      <g
         id="text_4"
         transform="translate(11.5,-2.5)">
        <!-- 15 -->
        <g
           transform="matrix(0.25,0,0,-0.25,572.83176,531.31753)"
           id="g108">
          <defs
             id="defs102">
            <path
               id="DejaVuSans-35"
               d="M 691,4666 H 3169 V 4134 H 1269 V 2991 q 137,47 274,70 138,23 276,23 781,0 1237,-428 457,-428 457,-1159 Q 3513,744 3044,326 2575,-91 1722,-91 1428,-91 1123,-41 819,9 494,109 v 635 q 281,-153 581,-228 300,-75 634,-75 541,0 856,284 316,284 316,772 0,487 -316,771 -315,285 -856,285 -253,0 -505,-56 -251,-56 -513,-175 z"
               transform="scale(0.015625)" />
          </defs>
          <use
             xlink:href="#DejaVuSans-31"
             id="use104" />
          <use
             xlink:href="#DejaVuSans-35"
             x="63.623047"
             id="use106" />
        </g>
      </g>
      <g
         id="text_5"
         transform="translate(20.3,35.2)">
        <!-- 97 -->
        <g
           transform="matrix(0.25,0,0,-0.25,551.22318,412.4311)"
           id="g115">
          <use
             xlink:href="#DejaVuSans-39"
             id="use111" />
          <use
             xlink:href="#DejaVuSans-37"
             x="63.623047"
             id="use113" />
        </g>
      </g>
      <g
         id="text_6">
        <!-- Manakov2022 -->
        <g
           transform="matrix(0.23,0,0,-0.23,7.2,139.10997)"
           id="g149">
          <defs
             id="defs125">
            <path
               id="DejaVuSans-4d"
               d="m 628,4666 h 941 L 2759,1491 3956,4666 h 941 V 0 H 4281 V 4097 L 3078,897 H 2444 L 1241,4097 V 0 H 628 Z"
               transform="scale(0.015625)" />
            <path
               id="DejaVuSans-61"
               d="m 2194,1759 q -697,0 -966,-159 -269,-159 -269,-544 0,-306 202,-486 202,-179 548,-179 479,0 768,339 289,339 289,901 v 128 z m 1147,238 V 0 H 2766 V 531 Q 2569,213 2275,61 1981,-91 1556,-91 q -537,0 -855,302 -317,302 -317,808 0,590 395,890 396,300 1180,300 h 807 v 57 q 0,397 -261,614 -261,217 -733,217 -300,0 -585,-72 -284,-72 -546,-216 v 532 q 315,122 612,182 297,61 578,61 760,0 1135,-394 375,-393 375,-1193 z"
               transform="scale(0.015625)" />
            <path
               id="DejaVuSans-6e"
               d="M 3513,2113 V 0 h -575 v 2094 q 0,497 -194,743 -194,247 -581,247 -466,0 -735,-297 -269,-296 -269,-809 V 0 H 581 v 3500 h 578 v -544 q 207,316 486,472 280,156 646,156 603,0 912,-373 310,-373 310,-1098 z"
               transform="scale(0.015625)" />
            <path
               id="DejaVuSans-6b"
               d="m 581,4863 h 578 V 1991 l 1716,1509 h 734 L 1753,1863 3688,0 H 2938 L 1159,1709 V 0 H 581 Z"
               transform="scale(0.015625)" />
            <path
               id="DejaVuSans-6f"
               d="m 1959,3097 q -462,0 -731,-361 -269,-361 -269,-989 0,-628 267,-989 268,-361 733,-361 460,0 728,362 269,363 269,988 0,622 -269,986 -268,364 -728,364 z m 0,487 q 750,0 1178,-488 429,-487 429,-1349 Q 3566,888 3137,398 2709,-91 1959,-91 1206,-91 779,398 353,888 353,1747 q 0,862 426,1349 427,488 1180,488 z"
               transform="scale(0.015625)" />
            <path
               id="DejaVuSans-76"
               d="M 191,3500 H 800 L 1894,563 2988,3500 h 609 L 2284,0 h -781 z"
               transform="scale(0.015625)" />
            <path
               id="DejaVuSans-32"
               d="M 1228,531 H 3431 V 0 H 469 v 531 q 359,372 979,998 621,627 780,809 303,340 423,576 121,236 121,464 0,372 -261,606 -261,235 -680,235 -297,0 -627,-103 -329,-103 -704,-313 v 638 q 381,153 712,231 332,78 607,78 725,0 1156,-363 431,-362 431,-968 0,-288 -108,-546 -107,-257 -392,-607 -78,-91 -497,-524 Q 1991,1309 1228,531 Z"
               transform="scale(0.015625)" />
          </defs>
          <use
             xlink:href="#DejaVuSans-4d"
             id="use127" />
          <use
             xlink:href="#DejaVuSans-61"
             x="86.279297"
             id="use129" />
          <use
             xlink:href="#DejaVuSans-6e"
             x="147.55859"
             id="use131" />
          <use
             xlink:href="#DejaVuSans-61"
             x="210.9375"
             id="use133" />
          <use
             xlink:href="#DejaVuSans-6b"
             x="272.2168"
             id="use135" />
          <use
             xlink:href="#DejaVuSans-6f"
             x="326.50195"
             id="use137" />
          <use
             xlink:href="#DejaVuSans-76"
             x="387.68359"
             id="use139" />
          <use
             xlink:href="#DejaVuSans-32"
             x="446.86328"
             id="use141" />
          <use
             xlink:href="#DejaVuSans-30"
             x="510.48633"
             id="use143" />
          <use
             xlink:href="#DejaVuSans-32"
             x="574.10938"
             id="use145" />
          <use
             xlink:href="#DejaVuSans-32"
             x="637.73242"
             id="use147" />
        </g>
      </g>
      <g
         id="text_7">
        <!-- Hejret2023 -->
        <g
           transform="matrix(0.23,0,0,-0.23,672.17592,229.23854)"
           id="g179">
          <defs
             id="defs157">
            <path
               id="DejaVuSans-48"
               d="m 628,4666 h 631 V 2753 h 2294 v 1913 h 631 V 0 H 3553 V 2222 H 1259 V 0 H 628 Z"
               transform="scale(0.015625)" />
            <path
               id="DejaVuSans-65"
               d="M 3597,1894 V 1613 H 953 q 38,-594 358,-905 320,-311 892,-311 331,0 642,81 311,81 618,244 V 178 Q 3153,47 2828,-22 2503,-91 2169,-91 1331,-91 842,396 353,884 353,1716 q 0,859 464,1363 464,505 1252,505 706,0 1117,-455 411,-454 411,-1235 z m -575,169 q -6,471 -264,752 -258,282 -683,282 -481,0 -770,-272 -289,-272 -333,-766 z"
               transform="scale(0.015625)" />
            <path
               id="DejaVuSans-6a"
               d="m 603,3500 h 575 V -63 q 0,-668 -255,-968 -254,-300 -820,-300 h -219 v 487 H 38 q 328,0 446,152 119,151 119,629 z m 0,1363 h 575 V 4134 H 603 Z"
               transform="scale(0.015625)" />
            <path
               id="DejaVuSans-72"
               d="m 2631,2963 q -97,56 -211,82 -114,27 -251,27 -488,0 -749,-317 -261,-317 -261,-911 V 0 H 581 v 3500 h 578 v -544 q 182,319 472,473 291,155 707,155 59,0 131,-8 72,-7 159,-23 z"
               transform="scale(0.015625)" />
            <path
               id="DejaVuSans-74"
               d="M 1172,4494 V 3500 H 2356 V 3053 H 1172 V 1153 q 0,-428 117,-550 117,-122 477,-122 h 590 V 0 H 1766 Q 1100,0 847,248 594,497 594,1153 V 3053 H 172 v 447 h 422 v 994 z"
               transform="scale(0.015625)" />
          </defs>
          <use
             xlink:href="#DejaVuSans-48"
             id="use159" />
          <use
             xlink:href="#DejaVuSans-65"
             x="75.195312"
             id="use161" />
          <use
             xlink:href="#DejaVuSans-6a"
             x="136.71875"
             id="use163" />
          <use
             xlink:href="#DejaVuSans-72"
             x="164.50195"
             id="use165" />
          <use
             xlink:href="#DejaVuSans-65"
             x="203.36523"
             id="use167" />
          <use
             xlink:href="#DejaVuSans-74"
             x="264.88867"
             id="use169" />
          <use
             xlink:href="#DejaVuSans-32"
             x="304.09766"
             id="use171" />
          <use
             xlink:href="#DejaVuSans-30"
             x="367.7207"
             id="use173" />
          <use
             xlink:href="#DejaVuSans-32"
             x="431.34375"
             id="use175" />
          <use
             xlink:href="#DejaVuSans-33"
             x="494.9668"
             id="use177" />
        </g>
      </g>
      <g
         id="text_8">
        <!-- Klimentova2022 -->
        <g
           transform="matrix(0.23,0,0,-0.23,631.02929,564.81579)"
           id="g216">
          <defs
             id="defs186">
            <path
               id="DejaVuSans-4b"
               d="m 628,4666 h 631 V 2694 l 2094,1972 h 813 L 1850,2491 4331,0 H 3500 L 1259,2247 V 0 H 628 Z"
               transform="scale(0.015625)" />
            <path
               id="DejaVuSans-6c"
               d="m 603,4863 h 575 V 0 H 603 Z"
               transform="scale(0.015625)" />
            <path
               id="DejaVuSans-69"
               d="m 603,3500 h 575 V 0 H 603 Z m 0,1363 h 575 V 4134 H 603 Z"
               transform="scale(0.015625)" />
            <path
               id="DejaVuSans-6d"
               d="m 3328,2828 q 216,388 516,572 300,184 706,184 547,0 844,-383 297,-382 297,-1088 V 0 h -578 v 2094 q 0,503 -179,746 -178,244 -543,244 -447,0 -707,-297 -259,-296 -259,-809 V 0 h -578 v 2094 q 0,506 -178,748 -178,242 -550,242 -441,0 -701,-298 -259,-298 -259,-808 V 0 H 581 v 3500 h 578 v -544 q 197,322 472,475 275,153 653,153 382,0 649,-194 267,-193 395,-562 z"
               transform="scale(0.015625)" />
          </defs>
          <use
             xlink:href="#DejaVuSans-4b"
             id="use188" />
          <use
             xlink:href="#DejaVuSans-6c"
             x="65.576172"
             id="use190" />
          <use
             xlink:href="#DejaVuSans-69"
             x="93.359375"
             id="use192" />
          <use
             xlink:href="#DejaVuSans-6d"
             x="121.14258"
             id="use194" />
          <use
             xlink:href="#DejaVuSans-65"
             x="218.55469"
             id="use196" />
          <use
             xlink:href="#DejaVuSans-6e"
             x="280.07812"
             id="use198" />
          <use
             xlink:href="#DejaVuSans-74"
             x="343.45703"
             id="use200" />
          <use
             xlink:href="#DejaVuSans-6f"
             x="382.66602"
             id="use202" />
          <use
             xlink:href="#DejaVuSans-76"
             x="443.84766"
             id="use204" />
          <use
             xlink:href="#DejaVuSans-61"
             x="503.02734"
             id="use206" />
          <use
             xlink:href="#DejaVuSans-32"
             x="564.30664"
             id="use208" />
          <use
             xlink:href="#DejaVuSans-30"
             x="627.92969"
             id="use210" />
          <use
             xlink:href="#DejaVuSans-32"
             x="691.55273"
             id="use212" />
          <use
             xlink:href="#DejaVuSans-32"
             x="755.17578"
             id="use214" />
        </g>
      </g>
      <g
         id="patch_14">
        <path
           d="m 723.19269,496.41919 q -34.33038,0 -68.66075,0"
           style="fill:none;stroke:#000000;stroke-width:2.5;stroke-linecap:round"
           id="path219" />
      </g>
      <g
         id="text_9">
        <!-- 1 -->
        <g
           transform="matrix(0.2,0,0,-0.2,725.19272,501.93794)"
           id="g224">
          <use
             xlink:href="#DejaVuSans-31"
             id="use222" />
        </g>
      </g>
    </g>
  </g>
  <defs
     id="defs232">
    <clipPath
       id="pf1011f2014">
      <rect
         x="38.598492"
         y="7.1999998"
         width="729.2677"
         height="698.40002"
         id="rect229" />
    </clipPath>
  </defs>
  <text
     xml:space="preserve"
     transform="matrix(0.75,0,0,0.75,-1.2627228,-2.5609156)"
     id="text495"
     style="font-weight:bold;font-size:26.6667px;font-family:sans-serif;-inkscape-font-specification:'sans-serif, Bold';white-space:pre;shape-inside:url(#rect497);fill:#ffffff" />
</svg>
