<?xml version="1.0" encoding="utf-8" standalone="no"?>
<!DOCTYPE svg PUBLIC "-//W3C//DTD SVG 1.1//EN"
  "http://www.w3.org/Graphics/SVG/1.1/DTD/svg11.dtd">
<svg xmlns:xlink="http://www.w3.org/1999/xlink" width="793.449326pt" height="712.8pt" viewBox="0 0 793.449326 712.8" xmlns="http://www.w3.org/2000/svg" version="1.1">
 <metadata>
  <rdf:RDF xmlns:dc="http://purl.org/dc/elements/1.1/" xmlns:cc="http://creativecommons.org/ns#" xmlns:rdf="http://www.w3.org/1999/02/22-rdf-syntax-ns#">
   <cc:Work>
    <dc:type rdf:resource="http://purl.org/dc/dcmitype/StillImage"/>
    <dc:date>2024-10-29T12:32:47.084015</dc:date>
    <dc:format>image/svg+xml</dc:format>
    <dc:creator>
     <cc:Agent>
      <dc:title>Matplotlib v3.9.2, https://matplotlib.org/</dc:title>
     </cc:Agent>
    </dc:creator>
   </cc:Work>
  </rdf:RDF>
 </metadata>
 <defs>
  <style type="text/css">*{stroke-linejoin: round; stroke-linecap: butt}</style>
 </defs>
 <g id="figure_1">
  <g id="patch_1">
   <path d="M 0 712.8 
L 793.449326 712.8 
L 793.449326 0 
L 0 0 
z
" style="fill: #ffffff"/>
  </g>
  <g id="axes_1">
   <g id="patch_2">
    <path d="M 638.227798 476.197046 
C 638.015944 476.361135 637.803655 476.524663 637.590933 476.687627 
C 637.378211 476.85059 637.165058 477.012989 636.951474 477.174822 
C 636.467833 478.753471 635.934647 480.316513 635.352706 481.861629 
C 634.770766 483.406745 634.14036 484.933171 633.462423 486.438642 
C 634.289116 484.74705 635.09966 483.047614 635.893943 481.340565 
C 636.688226 479.633516 637.466213 477.918932 638.227798 476.197046 
M 638.227798 236.602954 
C 624.745334 206.120103 606.213097 178.130881 583.413559 153.817055 
C 560.61402 129.503229 533.872642 109.211876 504.318502 93.79974 
C 474.764362 78.387605 442.819344 68.074695 409.832234 63.296442 
C 376.845125 58.51819 343.286812 59.342804 310.574201 65.735469 
C 277.86159 72.128134 246.46165 83.997594 217.700154 100.842696 
C 188.938658 117.687797 163.226174 139.268077 141.648339 164.672371 
C 120.070503 190.076664 102.935338 218.942326 90.966327 250.050586 
C 78.997316 281.158847 72.365315 314.065637 71.350342 347.381564 
C 70.33537 380.69749 74.951913 413.946968 85.005053 445.726136 
C 95.058193 477.505303 110.404421 507.360514 130.395786 534.031217 
C 150.387152 560.70192 174.73828 583.807392 202.421014 602.372073 
C 230.103748 620.936753 260.722918 634.695631 292.985718 643.067778 
C 325.248518 651.439925 358.694398 654.305829 391.911202 651.544485 
C 425.128006 648.783141 457.641566 640.433967 488.079091 626.849483 
C 518.516616 613.265 546.443611 594.639124 570.68094 571.758281 
C 594.918268 548.877437 615.119943 522.068248 630.433008 492.462654 
C 623.989006 504.015587 614.735687 513.759972 603.531098 520.792226 
C 592.32651 527.824481 579.528027 531.920309 566.322437 532.699909 
C 553.116846 533.479509 539.925344 530.918016 527.971162 525.252953 
C 516.01698 519.58789 505.681401 510.999948 497.922829 500.285473 
C 476.96753 493.365134 457.774803 481.949754 441.690488 466.839807 
C 425.606174 451.729861 413.015227 433.286983 404.800557 412.804433 
C 396.585886 392.321884 392.944098 370.289883 394.130563 348.253369 
C 395.317028 326.216855 401.30335 304.70324 411.669754 285.221111 
C 422.036157 265.738983 436.534537 248.754618 454.148232 235.459002 
C 471.761927 222.163385 492.069377 212.874729 513.646576 208.244377 
C 535.223774 203.614024 557.554301 203.752796 579.072284 208.650961 
C 600.590268 213.549127 620.780707 223.089455 638.227798 236.602954 
" clip-path="url(#p4cb6191743)" style="fill: none; opacity: 0"/>
   </g>
   <g id="patch_3">
    <path d="M 638.227798 236.602954 
C 654.916646 274.335203 663.538129 315.141786 663.538129 356.4 
C 663.538129 397.658214 654.916646 438.464797 638.227798 476.197046 
C 656.510864 462.036048 671.311788 443.875735 681.49313 423.111712 
C 691.674471 402.347689 696.968566 379.525838 696.968566 356.4 
C 696.968566 333.274162 691.674471 310.452311 681.49313 289.688288 
C 671.311788 268.924265 656.510864 250.763952 638.227798 236.602954 
" clip-path="url(#p4cb6191743)" style="fill: none; opacity: 0"/>
   </g>
   <g id="patch_4">
    <path d="M 638.227798 236.602954 
C 620.780707 223.089455 600.590268 213.549127 579.072284 208.650961 
C 557.554301 203.752796 535.223774 203.614024 513.646576 208.244377 
C 492.069377 212.874729 471.761927 222.163385 454.148232 235.459002 
C 436.534537 248.754618 422.036157 265.738983 411.669754 285.221111 
C 401.30335 304.70324 395.317028 326.216855 394.130563 348.253369 
C 392.944098 370.289883 396.585886 392.321884 404.800557 412.804433 
C 413.015227 433.286983 425.606174 451.729861 441.690488 466.839807 
C 457.774803 481.949754 476.96753 493.365134 497.922829 500.285473 
C 490.059748 489.426674 485.099467 476.737062 483.514075 463.424358 
C 481.928684 450.111653 483.770125 436.612034 488.863142 424.21031 
C 493.956159 411.808587 502.133885 400.91109 512.618012 392.554977 
C 523.10214 384.198863 535.549168 378.657913 548.774464 376.459479 
C 561.99976 374.261046 575.57001 375.477159 588.193682 379.992077 
C 600.817354 384.506994 612.080844 392.172789 620.912163 402.259878 
C 629.743483 412.346967 635.853281 424.524857 638.660066 437.63453 
C 641.466851 450.744203 640.87866 464.356134 636.951474 477.174822 
C 637.165058 477.012989 637.378211 476.85059 637.590933 476.687627 
C 637.803655 476.524663 638.015944 476.361135 638.227798 476.197046 
C 654.916646 438.464797 663.538129 397.658214 663.538129 356.4 
C 663.538129 315.141786 654.916646 274.335203 638.227798 236.602954 
" clip-path="url(#p4cb6191743)" style="fill: none; opacity: 0"/>
   </g>
   <g id="patch_5">
    <path d="M 636.951474 477.174822 
C 617.384546 492.000749 594.504627 501.851861 570.287538 505.877453 
C 546.07045 509.903046 521.233951 507.983806 497.922829 500.285473 
C 505.681401 510.999948 516.01698 519.58789 527.971162 525.252953 
C 539.925344 530.918016 553.116846 533.479509 566.322437 532.699909 
C 579.528027 531.920309 592.32651 527.824481 603.531098 520.792226 
C 614.735687 513.759972 623.989006 504.015587 630.433008 492.462654 
C 630.94932 491.464441 631.459945 490.463296 631.96486 489.45927 
C 632.469775 488.455243 632.96897 487.448351 633.462423 486.438642 
C 634.14036 484.933171 634.770766 483.406745 635.352706 481.861629 
C 635.934647 480.316513 636.467833 478.753471 636.951474 477.174822 
" clip-path="url(#p4cb6191743)" style="fill: none; opacity: 0"/>
   </g>
   <g id="patch_6">
    <path d="M 497.922829 500.285473 
C 521.233951 507.983806 546.07045 509.903046 570.287538 505.877453 
C 594.504627 501.851861 617.384546 492.000749 636.951474 477.174822 
C 640.87866 464.356134 641.466851 450.744203 638.660066 437.63453 
C 635.853281 424.524857 629.743483 412.346967 620.912163 402.259878 
C 612.080844 392.172789 600.817354 384.506994 588.193682 379.992077 
C 575.57001 375.477159 561.99976 374.261046 548.774464 376.459479 
C 535.549168 378.657913 523.10214 384.198863 512.618012 392.554977 
C 502.133885 400.91109 493.956159 411.808587 488.863142 424.21031 
C 483.770125 436.612034 481.928684 450.111653 483.514075 463.424358 
C 485.099467 476.737062 490.059748 489.426674 497.922829 500.285473 
" clip-path="url(#p4cb6191743)" style="fill: none; opacity: 0"/>
   </g>
   <g id="patch_7">
    <path d="M 367.375565 652.562564 
C 445.918795 652.562564 521.255672 621.357008 576.794122 565.818557 
C 632.332573 510.280107 663.538129 434.94323 663.538129 356.4 
C 663.538129 277.85677 632.332573 202.519893 576.794122 146.981443 
C 521.255672 91.442992 445.918795 60.237436 367.375565 60.237436 
C 288.832335 60.237436 213.495458 91.442992 157.957007 146.981443 
C 102.418557 202.519893 71.213 277.85677 71.213 356.4 
C 71.213 434.94323 102.418557 510.280107 157.957007 565.818557 
C 213.495458 621.357008 288.832335 652.562564 367.375565 652.562564 
L 367.375565 652.562564 
z
" clip-path="url(#p4cb6191743)" style="fill: none; stroke: #f0e442; stroke-width: 10; stroke-linejoin: miter"/>
   </g>
   <g id="patch_8">
    <path d="M 545.439988 507.928577 
C 585.625837 507.928577 624.171187 491.962571 652.586873 463.546885 
C 681.002559 435.131199 696.968566 396.585848 696.968566 356.4 
C 696.968566 316.214152 681.002559 277.668801 652.586873 249.253115 
C 624.171187 220.837429 585.625837 204.871423 545.439988 204.871423 
C 505.25414 204.871423 466.708789 220.837429 438.293103 249.253115 
C 409.877417 277.668801 393.911411 316.214152 393.911411 356.4 
C 393.911411 396.585848 409.877417 435.131199 438.293103 463.546885 
C 466.708789 491.962571 505.25414 507.928577 545.439988 507.928577 
L 545.439988 507.928577 
z
" clip-path="url(#p4cb6191743)" style="fill: none; stroke: #0072b2; stroke-width: 10; stroke-linejoin: miter"/>
   </g>
   <g id="patch_9">
    <path d="M 561.683147 532.836731 
C 582.560312 532.836731 602.585213 524.542146 617.347598 509.779761 
C 632.109983 495.017376 640.404569 474.992475 640.404569 454.11531 
C 640.404569 433.238145 632.109983 413.213244 617.347598 398.450859 
C 602.585213 383.688475 582.560312 375.393889 561.683147 375.393889 
C 540.805982 375.393889 520.781081 383.688475 506.018696 398.450859 
C 491.256312 413.213244 482.961726 433.238145 482.961726 454.11531 
C 482.961726 474.992475 491.256312 495.017376 506.018696 509.779761 
C 520.781081 524.542146 540.805982 532.836731 561.683147 532.836731 
L 561.683147 532.836731 
z
" clip-path="url(#p4cb6191743)" style="fill: none; stroke: #cc79a7; stroke-width: 10; stroke-linejoin: miter"/>
   </g>
   <g id="patch_10">
    <path d="M 52.007616 175.950344 
L 78.526333 175.950344 
L 78.526333 149.431626 
L 52.007616 149.431626 
z
" clip-path="url(#p4cb6191743)" style="fill: #f0e442"/>
   </g>
   <g id="patch_11">
    <path d="M 704.368076 266.113985 
L 730.886794 266.113985 
L 730.886794 239.595267 
L 704.368076 239.595267 
z
" clip-path="url(#p4cb6191743)" style="fill: #0072b2"/>
   </g>
   <g id="patch_12">
    <path d="M 688.456845 600.24983 
L 714.975563 600.24983 
L 714.975563 573.731113 
L 688.456845 573.731113 
z
" clip-path="url(#p4cb6191743)" style="fill: #cc79a7"/>
   </g>
   <g id="text_1">
    <!-- 827 -->
    <g transform="translate(250.696896 367.181611) scale(0.2 -0.2)">
     <defs>
      <path id="DejaVuSans-Bold-38" d="M 2228 2088 
Q 1891 2088 1709 1903 
Q 1528 1719 1528 1375 
Q 1528 1031 1709 848 
Q 1891 666 2228 666 
Q 2563 666 2741 848 
Q 2919 1031 2919 1375 
Q 2919 1722 2741 1905 
Q 2563 2088 2228 2088 
z
M 1350 2484 
Q 925 2613 709 2878 
Q 494 3144 494 3541 
Q 494 4131 934 4440 
Q 1375 4750 2228 4750 
Q 3075 4750 3515 4442 
Q 3956 4134 3956 3541 
Q 3956 3144 3739 2878 
Q 3522 2613 3097 2484 
Q 3572 2353 3814 2058 
Q 4056 1763 4056 1313 
Q 4056 619 3595 264 
Q 3134 -91 2228 -91 
Q 1319 -91 855 264 
Q 391 619 391 1313 
Q 391 1763 633 2058 
Q 875 2353 1350 2484 
z
M 1631 3419 
Q 1631 3141 1786 2991 
Q 1941 2841 2228 2841 
Q 2509 2841 2662 2991 
Q 2816 3141 2816 3419 
Q 2816 3697 2662 3845 
Q 2509 3994 2228 3994 
Q 1941 3994 1786 3844 
Q 1631 3694 1631 3419 
z
" transform="scale(0.015625)"/>
      <path id="DejaVuSans-Bold-32" d="M 1844 884 
L 3897 884 
L 3897 0 
L 506 0 
L 506 884 
L 2209 2388 
Q 2438 2594 2547 2791 
Q 2656 2988 2656 3200 
Q 2656 3528 2436 3728 
Q 2216 3928 1850 3928 
Q 1569 3928 1234 3808 
Q 900 3688 519 3450 
L 519 4475 
Q 925 4609 1322 4679 
Q 1719 4750 2100 4750 
Q 2938 4750 3402 4381 
Q 3866 4013 3866 3353 
Q 3866 2972 3669 2642 
Q 3472 2313 2841 1759 
L 1844 884 
z
" transform="scale(0.015625)"/>
      <path id="DejaVuSans-Bold-37" d="M 428 4666 
L 3944 4666 
L 3944 3988 
L 2125 0 
L 953 0 
L 2675 3781 
L 428 3781 
L 428 4666 
z
" transform="scale(0.015625)"/>
     </defs>
     <use xlink:href="#DejaVuSans-Bold-38"/>
     <use xlink:href="#DejaVuSans-Bold-32" x="69.580078"/>
     <use xlink:href="#DejaVuSans-Bold-37" x="139.160156"/>
    </g>
   </g>
   <g id="text_2">
    <!-- 23 -->
    <g transform="translate(666.337722 361.91875) scale(0.2 -0.2)">
     <defs>
      <path id="DejaVuSans-Bold-33" d="M 2981 2516 
Q 3453 2394 3698 2092 
Q 3944 1791 3944 1325 
Q 3944 631 3412 270 
Q 2881 -91 1863 -91 
Q 1503 -91 1142 -33 
Q 781 25 428 141 
L 428 1069 
Q 766 900 1098 814 
Q 1431 728 1753 728 
Q 2231 728 2486 893 
Q 2741 1059 2741 1369 
Q 2741 1688 2480 1852 
Q 2219 2016 1709 2016 
L 1228 2016 
L 1228 2791 
L 1734 2791 
Q 2188 2791 2409 2933 
Q 2631 3075 2631 3366 
Q 2631 3634 2415 3781 
Q 2200 3928 1806 3928 
Q 1516 3928 1219 3862 
Q 922 3797 628 3669 
L 628 4550 
Q 984 4650 1334 4700 
Q 1684 4750 2022 4750 
Q 2931 4750 3382 4451 
Q 3834 4153 3834 3553 
Q 3834 3144 3618 2883 
Q 3403 2622 2981 2516 
z
" transform="scale(0.015625)"/>
     </defs>
     <use xlink:href="#DejaVuSans-Bold-32"/>
     <use xlink:href="#DejaVuSans-Bold-33" x="69.580078"/>
    </g>
   </g>
   <g id="text_3">
    <!-- 199 -->
    <g transform="translate(482.514473 342.255425) scale(0.2 -0.2)">
     <defs>
      <path id="DejaVuSans-Bold-31" d="M 750 831 
L 1813 831 
L 1813 3847 
L 722 3622 
L 722 4441 
L 1806 4666 
L 2950 4666 
L 2950 831 
L 4013 831 
L 4013 0 
L 750 0 
L 750 831 
z
" transform="scale(0.015625)"/>
      <path id="DejaVuSans-Bold-39" d="M 641 103 
L 641 966 
Q 928 831 1190 764 
Q 1453 697 1709 697 
Q 2247 697 2547 995 
Q 2847 1294 2900 1881 
Q 2688 1725 2447 1647 
Q 2206 1569 1925 1569 
Q 1209 1569 770 1986 
Q 331 2403 331 3084 
Q 331 3838 820 4291 
Q 1309 4744 2131 4744 
Q 3044 4744 3544 4128 
Q 4044 3513 4044 2388 
Q 4044 1231 3459 570 
Q 2875 -91 1856 -91 
Q 1528 -91 1228 -42 
Q 928 6 641 103 
z
M 2125 2350 
Q 2441 2350 2600 2554 
Q 2759 2759 2759 3169 
Q 2759 3575 2600 3781 
Q 2441 3988 2125 3988 
Q 1809 3988 1650 3781 
Q 1491 3575 1491 3169 
Q 1491 2759 1650 2554 
Q 1809 2350 2125 2350 
z
" transform="scale(0.015625)"/>
     </defs>
     <use xlink:href="#DejaVuSans-Bold-31"/>
     <use xlink:href="#DejaVuSans-Bold-39" x="69.580078"/>
     <use xlink:href="#DejaVuSans-Bold-39" x="139.160156"/>
    </g>
   </g>
   <g id="text_4">
    <!-- 11 -->
    <g transform="translate(556.896329 527.543263) scale(0.2 -0.2)">
     <use xlink:href="#DejaVuSans-Bold-31"/>
     <use xlink:href="#DejaVuSans-Bold-31" x="69.580078"/>
    </g>
   </g>
   <g id="text_5">
    <!-- 67 -->
    <g transform="translate(545.615376 446.687216) scale(0.2 -0.2)">
     <defs>
      <path id="DejaVuSans-Bold-36" d="M 2316 2303 
Q 2000 2303 1842 2098 
Q 1684 1894 1684 1484 
Q 1684 1075 1842 870 
Q 2000 666 2316 666 
Q 2634 666 2792 870 
Q 2950 1075 2950 1484 
Q 2950 1894 2792 2098 
Q 2634 2303 2316 2303 
z
M 3803 4544 
L 3803 3681 
Q 3506 3822 3243 3889 
Q 2981 3956 2731 3956 
Q 2194 3956 1894 3657 
Q 1594 3359 1544 2772 
Q 1750 2925 1990 3001 
Q 2231 3078 2516 3078 
Q 3231 3078 3670 2659 
Q 4109 2241 4109 1563 
Q 4109 813 3618 361 
Q 3128 -91 2303 -91 
Q 1394 -91 895 523 
Q 397 1138 397 2266 
Q 397 3422 980 4083 
Q 1563 4744 2578 4744 
Q 2900 4744 3203 4694 
Q 3506 4644 3803 4544 
z
" transform="scale(0.015625)"/>
     </defs>
     <use xlink:href="#DejaVuSans-Bold-36"/>
     <use xlink:href="#DejaVuSans-Bold-37" x="69.580078"/>
    </g>
   </g>
   <g id="text_6">
    <!-- Manakov2022 -->
    <g transform="translate(7.2 138.824139) scale(0.2 -0.2)">
     <defs>
      <path id="DejaVuSans-4d" d="M 628 4666 
L 1569 4666 
L 2759 1491 
L 3956 4666 
L 4897 4666 
L 4897 0 
L 4281 0 
L 4281 4097 
L 3078 897 
L 2444 897 
L 1241 4097 
L 1241 0 
L 628 0 
L 628 4666 
z
" transform="scale(0.015625)"/>
      <path id="DejaVuSans-61" d="M 2194 1759 
Q 1497 1759 1228 1600 
Q 959 1441 959 1056 
Q 959 750 1161 570 
Q 1363 391 1709 391 
Q 2188 391 2477 730 
Q 2766 1069 2766 1631 
L 2766 1759 
L 2194 1759 
z
M 3341 1997 
L 3341 0 
L 2766 0 
L 2766 531 
Q 2569 213 2275 61 
Q 1981 -91 1556 -91 
Q 1019 -91 701 211 
Q 384 513 384 1019 
Q 384 1609 779 1909 
Q 1175 2209 1959 2209 
L 2766 2209 
L 2766 2266 
Q 2766 2663 2505 2880 
Q 2244 3097 1772 3097 
Q 1472 3097 1187 3025 
Q 903 2953 641 2809 
L 641 3341 
Q 956 3463 1253 3523 
Q 1550 3584 1831 3584 
Q 2591 3584 2966 3190 
Q 3341 2797 3341 1997 
z
" transform="scale(0.015625)"/>
      <path id="DejaVuSans-6e" d="M 3513 2113 
L 3513 0 
L 2938 0 
L 2938 2094 
Q 2938 2591 2744 2837 
Q 2550 3084 2163 3084 
Q 1697 3084 1428 2787 
Q 1159 2491 1159 1978 
L 1159 0 
L 581 0 
L 581 3500 
L 1159 3500 
L 1159 2956 
Q 1366 3272 1645 3428 
Q 1925 3584 2291 3584 
Q 2894 3584 3203 3211 
Q 3513 2838 3513 2113 
z
" transform="scale(0.015625)"/>
      <path id="DejaVuSans-6b" d="M 581 4863 
L 1159 4863 
L 1159 1991 
L 2875 3500 
L 3609 3500 
L 1753 1863 
L 3688 0 
L 2938 0 
L 1159 1709 
L 1159 0 
L 581 0 
L 581 4863 
z
" transform="scale(0.015625)"/>
      <path id="DejaVuSans-6f" d="M 1959 3097 
Q 1497 3097 1228 2736 
Q 959 2375 959 1747 
Q 959 1119 1226 758 
Q 1494 397 1959 397 
Q 2419 397 2687 759 
Q 2956 1122 2956 1747 
Q 2956 2369 2687 2733 
Q 2419 3097 1959 3097 
z
M 1959 3584 
Q 2709 3584 3137 3096 
Q 3566 2609 3566 1747 
Q 3566 888 3137 398 
Q 2709 -91 1959 -91 
Q 1206 -91 779 398 
Q 353 888 353 1747 
Q 353 2609 779 3096 
Q 1206 3584 1959 3584 
z
" transform="scale(0.015625)"/>
      <path id="DejaVuSans-76" d="M 191 3500 
L 800 3500 
L 1894 563 
L 2988 3500 
L 3597 3500 
L 2284 0 
L 1503 0 
L 191 3500 
z
" transform="scale(0.015625)"/>
      <path id="DejaVuSans-32" d="M 1228 531 
L 3431 531 
L 3431 0 
L 469 0 
L 469 531 
Q 828 903 1448 1529 
Q 2069 2156 2228 2338 
Q 2531 2678 2651 2914 
Q 2772 3150 2772 3378 
Q 2772 3750 2511 3984 
Q 2250 4219 1831 4219 
Q 1534 4219 1204 4116 
Q 875 4013 500 3803 
L 500 4441 
Q 881 4594 1212 4672 
Q 1544 4750 1819 4750 
Q 2544 4750 2975 4387 
Q 3406 4025 3406 3419 
Q 3406 3131 3298 2873 
Q 3191 2616 2906 2266 
Q 2828 2175 2409 1742 
Q 1991 1309 1228 531 
z
" transform="scale(0.015625)"/>
      <path id="DejaVuSans-30" d="M 2034 4250 
Q 1547 4250 1301 3770 
Q 1056 3291 1056 2328 
Q 1056 1369 1301 889 
Q 1547 409 2034 409 
Q 2525 409 2770 889 
Q 3016 1369 3016 2328 
Q 3016 3291 2770 3770 
Q 2525 4250 2034 4250 
z
M 2034 4750 
Q 2819 4750 3233 4129 
Q 3647 3509 3647 2328 
Q 3647 1150 3233 529 
Q 2819 -91 2034 -91 
Q 1250 -91 836 529 
Q 422 1150 422 2328 
Q 422 3509 836 4129 
Q 1250 4750 2034 4750 
z
" transform="scale(0.015625)"/>
     </defs>
     <use xlink:href="#DejaVuSans-4d"/>
     <use xlink:href="#DejaVuSans-61" x="86.279297"/>
     <use xlink:href="#DejaVuSans-6e" x="147.558594"/>
     <use xlink:href="#DejaVuSans-61" x="210.9375"/>
     <use xlink:href="#DejaVuSans-6b" x="272.216797"/>
     <use xlink:href="#DejaVuSans-6f" x="326.501953"/>
     <use xlink:href="#DejaVuSans-76" x="387.683594"/>
     <use xlink:href="#DejaVuSans-32" x="446.863281"/>
     <use xlink:href="#DejaVuSans-30" x="510.486328"/>
     <use xlink:href="#DejaVuSans-32" x="574.109375"/>
     <use xlink:href="#DejaVuSans-32" x="637.732422"/>
    </g>
   </g>
   <g id="text_7">
    <!-- Hejret2023 -->
    <g transform="translate(651.33064 228.98778) scale(0.2 -0.2)">
     <defs>
      <path id="DejaVuSans-48" d="M 628 4666 
L 1259 4666 
L 1259 2753 
L 3553 2753 
L 3553 4666 
L 4184 4666 
L 4184 0 
L 3553 0 
L 3553 2222 
L 1259 2222 
L 1259 0 
L 628 0 
L 628 4666 
z
" transform="scale(0.015625)"/>
      <path id="DejaVuSans-65" d="M 3597 1894 
L 3597 1613 
L 953 1613 
Q 991 1019 1311 708 
Q 1631 397 2203 397 
Q 2534 397 2845 478 
Q 3156 559 3463 722 
L 3463 178 
Q 3153 47 2828 -22 
Q 2503 -91 2169 -91 
Q 1331 -91 842 396 
Q 353 884 353 1716 
Q 353 2575 817 3079 
Q 1281 3584 2069 3584 
Q 2775 3584 3186 3129 
Q 3597 2675 3597 1894 
z
M 3022 2063 
Q 3016 2534 2758 2815 
Q 2500 3097 2075 3097 
Q 1594 3097 1305 2825 
Q 1016 2553 972 2059 
L 3022 2063 
z
" transform="scale(0.015625)"/>
      <path id="DejaVuSans-6a" d="M 603 3500 
L 1178 3500 
L 1178 -63 
Q 1178 -731 923 -1031 
Q 669 -1331 103 -1331 
L -116 -1331 
L -116 -844 
L 38 -844 
Q 366 -844 484 -692 
Q 603 -541 603 -63 
L 603 3500 
z
M 603 4863 
L 1178 4863 
L 1178 4134 
L 603 4134 
L 603 4863 
z
" transform="scale(0.015625)"/>
      <path id="DejaVuSans-72" d="M 2631 2963 
Q 2534 3019 2420 3045 
Q 2306 3072 2169 3072 
Q 1681 3072 1420 2755 
Q 1159 2438 1159 1844 
L 1159 0 
L 581 0 
L 581 3500 
L 1159 3500 
L 1159 2956 
Q 1341 3275 1631 3429 
Q 1922 3584 2338 3584 
Q 2397 3584 2469 3576 
Q 2541 3569 2628 3553 
L 2631 2963 
z
" transform="scale(0.015625)"/>
      <path id="DejaVuSans-74" d="M 1172 4494 
L 1172 3500 
L 2356 3500 
L 2356 3053 
L 1172 3053 
L 1172 1153 
Q 1172 725 1289 603 
Q 1406 481 1766 481 
L 2356 481 
L 2356 0 
L 1766 0 
Q 1100 0 847 248 
Q 594 497 594 1153 
L 594 3053 
L 172 3053 
L 172 3500 
L 594 3500 
L 594 4494 
L 1172 4494 
z
" transform="scale(0.015625)"/>
      <path id="DejaVuSans-33" d="M 2597 2516 
Q 3050 2419 3304 2112 
Q 3559 1806 3559 1356 
Q 3559 666 3084 287 
Q 2609 -91 1734 -91 
Q 1441 -91 1130 -33 
Q 819 25 488 141 
L 488 750 
Q 750 597 1062 519 
Q 1375 441 1716 441 
Q 2309 441 2620 675 
Q 2931 909 2931 1356 
Q 2931 1769 2642 2001 
Q 2353 2234 1838 2234 
L 1294 2234 
L 1294 2753 
L 1863 2753 
Q 2328 2753 2575 2939 
Q 2822 3125 2822 3475 
Q 2822 3834 2567 4026 
Q 2313 4219 1838 4219 
Q 1578 4219 1281 4162 
Q 984 4106 628 3988 
L 628 4550 
Q 988 4650 1302 4700 
Q 1616 4750 1894 4750 
Q 2613 4750 3031 4423 
Q 3450 4097 3450 3541 
Q 3450 3153 3228 2886 
Q 3006 2619 2597 2516 
z
" transform="scale(0.015625)"/>
     </defs>
     <use xlink:href="#DejaVuSans-48"/>
     <use xlink:href="#DejaVuSans-65" x="75.195312"/>
     <use xlink:href="#DejaVuSans-6a" x="136.71875"/>
     <use xlink:href="#DejaVuSans-72" x="164.501953"/>
     <use xlink:href="#DejaVuSans-65" x="203.365234"/>
     <use xlink:href="#DejaVuSans-74" x="264.888672"/>
     <use xlink:href="#DejaVuSans-32" x="304.097656"/>
     <use xlink:href="#DejaVuSans-30" x="367.720703"/>
     <use xlink:href="#DejaVuSans-32" x="431.34375"/>
     <use xlink:href="#DejaVuSans-33" x="494.966797"/>
    </g>
   </g>
   <g id="text_8">
    <!-- Klimentova2022 -->
    <g transform="translate(622.486826 562.40927) scale(0.2 -0.2)">
     <defs>
      <path id="DejaVuSans-4b" d="M 628 4666 
L 1259 4666 
L 1259 2694 
L 3353 4666 
L 4166 4666 
L 1850 2491 
L 4331 0 
L 3500 0 
L 1259 2247 
L 1259 0 
L 628 0 
L 628 4666 
z
" transform="scale(0.015625)"/>
      <path id="DejaVuSans-6c" d="M 603 4863 
L 1178 4863 
L 1178 0 
L 603 0 
L 603 4863 
z
" transform="scale(0.015625)"/>
      <path id="DejaVuSans-69" d="M 603 3500 
L 1178 3500 
L 1178 0 
L 603 0 
L 603 3500 
z
M 603 4863 
L 1178 4863 
L 1178 4134 
L 603 4134 
L 603 4863 
z
" transform="scale(0.015625)"/>
      <path id="DejaVuSans-6d" d="M 3328 2828 
Q 3544 3216 3844 3400 
Q 4144 3584 4550 3584 
Q 5097 3584 5394 3201 
Q 5691 2819 5691 2113 
L 5691 0 
L 5113 0 
L 5113 2094 
Q 5113 2597 4934 2840 
Q 4756 3084 4391 3084 
Q 3944 3084 3684 2787 
Q 3425 2491 3425 1978 
L 3425 0 
L 2847 0 
L 2847 2094 
Q 2847 2600 2669 2842 
Q 2491 3084 2119 3084 
Q 1678 3084 1418 2786 
Q 1159 2488 1159 1978 
L 1159 0 
L 581 0 
L 581 3500 
L 1159 3500 
L 1159 2956 
Q 1356 3278 1631 3431 
Q 1906 3584 2284 3584 
Q 2666 3584 2933 3390 
Q 3200 3197 3328 2828 
z
" transform="scale(0.015625)"/>
     </defs>
     <use xlink:href="#DejaVuSans-4b"/>
     <use xlink:href="#DejaVuSans-6c" x="65.576172"/>
     <use xlink:href="#DejaVuSans-69" x="93.359375"/>
     <use xlink:href="#DejaVuSans-6d" x="121.142578"/>
     <use xlink:href="#DejaVuSans-65" x="218.554688"/>
     <use xlink:href="#DejaVuSans-6e" x="280.078125"/>
     <use xlink:href="#DejaVuSans-74" x="343.457031"/>
     <use xlink:href="#DejaVuSans-6f" x="382.666016"/>
     <use xlink:href="#DejaVuSans-76" x="443.847656"/>
     <use xlink:href="#DejaVuSans-61" x="503.027344"/>
     <use xlink:href="#DejaVuSans-32" x="564.306641"/>
     <use xlink:href="#DejaVuSans-30" x="627.929688"/>
     <use xlink:href="#DejaVuSans-32" x="691.552734"/>
     <use xlink:href="#DejaVuSans-32" x="755.175781"/>
    </g>
   </g>
  </g>
 </g>
 <defs>
  <clipPath id="p4cb6191743">
   <rect x="18.175565" y="7.2" width="731.830437" height="698.4"/>
  </clipPath>
 </defs>
</svg>
