<?xml version="1.0" encoding="utf-8" standalone="no"?>
<!DOCTYPE svg PUBLIC "-//W3C//DTD SVG 1.1//EN"
  "http://www.w3.org/Graphics/SVG/1.1/DTD/svg11.dtd">
<svg xmlns:xlink="http://www.w3.org/1999/xlink" width="782.654912pt" height="712.8pt" viewBox="0 0 782.654912 712.8" xmlns="http://www.w3.org/2000/svg" version="1.1">
 <metadata>
  <rdf:RDF xmlns:dc="http://purl.org/dc/elements/1.1/" xmlns:cc="http://creativecommons.org/ns#" xmlns:rdf="http://www.w3.org/1999/02/22-rdf-syntax-ns#">
   <cc:Work>
    <dc:type rdf:resource="http://purl.org/dc/dcmitype/StillImage"/>
    <dc:date>2025-01-09T14:04:31.405953</dc:date>
    <dc:format>image/svg+xml</dc:format>
    <dc:creator>
     <cc:Agent>
      <dc:title>Matplotlib v3.10.0, https://matplotlib.org/</dc:title>
     </cc:Agent>
    </dc:creator>
   </cc:Work>
  </rdf:RDF>
 </metadata>
 <defs>
  <style type="text/css">*{stroke-linejoin: round; stroke-linecap: butt}</style>
 </defs>
 <g id="figure_1">
  <g id="patch_1">
   <path d="M 0 712.8 
L 782.654912 712.8 
L 782.654912 0 
L 0 0 
z
" style="fill: #ffffff"/>
  </g>
  <g id="axes_1">
   <g id="patch_2">
    <path d="M 629.122523 235.964509 
C 615.817063 206.070125 597.649106 178.586275 575.358164 154.631665 
C 553.067223 130.677054 526.959901 110.581173 498.098877 95.162006 
C 469.237853 79.74284 438.0201 69.212474 405.716312 63.999539 
C 373.412523 58.786604 340.467028 58.962803 308.220846 64.520962 
C 275.974663 70.079121 244.871329 80.942791 216.17688 96.669774 
C 187.48243 112.396757 161.591549 132.770734 139.558102 156.962398 
C 117.524655 181.154063 99.651706 208.830667 86.666758 238.865656 
C 73.681811 268.900645 65.763469 300.880897 63.234043 333.504684 
C 60.704617 366.12847 63.598897 398.94706 71.799075 430.624599 
C 79.999252 462.302139 93.392536 492.402913 111.433764 519.701696 
C 129.474992 547.000478 151.916013 571.121782 177.843382 591.083769 
C 203.770752 611.045756 232.827847 626.573856 263.831924 637.03601 
C 294.836 647.498164 327.360606 652.750469 360.081854 652.579133 
C 392.803102 652.407797 425.270922 646.815177 456.163737 636.028917 
C 487.056551 625.242656 515.949441 609.411117 541.666343 589.178708 
C 567.383245 568.9463 589.570433 544.591312 607.324794 517.105096 
C 591.420926 530.834636 570.71935 537.739401 549.758002 536.305818 
C 528.796655 534.872234 509.227898 525.21331 495.341348 509.446352 
C 472.160179 504.363451 450.433949 494.079652 431.807746 479.373632 
C 413.181542 464.667613 398.137655 445.920159 387.815192 424.550806 
C 377.492729 403.181454 372.15897 379.743523 372.217783 356.011709 
C 372.276595 332.279895 377.726456 308.868688 388.154708 287.550761 
C 398.582959 266.232833 413.719581 247.560173 432.418444 232.946653 
C 451.117308 218.333133 472.894241 208.157144 496.100318 203.1892 
C 519.306395 198.221256 543.340737 198.589994 566.38349 204.267492 
C 589.426244 209.944991 610.880758 220.784242 629.122523 235.964509 
" clip-path="url(#p3956c62670)" style="fill: none; opacity: 0"/>
   </g>
   <g id="patch_3">
    <path d="M 629.122523 235.964509 
C 645.004325 271.647356 653.672161 310.121802 654.625873 349.16777 
C 655.579586 388.213738 648.800472 427.065482 634.679703 463.481153 
C 634.539512 465.130618 634.348006 466.775318 634.105465 468.412865 
C 633.862924 470.050412 633.569464 471.680012 633.225513 473.299297 
C 650.034681 458.298079 663.412202 439.846307 672.443181 419.205907 
C 681.47416 398.565507 685.947916 376.217991 685.558487 353.691717 
C 685.169057 331.165442 679.925528 308.985917 670.186506 288.670008 
C 660.447484 268.354099 646.440167 250.37575 629.122523 235.964509 
" clip-path="url(#p3956c62670)" style="fill: none; opacity: 0"/>
   </g>
   <g id="patch_4">
    <path d="M 629.122523 235.964509 
C 610.880758 220.784242 589.426244 209.944991 566.38349 204.267492 
C 543.340737 198.589994 519.306395 198.221256 496.100318 203.1892 
C 472.894241 208.157144 451.117308 218.333133 432.418444 232.946653 
C 413.719581 247.560173 398.582959 266.232833 388.154708 287.550761 
C 377.726456 308.868688 372.276595 332.279895 372.217783 356.011709 
C 372.15897 379.743523 377.492729 403.181454 387.815192 424.550806 
C 398.137655 445.920159 413.181542 464.667613 431.807746 479.373632 
C 450.433949 494.079652 472.160179 504.363451 495.341348 509.446352 
C 486.624094 499.548676 480.49628 487.64172 477.50853 474.795403 
C 474.520781 461.949086 474.765349 448.560065 478.220259 435.831432 
C 481.675168 423.102798 488.233742 411.427576 497.306649 401.854861 
C 506.379555 392.282146 517.686649 385.107515 530.211914 380.975657 
C 542.737179 376.843799 556.09387 375.882294 569.081802 378.177538 
C 582.069733 380.472783 594.287874 385.953907 604.638345 394.128396 
C 614.988816 402.302884 623.152024 412.918332 628.39445 425.020872 
C 633.636877 437.123412 635.796651 450.339352 634.679703 463.481153 
C 648.800472 427.065482 655.579586 388.213738 654.625873 349.16777 
C 653.672161 310.121802 645.004325 271.647356 629.122523 235.964509 
" clip-path="url(#p3956c62670)" style="fill: none; opacity: 0"/>
   </g>
   <g id="patch_5">
    <path d="M 607.324794 517.105096 
C 613.873554 511.451663 619.459144 504.770274 623.86234 497.323165 
C 628.265535 489.876055 631.427966 481.761944 633.225513 473.299297 
C 632.551933 473.900429 631.87317 474.495727 631.1893 475.085126 
C 630.50543 475.674524 629.816478 476.258001 629.122523 476.835491 
C 626.015767 483.815674 622.640083 490.673032 619.003047 497.392172 
C 615.36601 504.111313 611.470345 510.687208 607.324794 517.105096 
" clip-path="url(#p3956c62670)" style="fill: none; opacity: 0"/>
   </g>
   <g id="patch_6">
    <path d="M 607.324794 517.105096 
C 611.470345 510.687208 615.36601 504.111313 619.003047 497.392172 
C 622.640083 490.673032 626.015767 483.815674 629.122523 476.835491 
C 610.78 492.099606 589.190466 502.973513 566.00636 508.624933 
C 542.822253 514.276354 518.650557 514.557328 495.341348 509.446352 
C 509.227898 525.21331 528.796655 534.872234 549.758002 536.305818 
C 570.71935 537.739401 591.420926 530.834636 607.324794 517.105096 
" clip-path="url(#p3956c62670)" style="fill: none; opacity: 0"/>
   </g>
   <g id="patch_7">
    <path d="M 495.341348 509.446352 
C 518.650557 514.557328 542.822253 514.276354 566.00636 508.624933 
C 589.190466 502.973513 610.78 492.099606 629.122523 476.835491 
C 630.102901 474.632801 631.056346 472.418223 631.982647 470.192251 
C 632.908947 467.966279 633.808033 465.72908 634.679703 463.481153 
C 635.796651 450.339352 633.636877 437.123412 628.39445 425.020872 
C 623.152024 412.918332 614.988816 402.302884 604.638345 394.128396 
C 594.287874 385.953907 582.069733 380.472783 569.081802 378.177538 
C 556.09387 375.882294 542.737179 376.843799 530.211914 380.975657 
C 517.686649 385.107515 506.379555 392.282146 497.306649 401.854861 
C 488.233742 411.427576 481.675168 423.102798 478.220259 435.831432 
C 474.765349 448.560065 474.520781 461.949086 477.50853 474.795403 
C 480.49628 487.64172 486.624094 499.548676 495.341348 509.446352 
" clip-path="url(#p3956c62670)" style="fill: none; opacity: 0"/>
   </g>
   <g id="patch_8">
    <path d="M 358.530992 652.583193 
C 437.079693 652.583193 512.421817 621.375463 567.964136 565.833144 
C 623.506456 510.290825 654.714185 434.948701 654.714185 356.4 
C 654.714185 277.851299 623.506456 202.509175 567.964136 146.966856 
C 512.421817 91.424537 437.079693 60.216807 358.530992 60.216807 
C 279.982291 60.216807 204.640167 91.424537 149.097848 146.966856 
C 93.555529 202.509175 62.347799 277.851299 62.347799 356.4 
C 62.347799 434.948701 93.555529 510.290825 149.097848 565.833144 
C 204.640167 621.375463 279.982291 652.583193 358.530992 652.583193 
L 358.530992 652.583193 
z
" clip-path="url(#p3956c62670)" style="fill: none; stroke: #f0e442; stroke-width: 10; stroke-linejoin: miter"/>
   </g>
   <g id="patch_9">
    <path d="M 528.899598 513.082297 
C 570.452229 513.082297 610.308566 496.573261 639.690713 467.191114 
C 669.07286 437.808967 685.581895 397.952631 685.581895 356.4 
C 685.581895 314.847369 669.07286 274.991033 639.690713 245.608886 
C 610.308566 216.226739 570.452229 199.717703 528.899598 199.717703 
C 487.346968 199.717703 447.490631 216.226739 418.108484 245.608886 
C 388.726337 274.991033 372.217302 314.847369 372.217302 356.4 
C 372.217302 397.952631 388.726337 437.808967 418.108484 467.191114 
C 447.490631 496.573261 487.346968 513.082297 528.899598 513.082297 
L 528.899598 513.082297 
z
" clip-path="url(#p3956c62670)" style="fill: none; stroke: #0072b2; stroke-width: 10; stroke-linejoin: miter"/>
   </g>
   <g id="patch_10">
    <path d="M 555.200601 536.491715 
C 576.354699 536.491715 596.645227 528.087103 611.603433 513.128897 
C 626.561639 498.170691 634.966251 477.880163 634.966251 456.726066 
C 634.966251 435.571968 626.561639 415.28144 611.603433 400.323234 
C 596.645227 385.365028 576.354699 376.960416 555.200601 376.960416 
C 534.046504 376.960416 513.755975 385.365028 498.797769 400.323234 
C 483.839564 415.28144 475.434952 435.571968 475.434952 456.726066 
C 475.434952 477.880163 483.839564 498.170691 498.797769 513.128897 
C 513.755975 528.087103 534.046504 536.491715 555.200601 536.491715 
L 555.200601 536.491715 
z
" clip-path="url(#p3956c62670)" style="fill: none; stroke: #cc79a7; stroke-width: 10; stroke-linejoin: miter"/>
   </g>
   <g id="patch_11">
    <path d="M 43.818497 176.221738 
L 70.326901 176.221738 
L 70.326901 149.713334 
L 43.818497 149.713334 
z
" clip-path="url(#p3956c62670)" style="fill: #f0e442"/>
   </g>
   <g id="patch_12">
    <path d="M 695.925224 266.35031 
L 722.433628 266.35031 
L 722.433628 239.841906 
L 695.925224 239.841906 
z
" clip-path="url(#p3956c62670)" style="fill: #0072b2"/>
   </g>
   <g id="patch_13">
    <path d="M 680.020182 600.356194 
L 706.528586 600.356194 
L 706.528586 573.847791 
L 680.020182 573.847791 
z
" clip-path="url(#p3956c62670)" style="fill: #cc79a7"/>
   </g>
   <g id="text_1">
    <!-- 1137 -->
    <g transform="translate(216.259919 354.747157) scale(0.25 -0.25)">
     <defs>
      <path id="DejaVuSans-31" d="M 794 531 
L 1825 531 
L 1825 4091 
L 703 3866 
L 703 4441 
L 1819 4666 
L 2450 4666 
L 2450 531 
L 3481 531 
L 3481 0 
L 794 0 
L 794 531 
z
" transform="scale(0.015625)"/>
      <path id="DejaVuSans-33" d="M 2597 2516 
Q 3050 2419 3304 2112 
Q 3559 1806 3559 1356 
Q 3559 666 3084 287 
Q 2609 -91 1734 -91 
Q 1441 -91 1130 -33 
Q 819 25 488 141 
L 488 750 
Q 750 597 1062 519 
Q 1375 441 1716 441 
Q 2309 441 2620 675 
Q 2931 909 2931 1356 
Q 2931 1769 2642 2001 
Q 2353 2234 1838 2234 
L 1294 2234 
L 1294 2753 
L 1863 2753 
Q 2328 2753 2575 2939 
Q 2822 3125 2822 3475 
Q 2822 3834 2567 4026 
Q 2313 4219 1838 4219 
Q 1578 4219 1281 4162 
Q 984 4106 628 3988 
L 628 4550 
Q 988 4650 1302 4700 
Q 1616 4750 1894 4750 
Q 2613 4750 3031 4423 
Q 3450 4097 3450 3541 
Q 3450 3153 3228 2886 
Q 3006 2619 2597 2516 
z
" transform="scale(0.015625)"/>
      <path id="DejaVuSans-37" d="M 525 4666 
L 3525 4666 
L 3525 4397 
L 1831 0 
L 1172 0 
L 2766 4134 
L 525 4134 
L 525 4666 
z
" transform="scale(0.015625)"/>
     </defs>
     <use xlink:href="#DejaVuSans-31"/>
     <use xlink:href="#DejaVuSans-31" transform="translate(63.623047 0)"/>
     <use xlink:href="#DejaVuSans-33" transform="translate(127.246094 0)"/>
     <use xlink:href="#DejaVuSans-37" transform="translate(190.869141 0)"/>
    </g>
   </g>
   <g id="text_2">
    <!-- 30 -->
    <g transform="translate(657.949737 364.661459) scale(0.25 -0.25)">
     <defs>
      <path id="DejaVuSans-30" d="M 2034 4250 
Q 1547 4250 1301 3770 
Q 1056 3291 1056 2328 
Q 1056 1369 1301 889 
Q 1547 409 2034 409 
Q 2525 409 2770 889 
Q 3016 1369 3016 2328 
Q 3016 3291 2770 3770 
Q 2525 4250 2034 4250 
z
M 2034 4750 
Q 2819 4750 3233 4129 
Q 3647 3509 3647 2328 
Q 3647 1150 3233 529 
Q 2819 -91 2034 -91 
Q 1250 -91 836 529 
Q 422 1150 422 2328 
Q 422 3509 836 4129 
Q 1250 4750 2034 4750 
z
" transform="scale(0.015625)"/>
     </defs>
     <use xlink:href="#DejaVuSans-33"/>
     <use xlink:href="#DejaVuSans-30" transform="translate(63.623047 0)"/>
    </g>
   </g>
   <g id="text_3">
    <!-- 309 -->
    <g transform="translate(456.561961 344.405342) scale(0.25 -0.25)">
     <defs>
      <path id="DejaVuSans-39" d="M 703 97 
L 703 672 
Q 941 559 1184 500 
Q 1428 441 1663 441 
Q 2288 441 2617 861 
Q 2947 1281 2994 2138 
Q 2813 1869 2534 1725 
Q 2256 1581 1919 1581 
Q 1219 1581 811 2004 
Q 403 2428 403 3163 
Q 403 3881 828 4315 
Q 1253 4750 1959 4750 
Q 2769 4750 3195 4129 
Q 3622 3509 3622 2328 
Q 3622 1225 3098 567 
Q 2575 -91 1691 -91 
Q 1453 -91 1209 -44 
Q 966 3 703 97 
z
M 1959 2075 
Q 2384 2075 2632 2365 
Q 2881 2656 2881 3163 
Q 2881 3666 2632 3958 
Q 2384 4250 1959 4250 
Q 1534 4250 1286 3958 
Q 1038 3666 1038 3163 
Q 1038 2656 1286 2365 
Q 1534 2075 1959 2075 
z
" transform="scale(0.015625)"/>
     </defs>
     <use xlink:href="#DejaVuSans-33"/>
     <use xlink:href="#DejaVuSans-30" transform="translate(63.623047 0)"/>
     <use xlink:href="#DejaVuSans-39" transform="translate(127.246094 0)"/>
    </g>
   </g>
   <g id="text_4">
    <!-- 15 -->
    <g transform="translate(543.564257 531.317527) scale(0.25 -0.25)">
     <defs>
      <path id="DejaVuSans-35" d="M 691 4666 
L 3169 4666 
L 3169 4134 
L 1269 4134 
L 1269 2991 
Q 1406 3038 1543 3061 
Q 1681 3084 1819 3084 
Q 2600 3084 3056 2656 
Q 3513 2228 3513 1497 
Q 3513 744 3044 326 
Q 2575 -91 1722 -91 
Q 1428 -91 1123 -41 
Q 819 9 494 109 
L 494 744 
Q 775 591 1075 516 
Q 1375 441 1709 441 
Q 2250 441 2565 725 
Q 2881 1009 2881 1497 
Q 2881 1984 2565 2268 
Q 2250 2553 1709 2553 
Q 1456 2553 1204 2497 
Q 953 2441 691 2322 
L 691 4666 
z
" transform="scale(0.015625)"/>
     </defs>
     <use xlink:href="#DejaVuSans-31"/>
     <use xlink:href="#DejaVuSans-35" transform="translate(63.623047 0)"/>
    </g>
   </g>
   <g id="text_5">
    <!-- 97 -->
    <g transform="translate(521.955676 412.431104) scale(0.25 -0.25)">
     <use xlink:href="#DejaVuSans-39"/>
     <use xlink:href="#DejaVuSans-37" transform="translate(63.623047 0)"/>
    </g>
   </g>
   <g id="text_6">
    <!-- Manakov22 -->
    <g transform="translate(7.2 139.109973) scale(0.23 -0.23)">
     <defs>
      <path id="DejaVuSans-4d" d="M 628 4666 
L 1569 4666 
L 2759 1491 
L 3956 4666 
L 4897 4666 
L 4897 0 
L 4281 0 
L 4281 4097 
L 3078 897 
L 2444 897 
L 1241 4097 
L 1241 0 
L 628 0 
L 628 4666 
z
" transform="scale(0.015625)"/>
      <path id="DejaVuSans-61" d="M 2194 1759 
Q 1497 1759 1228 1600 
Q 959 1441 959 1056 
Q 959 750 1161 570 
Q 1363 391 1709 391 
Q 2188 391 2477 730 
Q 2766 1069 2766 1631 
L 2766 1759 
L 2194 1759 
z
M 3341 1997 
L 3341 0 
L 2766 0 
L 2766 531 
Q 2569 213 2275 61 
Q 1981 -91 1556 -91 
Q 1019 -91 701 211 
Q 384 513 384 1019 
Q 384 1609 779 1909 
Q 1175 2209 1959 2209 
L 2766 2209 
L 2766 2266 
Q 2766 2663 2505 2880 
Q 2244 3097 1772 3097 
Q 1472 3097 1187 3025 
Q 903 2953 641 2809 
L 641 3341 
Q 956 3463 1253 3523 
Q 1550 3584 1831 3584 
Q 2591 3584 2966 3190 
Q 3341 2797 3341 1997 
z
" transform="scale(0.015625)"/>
      <path id="DejaVuSans-6e" d="M 3513 2113 
L 3513 0 
L 2938 0 
L 2938 2094 
Q 2938 2591 2744 2837 
Q 2550 3084 2163 3084 
Q 1697 3084 1428 2787 
Q 1159 2491 1159 1978 
L 1159 0 
L 581 0 
L 581 3500 
L 1159 3500 
L 1159 2956 
Q 1366 3272 1645 3428 
Q 1925 3584 2291 3584 
Q 2894 3584 3203 3211 
Q 3513 2838 3513 2113 
z
" transform="scale(0.015625)"/>
      <path id="DejaVuSans-6b" d="M 581 4863 
L 1159 4863 
L 1159 1991 
L 2875 3500 
L 3609 3500 
L 1753 1863 
L 3688 0 
L 2938 0 
L 1159 1709 
L 1159 0 
L 581 0 
L 581 4863 
z
" transform="scale(0.015625)"/>
      <path id="DejaVuSans-6f" d="M 1959 3097 
Q 1497 3097 1228 2736 
Q 959 2375 959 1747 
Q 959 1119 1226 758 
Q 1494 397 1959 397 
Q 2419 397 2687 759 
Q 2956 1122 2956 1747 
Q 2956 2369 2687 2733 
Q 2419 3097 1959 3097 
z
M 1959 3584 
Q 2709 3584 3137 3096 
Q 3566 2609 3566 1747 
Q 3566 888 3137 398 
Q 2709 -91 1959 -91 
Q 1206 -91 779 398 
Q 353 888 353 1747 
Q 353 2609 779 3096 
Q 1206 3584 1959 3584 
z
" transform="scale(0.015625)"/>
      <path id="DejaVuSans-76" d="M 191 3500 
L 800 3500 
L 1894 563 
L 2988 3500 
L 3597 3500 
L 2284 0 
L 1503 0 
L 191 3500 
z
" transform="scale(0.015625)"/>
      <path id="DejaVuSans-32" d="M 1228 531 
L 3431 531 
L 3431 0 
L 469 0 
L 469 531 
Q 828 903 1448 1529 
Q 2069 2156 2228 2338 
Q 2531 2678 2651 2914 
Q 2772 3150 2772 3378 
Q 2772 3750 2511 3984 
Q 2250 4219 1831 4219 
Q 1534 4219 1204 4116 
Q 875 4013 500 3803 
L 500 4441 
Q 881 4594 1212 4672 
Q 1544 4750 1819 4750 
Q 2544 4750 2975 4387 
Q 3406 4025 3406 3419 
Q 3406 3131 3298 2873 
Q 3191 2616 2906 2266 
Q 2828 2175 2409 1742 
Q 1991 1309 1228 531 
z
" transform="scale(0.015625)"/>
     </defs>
     <use xlink:href="#DejaVuSans-4d"/>
     <use xlink:href="#DejaVuSans-61" transform="translate(86.279297 0)"/>
     <use xlink:href="#DejaVuSans-6e" transform="translate(147.558594 0)"/>
     <use xlink:href="#DejaVuSans-61" transform="translate(210.9375 0)"/>
     <use xlink:href="#DejaVuSans-6b" transform="translate(272.216797 0)"/>
     <use xlink:href="#DejaVuSans-6f" transform="translate(326.501953 0)"/>
     <use xlink:href="#DejaVuSans-76" transform="translate(387.683594 0)"/>
     <use xlink:href="#DejaVuSans-32" transform="translate(446.863281 0)"/>
     <use xlink:href="#DejaVuSans-32" transform="translate(510.486328 0)"/>
    </g>
   </g>
   <g id="text_7">
    <!-- Hejret23 -->
    <g transform="translate(642.908417 229.238545) scale(0.23 -0.23)">
     <defs>
      <path id="DejaVuSans-48" d="M 628 4666 
L 1259 4666 
L 1259 2753 
L 3553 2753 
L 3553 4666 
L 4184 4666 
L 4184 0 
L 3553 0 
L 3553 2222 
L 1259 2222 
L 1259 0 
L 628 0 
L 628 4666 
z
" transform="scale(0.015625)"/>
      <path id="DejaVuSans-65" d="M 3597 1894 
L 3597 1613 
L 953 1613 
Q 991 1019 1311 708 
Q 1631 397 2203 397 
Q 2534 397 2845 478 
Q 3156 559 3463 722 
L 3463 178 
Q 3153 47 2828 -22 
Q 2503 -91 2169 -91 
Q 1331 -91 842 396 
Q 353 884 353 1716 
Q 353 2575 817 3079 
Q 1281 3584 2069 3584 
Q 2775 3584 3186 3129 
Q 3597 2675 3597 1894 
z
M 3022 2063 
Q 3016 2534 2758 2815 
Q 2500 3097 2075 3097 
Q 1594 3097 1305 2825 
Q 1016 2553 972 2059 
L 3022 2063 
z
" transform="scale(0.015625)"/>
      <path id="DejaVuSans-6a" d="M 603 3500 
L 1178 3500 
L 1178 -63 
Q 1178 -731 923 -1031 
Q 669 -1331 103 -1331 
L -116 -1331 
L -116 -844 
L 38 -844 
Q 366 -844 484 -692 
Q 603 -541 603 -63 
L 603 3500 
z
M 603 4863 
L 1178 4863 
L 1178 4134 
L 603 4134 
L 603 4863 
z
" transform="scale(0.015625)"/>
      <path id="DejaVuSans-72" d="M 2631 2963 
Q 2534 3019 2420 3045 
Q 2306 3072 2169 3072 
Q 1681 3072 1420 2755 
Q 1159 2438 1159 1844 
L 1159 0 
L 581 0 
L 581 3500 
L 1159 3500 
L 1159 2956 
Q 1341 3275 1631 3429 
Q 1922 3584 2338 3584 
Q 2397 3584 2469 3576 
Q 2541 3569 2628 3553 
L 2631 2963 
z
" transform="scale(0.015625)"/>
      <path id="DejaVuSans-74" d="M 1172 4494 
L 1172 3500 
L 2356 3500 
L 2356 3053 
L 1172 3053 
L 1172 1153 
Q 1172 725 1289 603 
Q 1406 481 1766 481 
L 2356 481 
L 2356 0 
L 1766 0 
Q 1100 0 847 248 
Q 594 497 594 1153 
L 594 3053 
L 172 3053 
L 172 3500 
L 594 3500 
L 594 4494 
L 1172 4494 
z
" transform="scale(0.015625)"/>
     </defs>
     <use xlink:href="#DejaVuSans-48"/>
     <use xlink:href="#DejaVuSans-65" transform="translate(75.195312 0)"/>
     <use xlink:href="#DejaVuSans-6a" transform="translate(136.71875 0)"/>
     <use xlink:href="#DejaVuSans-72" transform="translate(164.501953 0)"/>
     <use xlink:href="#DejaVuSans-65" transform="translate(203.365234 0)"/>
     <use xlink:href="#DejaVuSans-74" transform="translate(264.888672 0)"/>
     <use xlink:href="#DejaVuSans-32" transform="translate(304.097656 0)"/>
     <use xlink:href="#DejaVuSans-33" transform="translate(367.720703 0)"/>
    </g>
   </g>
   <g id="text_8">
    <!-- Klimentova22 -->
    <g transform="translate(616.395537 564.815794) scale(0.23 -0.23)">
     <defs>
      <path id="DejaVuSans-4b" d="M 628 4666 
L 1259 4666 
L 1259 2694 
L 3353 4666 
L 4166 4666 
L 1850 2491 
L 4331 0 
L 3500 0 
L 1259 2247 
L 1259 0 
L 628 0 
L 628 4666 
z
" transform="scale(0.015625)"/>
      <path id="DejaVuSans-6c" d="M 603 4863 
L 1178 4863 
L 1178 0 
L 603 0 
L 603 4863 
z
" transform="scale(0.015625)"/>
      <path id="DejaVuSans-69" d="M 603 3500 
L 1178 3500 
L 1178 0 
L 603 0 
L 603 3500 
z
M 603 4863 
L 1178 4863 
L 1178 4134 
L 603 4134 
L 603 4863 
z
" transform="scale(0.015625)"/>
      <path id="DejaVuSans-6d" d="M 3328 2828 
Q 3544 3216 3844 3400 
Q 4144 3584 4550 3584 
Q 5097 3584 5394 3201 
Q 5691 2819 5691 2113 
L 5691 0 
L 5113 0 
L 5113 2094 
Q 5113 2597 4934 2840 
Q 4756 3084 4391 3084 
Q 3944 3084 3684 2787 
Q 3425 2491 3425 1978 
L 3425 0 
L 2847 0 
L 2847 2094 
Q 2847 2600 2669 2842 
Q 2491 3084 2119 3084 
Q 1678 3084 1418 2786 
Q 1159 2488 1159 1978 
L 1159 0 
L 581 0 
L 581 3500 
L 1159 3500 
L 1159 2956 
Q 1356 3278 1631 3431 
Q 1906 3584 2284 3584 
Q 2666 3584 2933 3390 
Q 3200 3197 3328 2828 
z
" transform="scale(0.015625)"/>
     </defs>
     <use xlink:href="#DejaVuSans-4b"/>
     <use xlink:href="#DejaVuSans-6c" transform="translate(65.576172 0)"/>
     <use xlink:href="#DejaVuSans-69" transform="translate(93.359375 0)"/>
     <use xlink:href="#DejaVuSans-6d" transform="translate(121.142578 0)"/>
     <use xlink:href="#DejaVuSans-65" transform="translate(218.554688 0)"/>
     <use xlink:href="#DejaVuSans-6e" transform="translate(280.078125 0)"/>
     <use xlink:href="#DejaVuSans-74" transform="translate(343.457031 0)"/>
     <use xlink:href="#DejaVuSans-6f" transform="translate(382.666016 0)"/>
     <use xlink:href="#DejaVuSans-76" transform="translate(443.847656 0)"/>
     <use xlink:href="#DejaVuSans-61" transform="translate(503.027344 0)"/>
     <use xlink:href="#DejaVuSans-32" transform="translate(564.306641 0)"/>
     <use xlink:href="#DejaVuSans-32" transform="translate(627.929688 0)"/>
    </g>
   </g>
   <g id="patch_14">
    <path d="M 693.925191 496.419192 
Q 659.594815 496.419192 625.264438 496.419192 
" style="fill: none; stroke: #000000; stroke-width: 2.5; stroke-linecap: round"/>
   </g>
   <g id="text_9">
    <!-- 1 -->
    <g transform="translate(695.925224 501.937942) scale(0.2 -0.2)">
     <use xlink:href="#DejaVuSans-31"/>
    </g>
   </g>
  </g>
 </g>
 <defs>
  <clipPath id="p3956c62670">
   <rect x="9.330992" y="7.2" width="729.26771" height="698.4"/>
  </clipPath>
 </defs>
</svg>
