<?xml version="1.0" encoding="utf-8" standalone="no"?>
<!DOCTYPE svg PUBLIC "-//W3C//DTD SVG 1.1//EN"
  "http://www.w3.org/Graphics/SVG/1.1/DTD/svg11.dtd">
<svg xmlns:xlink="http://www.w3.org/1999/xlink" width="1672.794476pt" height="715.458312pt" viewBox="0 0 1672.794476 715.458312" xmlns="http://www.w3.org/2000/svg" version="1.1">
 <metadata>
  <rdf:RDF xmlns:dc="http://purl.org/dc/elements/1.1/" xmlns:cc="http://creativecommons.org/ns#" xmlns:rdf="http://www.w3.org/1999/02/22-rdf-syntax-ns#">
   <cc:Work>
    <dc:type rdf:resource="http://purl.org/dc/dcmitype/StillImage"/>
    <dc:date>2025-01-09T14:36:49.087007</dc:date>
    <dc:format>image/svg+xml</dc:format>
    <dc:creator>
     <cc:Agent>
      <dc:title>Matplotlib v3.10.0, https://matplotlib.org/</dc:title>
     </cc:Agent>
    </dc:creator>
   </cc:Work>
  </rdf:RDF>
 </metadata>
 <defs>
  <style type="text/css">*{stroke-linejoin: round; stroke-linecap: butt}</style>
 </defs>
 <g id="figure_1">
  <g id="patch_1">
   <path d="M -0 715.458312 
L 1672.794476 715.458312 
L 1672.794476 0 
L -0 0 
z
" style="fill: #ffffff"/>
  </g>
  <g id="axes_1">
   <g id="patch_2">
    <path d="M 68.794952 628.19137 
L 1665.594476 628.19137 
L 1665.594476 16.746755 
L 68.794952 16.746755 
z
" style="fill: #ffffff"/>
   </g>
   <g id="patch_3">
    <path d="M 170.561074 628.19137 
L 258.114051 628.19137 
L 258.114051 129.945208 
L 170.561074 129.945208 
z
" clip-path="url(#pcb759dd3c2)" style="fill: #e9e9e9; stroke-dasharray: 0.897436,1.480769; stroke-dashoffset: 0"/>
   </g>
   <g id="patch_4">
    <path d="M 318.883144 628.19137 
L 406.43612 628.19137 
L 406.43612 213.021509 
L 318.883144 213.021509 
z
" clip-path="url(#pcb759dd3c2)" style="fill: #e9e9e9; stroke-dasharray: 0.897436,1.480769; stroke-dashoffset: 0"/>
   </g>
   <g id="patch_5">
    <path d="M 467.205214 628.19137 
L 554.75819 628.19137 
L 554.75819 272.495181 
L 467.205214 272.495181 
z
" clip-path="url(#pcb759dd3c2)" style="fill: #e9e9e9; stroke-dasharray: 0.897436,1.480769; stroke-dashoffset: 0"/>
   </g>
   <g id="patch_6">
    <path d="M 615.527284 628.19137 
L 703.08026 628.19137 
L 703.08026 44.969254 
L 615.527284 44.969254 
z
" clip-path="url(#pcb759dd3c2)" style="fill: #e9e9e9; stroke-dasharray: 0.897436,1.480769; stroke-dashoffset: 0"/>
   </g>
   <g id="patch_7">
    <path d="M 763.849354 628.19137 
L 851.40233 628.19137 
L 851.40233 322.047305 
L 763.849354 322.047305 
z
" clip-path="url(#pcb759dd3c2)" style="fill: #e9e9e9; stroke-dasharray: 0.897436,1.480769; stroke-dashoffset: 0"/>
   </g>
   <g id="patch_8">
    <path d="M 912.171424 628.19137 
L 999.7244 628.19137 
L 999.7244 160.492703 
L 912.171424 160.492703 
z
" clip-path="url(#pcb759dd3c2)" style="fill: #e9e9e9; stroke-dasharray: 0.897436,1.480769; stroke-dashoffset: 0"/>
   </g>
   <g id="patch_9">
    <path d="M 1060.493494 628.19137 
L 1148.04647 628.19137 
L 1148.04647 91.360394 
L 1060.493494 91.360394 
z
" clip-path="url(#pcb759dd3c2)" style="fill: #e9e9e9; stroke-dasharray: 0.897436,1.480769; stroke-dashoffset: 0"/>
   </g>
   <g id="patch_10">
    <path d="M 1208.815563 628.19137 
L 1296.36854 628.19137 
L 1296.36854 201.092623 
L 1208.815563 201.092623 
z
" clip-path="url(#pcb759dd3c2)" style="fill: #e9e9e9; stroke-dasharray: 0.897436,1.480769; stroke-dashoffset: 0"/>
   </g>
   <g id="patch_11">
    <path d="M 1357.137633 628.19137 
L 1444.69061 628.19137 
L 1444.69061 271.675728 
L 1357.137633 271.675728 
z
" clip-path="url(#pcb759dd3c2)" style="fill: #e9e9e9; stroke-dasharray: 0.897436,1.480769; stroke-dashoffset: 0"/>
   </g>
   <g id="patch_12">
    <path d="M 1505.459703 628.19137 
L 1593.01268 628.19137 
L 1593.01268 141.655383 
L 1505.459703 141.655383 
z
" clip-path="url(#pcb759dd3c2)" style="fill: #e9e9e9; stroke-dasharray: 0.897436,1.480769; stroke-dashoffset: 0"/>
   </g>
   <g id="patch_13">
    <path d="M 141.376748 628.19137 
L 170.561074 628.19137 
L 170.561074 299.975241 
L 141.376748 299.975241 
z
" clip-path="url(#pcb759dd3c2)" style="fill: #f0e442"/>
   </g>
   <g id="patch_14">
    <path d="M 289.698818 628.19137 
L 318.883144 628.19137 
L 318.883144 238.627457 
L 289.698818 238.627457 
z
" clip-path="url(#pcb759dd3c2)" style="fill: #f0e442"/>
   </g>
   <g id="patch_15">
    <path d="M 438.020888 628.19137 
L 467.205214 628.19137 
L 467.205214 251.469993 
L 438.020888 251.469993 
z
" clip-path="url(#pcb759dd3c2)" style="fill: #f0e442"/>
   </g>
   <g id="patch_16">
    <path d="M 586.342958 628.19137 
L 615.527284 628.19137 
L 615.527284 383.655542 
L 586.342958 383.655542 
z
" clip-path="url(#pcb759dd3c2)" style="fill: #f0e442"/>
   </g>
   <g id="patch_17">
    <path d="M 734.665028 628.19137 
L 763.849354 628.19137 
L 763.849354 248.549543 
L 734.665028 248.549543 
z
" clip-path="url(#pcb759dd3c2)" style="fill: #f0e442"/>
   </g>
   <g id="patch_18">
    <path d="M 882.987098 628.19137 
L 912.171424 628.19137 
L 912.171424 272.09818 
L 882.987098 272.09818 
z
" clip-path="url(#pcb759dd3c2)" style="fill: #f0e442"/>
   </g>
   <g id="patch_19">
    <path d="M 1031.309168 628.19137 
L 1060.493494 628.19137 
L 1060.493494 330.892717 
L 1031.309168 330.892717 
z
" clip-path="url(#pcb759dd3c2)" style="fill: #f0e442"/>
   </g>
   <g id="patch_20">
    <path d="M 1179.631238 628.19137 
L 1208.815563 628.19137 
L 1208.815563 250.167107 
L 1179.631238 250.167107 
z
" clip-path="url(#pcb759dd3c2)" style="fill: #f0e442"/>
   </g>
   <g id="patch_21">
    <path d="M 1327.953308 628.19137 
L 1357.137633 628.19137 
L 1357.137633 231.174005 
L 1327.953308 231.174005 
z
" clip-path="url(#pcb759dd3c2)" style="fill: #f0e442"/>
   </g>
   <g id="patch_22">
    <path d="M 1476.275378 628.19137 
L 1505.459703 628.19137 
L 1505.459703 319.588287 
L 1476.275378 319.588287 
z
" clip-path="url(#pcb759dd3c2)" style="fill: #f0e442"/>
   </g>
   <g id="patch_23">
    <path d="M 141.376748 628.19137 
L 170.561074 628.19137 
L 170.561074 299.975241 
L 141.376748 299.975241 
L 141.376748 628.19137 
z
" clip-path="url(#pcb759dd3c2)" style="fill: none"/>
   </g>
   <g id="patch_24">
    <path d="M 289.698818 628.19137 
L 318.883144 628.19137 
L 318.883144 238.627457 
L 289.698818 238.627457 
L 289.698818 628.19137 
z
" clip-path="url(#pcb759dd3c2)" style="fill: none"/>
   </g>
   <g id="patch_25">
    <path d="M 438.020888 628.19137 
L 467.205214 628.19137 
L 467.205214 251.469993 
L 438.020888 251.469993 
L 438.020888 628.19137 
z
" clip-path="url(#pcb759dd3c2)" style="fill: none"/>
   </g>
   <g id="patch_26">
    <path d="M 586.342958 628.19137 
L 615.527284 628.19137 
L 615.527284 383.655542 
L 586.342958 383.655542 
L 586.342958 628.19137 
z
" clip-path="url(#pcb759dd3c2)" style="fill: none"/>
   </g>
   <g id="patch_27">
    <path d="M 734.665028 628.19137 
L 763.849354 628.19137 
L 763.849354 248.549543 
L 734.665028 248.549543 
L 734.665028 628.19137 
z
" clip-path="url(#pcb759dd3c2)" style="fill: none"/>
   </g>
   <g id="patch_28">
    <path d="M 882.987098 628.19137 
L 912.171424 628.19137 
L 912.171424 272.09818 
L 882.987098 272.09818 
L 882.987098 628.19137 
z
" clip-path="url(#pcb759dd3c2)" style="fill: none"/>
   </g>
   <g id="patch_29">
    <path d="M 1031.309168 628.19137 
L 1060.493494 628.19137 
L 1060.493494 330.892717 
L 1031.309168 330.892717 
L 1031.309168 628.19137 
z
" clip-path="url(#pcb759dd3c2)" style="fill: none"/>
   </g>
   <g id="patch_30">
    <path d="M 1179.631238 628.19137 
L 1208.815563 628.19137 
L 1208.815563 250.167107 
L 1179.631238 250.167107 
L 1179.631238 628.19137 
z
" clip-path="url(#pcb759dd3c2)" style="fill: none"/>
   </g>
   <g id="patch_31">
    <path d="M 1327.953308 628.19137 
L 1357.137633 628.19137 
L 1357.137633 231.174005 
L 1327.953308 231.174005 
L 1327.953308 628.19137 
z
" clip-path="url(#pcb759dd3c2)" style="fill: none"/>
   </g>
   <g id="patch_32">
    <path d="M 1476.275378 628.19137 
L 1505.459703 628.19137 
L 1505.459703 319.588287 
L 1476.275378 319.588287 
L 1476.275378 628.19137 
z
" clip-path="url(#pcb759dd3c2)" style="fill: none"/>
   </g>
   <g id="patch_33">
    <path d="M 170.561074 628.19137 
L 199.7454 628.19137 
L 199.7454 451.264449 
L 170.561074 451.264449 
z
" clip-path="url(#pcb759dd3c2)" style="fill: #009e73"/>
   </g>
   <g id="patch_34">
    <path d="M 318.883144 628.19137 
L 348.067469 628.19137 
L 348.067469 476.025311 
L 318.883144 476.025311 
z
" clip-path="url(#pcb759dd3c2)" style="fill: #009e73"/>
   </g>
   <g id="patch_35">
    <path d="M 467.205214 628.19137 
L 496.389539 628.19137 
L 496.389539 493.380184 
L 467.205214 493.380184 
z
" clip-path="url(#pcb759dd3c2)" style="fill: #009e73"/>
   </g>
   <g id="patch_36">
    <path d="M 615.527284 628.19137 
L 644.711609 628.19137 
L 644.711609 443.612279 
L 615.527284 443.612279 
z
" clip-path="url(#pcb759dd3c2)" style="fill: #009e73"/>
   </g>
   <g id="patch_37">
    <path d="M 763.849354 628.19137 
L 793.033679 628.19137 
L 793.033679 471.1816 
L 763.849354 471.1816 
z
" clip-path="url(#pcb759dd3c2)" style="fill: #009e73"/>
   </g>
   <g id="patch_38">
    <path d="M 912.171424 628.19137 
L 941.355749 628.19137 
L 941.355749 472.407371 
L 912.171424 472.407371 
z
" clip-path="url(#pcb759dd3c2)" style="fill: #009e73"/>
   </g>
   <g id="patch_39">
    <path d="M 1060.493494 628.19137 
L 1089.677819 628.19137 
L 1089.677819 475.178504 
L 1060.493494 475.178504 
z
" clip-path="url(#pcb759dd3c2)" style="fill: #009e73"/>
   </g>
   <g id="patch_40">
    <path d="M 1208.815563 628.19137 
L 1237.999889 628.19137 
L 1237.999889 421.241091 
L 1208.815563 421.241091 
z
" clip-path="url(#pcb759dd3c2)" style="fill: #009e73"/>
   </g>
   <g id="patch_41">
    <path d="M 1357.137633 628.19137 
L 1386.321959 628.19137 
L 1386.321959 465.798012 
L 1357.137633 465.798012 
z
" clip-path="url(#pcb759dd3c2)" style="fill: #009e73"/>
   </g>
   <g id="patch_42">
    <path d="M 1505.459703 628.19137 
L 1534.644029 628.19137 
L 1534.644029 412.133202 
L 1505.459703 412.133202 
z
" clip-path="url(#pcb759dd3c2)" style="fill: #009e73"/>
   </g>
   <g id="patch_43">
    <path d="M 170.561074 628.19137 
L 199.7454 628.19137 
L 199.7454 451.264449 
L 170.561074 451.264449 
L 170.561074 628.19137 
z
" clip-path="url(#pcb759dd3c2)" style="fill: none"/>
   </g>
   <g id="patch_44">
    <path d="M 318.883144 628.19137 
L 348.067469 628.19137 
L 348.067469 476.025311 
L 318.883144 476.025311 
L 318.883144 628.19137 
z
" clip-path="url(#pcb759dd3c2)" style="fill: none"/>
   </g>
   <g id="patch_45">
    <path d="M 467.205214 628.19137 
L 496.389539 628.19137 
L 496.389539 493.380184 
L 467.205214 493.380184 
L 467.205214 628.19137 
z
" clip-path="url(#pcb759dd3c2)" style="fill: none"/>
   </g>
   <g id="patch_46">
    <path d="M 615.527284 628.19137 
L 644.711609 628.19137 
L 644.711609 443.612279 
L 615.527284 443.612279 
L 615.527284 628.19137 
z
" clip-path="url(#pcb759dd3c2)" style="fill: none"/>
   </g>
   <g id="patch_47">
    <path d="M 763.849354 628.19137 
L 793.033679 628.19137 
L 793.033679 471.1816 
L 763.849354 471.1816 
L 763.849354 628.19137 
z
" clip-path="url(#pcb759dd3c2)" style="fill: none"/>
   </g>
   <g id="patch_48">
    <path d="M 912.171424 628.19137 
L 941.355749 628.19137 
L 941.355749 472.407371 
L 912.171424 472.407371 
L 912.171424 628.19137 
z
" clip-path="url(#pcb759dd3c2)" style="fill: none"/>
   </g>
   <g id="patch_49">
    <path d="M 1060.493494 628.19137 
L 1089.677819 628.19137 
L 1089.677819 475.178504 
L 1060.493494 475.178504 
L 1060.493494 628.19137 
z
" clip-path="url(#pcb759dd3c2)" style="fill: none"/>
   </g>
   <g id="patch_50">
    <path d="M 1208.815563 628.19137 
L 1237.999889 628.19137 
L 1237.999889 421.241091 
L 1208.815563 421.241091 
L 1208.815563 628.19137 
z
" clip-path="url(#pcb759dd3c2)" style="fill: none"/>
   </g>
   <g id="patch_51">
    <path d="M 1357.137633 628.19137 
L 1386.321959 628.19137 
L 1386.321959 465.798012 
L 1357.137633 465.798012 
L 1357.137633 628.19137 
z
" clip-path="url(#pcb759dd3c2)" style="fill: none"/>
   </g>
   <g id="patch_52">
    <path d="M 1505.459703 628.19137 
L 1534.644029 628.19137 
L 1534.644029 412.133202 
L 1505.459703 412.133202 
L 1505.459703 628.19137 
z
" clip-path="url(#pcb759dd3c2)" style="fill: none"/>
   </g>
   <g id="patch_53">
    <path d="M 199.7454 628.19137 
L 228.929725 628.19137 
L 228.929725 362.194682 
L 199.7454 362.194682 
z
" clip-path="url(#pcb759dd3c2)" style="fill: #cc79a7"/>
   </g>
   <g id="patch_54">
    <path d="M 348.067469 628.19137 
L 377.251795 628.19137 
L 377.251795 425.43569 
L 348.067469 425.43569 
z
" clip-path="url(#pcb759dd3c2)" style="fill: #cc79a7"/>
   </g>
   <g id="patch_55">
    <path d="M 496.389539 628.19137 
L 525.573865 628.19137 
L 525.573865 444.383907 
L 496.389539 444.383907 
z
" clip-path="url(#pcb759dd3c2)" style="fill: #cc79a7"/>
   </g>
   <g id="patch_56">
    <path d="M 644.711609 628.19137 
L 673.895935 628.19137 
L 673.895935 313.303044 
L 644.711609 313.303044 
z
" clip-path="url(#pcb759dd3c2)" style="fill: #cc79a7"/>
   </g>
   <g id="patch_57">
    <path d="M 793.033679 628.19137 
L 822.218005 628.19137 
L 822.218005 505.06213 
L 793.033679 505.06213 
z
" clip-path="url(#pcb759dd3c2)" style="fill: #cc79a7"/>
   </g>
   <g id="patch_58">
    <path d="M 941.355749 628.19137 
L 970.540075 628.19137 
L 970.540075 378.546969 
L 941.355749 378.546969 
z
" clip-path="url(#pcb759dd3c2)" style="fill: #cc79a7"/>
   </g>
   <g id="patch_59">
    <path d="M 1089.677819 628.19137 
L 1118.862145 628.19137 
L 1118.862145 329.794608 
L 1089.677819 329.794608 
z
" clip-path="url(#pcb759dd3c2)" style="fill: #cc79a7"/>
   </g>
   <g id="patch_60">
    <path d="M 1237.999889 628.19137 
L 1267.184214 628.19137 
L 1267.184214 438.425535 
L 1237.999889 438.425535 
z
" clip-path="url(#pcb759dd3c2)" style="fill: #cc79a7"/>
   </g>
   <g id="patch_61">
    <path d="M 1386.321959 628.19137 
L 1415.506284 628.19137 
L 1415.506284 465.566132 
L 1386.321959 465.566132 
z
" clip-path="url(#pcb759dd3c2)" style="fill: #cc79a7"/>
   </g>
   <g id="patch_62">
    <path d="M 1534.644029 628.19137 
L 1563.828354 628.19137 
L 1563.828354 413.888675 
L 1534.644029 413.888675 
z
" clip-path="url(#pcb759dd3c2)" style="fill: #cc79a7"/>
   </g>
   <g id="patch_63">
    <path d="M 199.7454 628.19137 
L 228.929725 628.19137 
L 228.929725 362.194682 
L 199.7454 362.194682 
L 199.7454 628.19137 
z
" clip-path="url(#pcb759dd3c2)" style="fill: none"/>
   </g>
   <g id="patch_64">
    <path d="M 348.067469 628.19137 
L 377.251795 628.19137 
L 377.251795 425.43569 
L 348.067469 425.43569 
L 348.067469 628.19137 
z
" clip-path="url(#pcb759dd3c2)" style="fill: none"/>
   </g>
   <g id="patch_65">
    <path d="M 496.389539 628.19137 
L 525.573865 628.19137 
L 525.573865 444.383907 
L 496.389539 444.383907 
L 496.389539 628.19137 
z
" clip-path="url(#pcb759dd3c2)" style="fill: none"/>
   </g>
   <g id="patch_66">
    <path d="M 644.711609 628.19137 
L 673.895935 628.19137 
L 673.895935 313.303044 
L 644.711609 313.303044 
L 644.711609 628.19137 
z
" clip-path="url(#pcb759dd3c2)" style="fill: none"/>
   </g>
   <g id="patch_67">
    <path d="M 793.033679 628.19137 
L 822.218005 628.19137 
L 822.218005 505.06213 
L 793.033679 505.06213 
L 793.033679 628.19137 
z
" clip-path="url(#pcb759dd3c2)" style="fill: none"/>
   </g>
   <g id="patch_68">
    <path d="M 941.355749 628.19137 
L 970.540075 628.19137 
L 970.540075 378.546969 
L 941.355749 378.546969 
L 941.355749 628.19137 
z
" clip-path="url(#pcb759dd3c2)" style="fill: none"/>
   </g>
   <g id="patch_69">
    <path d="M 1089.677819 628.19137 
L 1118.862145 628.19137 
L 1118.862145 329.794608 
L 1089.677819 329.794608 
L 1089.677819 628.19137 
z
" clip-path="url(#pcb759dd3c2)" style="fill: none"/>
   </g>
   <g id="patch_70">
    <path d="M 1237.999889 628.19137 
L 1267.184214 628.19137 
L 1267.184214 438.425535 
L 1237.999889 438.425535 
L 1237.999889 628.19137 
z
" clip-path="url(#pcb759dd3c2)" style="fill: none"/>
   </g>
   <g id="patch_71">
    <path d="M 1386.321959 628.19137 
L 1415.506284 628.19137 
L 1415.506284 465.566132 
L 1386.321959 465.566132 
L 1386.321959 628.19137 
z
" clip-path="url(#pcb759dd3c2)" style="fill: none"/>
   </g>
   <g id="patch_72">
    <path d="M 1534.644029 628.19137 
L 1563.828354 628.19137 
L 1563.828354 413.888675 
L 1534.644029 413.888675 
L 1534.644029 628.19137 
z
" clip-path="url(#pcb759dd3c2)" style="fill: none"/>
   </g>
   <g id="patch_73">
    <path d="M 228.929725 628.19137 
L 258.114051 628.19137 
L 258.114051 572.868818 
L 228.929725 572.868818 
z
" clip-path="url(#pcb759dd3c2)" style="fill: #0072b2"/>
   </g>
   <g id="patch_74">
    <path d="M 377.251795 628.19137 
L 406.43612 628.19137 
L 406.43612 567.943249 
L 377.251795 567.943249 
z
" clip-path="url(#pcb759dd3c2)" style="fill: #0072b2"/>
   </g>
   <g id="patch_75">
    <path d="M 525.573865 628.19137 
L 554.75819 628.19137 
L 554.75819 591.11383 
L 525.573865 591.11383 
z
" clip-path="url(#pcb759dd3c2)" style="fill: #0072b2"/>
   </g>
   <g id="patch_76">
    <path d="M 673.895935 628.19137 
L 703.08026 628.19137 
L 703.08026 544.436672 
L 673.895935 544.436672 
z
" clip-path="url(#pcb759dd3c2)" style="fill: #0072b2"/>
   </g>
   <g id="patch_77">
    <path d="M 822.218005 628.19137 
L 851.40233 628.19137 
L 851.40233 602.186315 
L 822.218005 602.186315 
z
" clip-path="url(#pcb759dd3c2)" style="fill: #0072b2"/>
   </g>
   <g id="patch_78">
    <path d="M 970.540075 628.19137 
L 999.7244 628.19137 
L 999.7244 565.921104 
L 970.540075 565.921104 
z
" clip-path="url(#pcb759dd3c2)" style="fill: #0072b2"/>
   </g>
   <g id="patch_79">
    <path d="M 1118.862145 628.19137 
L 1148.04647 628.19137 
L 1148.04647 542.770023 
L 1118.862145 542.770023 
z
" clip-path="url(#pcb759dd3c2)" style="fill: #0072b2"/>
   </g>
   <g id="patch_80">
    <path d="M 1267.184214 628.19137 
L 1296.36854 628.19137 
L 1296.36854 597.808738 
L 1267.184214 597.808738 
z
" clip-path="url(#pcb759dd3c2)" style="fill: #0072b2"/>
   </g>
   <g id="patch_81">
    <path d="M 1415.506284 628.19137 
L 1444.69061 628.19137 
L 1444.69061 596.694324 
L 1415.506284 596.694324 
z
" clip-path="url(#pcb759dd3c2)" style="fill: #0072b2"/>
   </g>
   <g id="patch_82">
    <path d="M 1563.828354 628.19137 
L 1593.01268 628.19137 
L 1593.01268 572.016247 
L 1563.828354 572.016247 
z
" clip-path="url(#pcb759dd3c2)" style="fill: #0072b2"/>
   </g>
   <g id="patch_83">
    <path d="M 228.929725 628.19137 
L 258.114051 628.19137 
L 258.114051 572.868818 
L 228.929725 572.868818 
L 228.929725 628.19137 
z
" clip-path="url(#pcb759dd3c2)" style="fill: none"/>
   </g>
   <g id="patch_84">
    <path d="M 377.251795 628.19137 
L 406.43612 628.19137 
L 406.43612 567.943249 
L 377.251795 567.943249 
L 377.251795 628.19137 
z
" clip-path="url(#pcb759dd3c2)" style="fill: none"/>
   </g>
   <g id="patch_85">
    <path d="M 525.573865 628.19137 
L 554.75819 628.19137 
L 554.75819 591.11383 
L 525.573865 591.11383 
L 525.573865 628.19137 
z
" clip-path="url(#pcb759dd3c2)" style="fill: none"/>
   </g>
   <g id="patch_86">
    <path d="M 673.895935 628.19137 
L 703.08026 628.19137 
L 703.08026 544.436672 
L 673.895935 544.436672 
L 673.895935 628.19137 
z
" clip-path="url(#pcb759dd3c2)" style="fill: none"/>
   </g>
   <g id="patch_87">
    <path d="M 822.218005 628.19137 
L 851.40233 628.19137 
L 851.40233 602.186315 
L 822.218005 602.186315 
L 822.218005 628.19137 
z
" clip-path="url(#pcb759dd3c2)" style="fill: none"/>
   </g>
   <g id="patch_88">
    <path d="M 970.540075 628.19137 
L 999.7244 628.19137 
L 999.7244 565.921104 
L 970.540075 565.921104 
L 970.540075 628.19137 
z
" clip-path="url(#pcb759dd3c2)" style="fill: none"/>
   </g>
   <g id="patch_89">
    <path d="M 1118.862145 628.19137 
L 1148.04647 628.19137 
L 1148.04647 542.770023 
L 1118.862145 542.770023 
L 1118.862145 628.19137 
z
" clip-path="url(#pcb759dd3c2)" style="fill: none"/>
   </g>
   <g id="patch_90">
    <path d="M 1267.184214 628.19137 
L 1296.36854 628.19137 
L 1296.36854 597.808738 
L 1267.184214 597.808738 
L 1267.184214 628.19137 
z
" clip-path="url(#pcb759dd3c2)" style="fill: none"/>
   </g>
   <g id="patch_91">
    <path d="M 1415.506284 628.19137 
L 1444.69061 628.19137 
L 1444.69061 596.694324 
L 1415.506284 596.694324 
L 1415.506284 628.19137 
z
" clip-path="url(#pcb759dd3c2)" style="fill: none"/>
   </g>
   <g id="patch_92">
    <path d="M 1563.828354 628.19137 
L 1593.01268 628.19137 
L 1593.01268 572.016247 
L 1563.828354 572.016247 
L 1563.828354 628.19137 
z
" clip-path="url(#pcb759dd3c2)" style="fill: none"/>
   </g>
   <g id="matplotlib.axis_1">
    <g id="xtick_1">
     <g id="line2d_1">
      <defs>
       <path id="m4674a1db31" d="M 0 0 
L 0 2.24359 
" style="stroke: #000000; stroke-width: 1.346154"/>
      </defs>
      <g>
       <use xlink:href="#m4674a1db31" x="214.337562" y="628.19137" style="stroke: #000000; stroke-width: 1.346154"/>
      </g>
     </g>
     <g id="text_1">
      <!-- mir-17 -->
      <g transform="translate(173.724101 664.52847) scale(0.251282 -0.251282)">
       <defs>
        <path id="DejaVuSans-6d" d="M 3328 2828 
Q 3544 3216 3844 3400 
Q 4144 3584 4550 3584 
Q 5097 3584 5394 3201 
Q 5691 2819 5691 2113 
L 5691 0 
L 5113 0 
L 5113 2094 
Q 5113 2597 4934 2840 
Q 4756 3084 4391 3084 
Q 3944 3084 3684 2787 
Q 3425 2491 3425 1978 
L 3425 0 
L 2847 0 
L 2847 2094 
Q 2847 2600 2669 2842 
Q 2491 3084 2119 3084 
Q 1678 3084 1418 2786 
Q 1159 2488 1159 1978 
L 1159 0 
L 581 0 
L 581 3500 
L 1159 3500 
L 1159 2956 
Q 1356 3278 1631 3431 
Q 1906 3584 2284 3584 
Q 2666 3584 2933 3390 
Q 3200 3197 3328 2828 
z
" transform="scale(0.015625)"/>
        <path id="DejaVuSans-69" d="M 603 3500 
L 1178 3500 
L 1178 0 
L 603 0 
L 603 3500 
z
M 603 4863 
L 1178 4863 
L 1178 4134 
L 603 4134 
L 603 4863 
z
" transform="scale(0.015625)"/>
        <path id="DejaVuSans-72" d="M 2631 2963 
Q 2534 3019 2420 3045 
Q 2306 3072 2169 3072 
Q 1681 3072 1420 2755 
Q 1159 2438 1159 1844 
L 1159 0 
L 581 0 
L 581 3500 
L 1159 3500 
L 1159 2956 
Q 1341 3275 1631 3429 
Q 1922 3584 2338 3584 
Q 2397 3584 2469 3576 
Q 2541 3569 2628 3553 
L 2631 2963 
z
" transform="scale(0.015625)"/>
        <path id="DejaVuSans-2d" d="M 313 2009 
L 1997 2009 
L 1997 1497 
L 313 1497 
L 313 2009 
z
" transform="scale(0.015625)"/>
        <path id="DejaVuSans-31" d="M 794 531 
L 1825 531 
L 1825 4091 
L 703 3866 
L 703 4441 
L 1819 4666 
L 2450 4666 
L 2450 531 
L 3481 531 
L 3481 0 
L 794 0 
L 794 531 
z
" transform="scale(0.015625)"/>
        <path id="DejaVuSans-37" d="M 525 4666 
L 3525 4666 
L 3525 4397 
L 1831 0 
L 1172 0 
L 2766 4134 
L 525 4134 
L 525 4666 
z
" transform="scale(0.015625)"/>
       </defs>
       <use xlink:href="#DejaVuSans-6d"/>
       <use xlink:href="#DejaVuSans-69" transform="translate(97.412109 0)"/>
       <use xlink:href="#DejaVuSans-72" transform="translate(125.195312 0)"/>
       <use xlink:href="#DejaVuSans-2d" transform="translate(159.933594 0)"/>
       <use xlink:href="#DejaVuSans-31" transform="translate(196.017578 0)"/>
       <use xlink:href="#DejaVuSans-37" transform="translate(259.640625 0)"/>
      </g>
     </g>
    </g>
    <g id="xtick_2">
     <g id="line2d_2">
      <g>
       <use xlink:href="#m4674a1db31" x="362.659632" y="628.19137" style="stroke: #000000; stroke-width: 1.346154"/>
      </g>
     </g>
     <g id="text_2">
      <!-- mir-19 -->
      <g transform="translate(322.046171 664.52847) scale(0.251282 -0.251282)">
       <defs>
        <path id="DejaVuSans-39" d="M 703 97 
L 703 672 
Q 941 559 1184 500 
Q 1428 441 1663 441 
Q 2288 441 2617 861 
Q 2947 1281 2994 2138 
Q 2813 1869 2534 1725 
Q 2256 1581 1919 1581 
Q 1219 1581 811 2004 
Q 403 2428 403 3163 
Q 403 3881 828 4315 
Q 1253 4750 1959 4750 
Q 2769 4750 3195 4129 
Q 3622 3509 3622 2328 
Q 3622 1225 3098 567 
Q 2575 -91 1691 -91 
Q 1453 -91 1209 -44 
Q 966 3 703 97 
z
M 1959 2075 
Q 2384 2075 2632 2365 
Q 2881 2656 2881 3163 
Q 2881 3666 2632 3958 
Q 2384 4250 1959 4250 
Q 1534 4250 1286 3958 
Q 1038 3666 1038 3163 
Q 1038 2656 1286 2365 
Q 1534 2075 1959 2075 
z
" transform="scale(0.015625)"/>
       </defs>
       <use xlink:href="#DejaVuSans-6d"/>
       <use xlink:href="#DejaVuSans-69" transform="translate(97.412109 0)"/>
       <use xlink:href="#DejaVuSans-72" transform="translate(125.195312 0)"/>
       <use xlink:href="#DejaVuSans-2d" transform="translate(159.933594 0)"/>
       <use xlink:href="#DejaVuSans-31" transform="translate(196.017578 0)"/>
       <use xlink:href="#DejaVuSans-39" transform="translate(259.640625 0)"/>
      </g>
     </g>
    </g>
    <g id="xtick_3">
     <g id="line2d_3">
      <g>
       <use xlink:href="#m4674a1db31" x="510.981702" y="628.19137" style="stroke: #000000; stroke-width: 1.346154"/>
      </g>
     </g>
     <g id="text_3">
      <!-- mir-25 -->
      <g transform="translate(470.368241 664.52847) scale(0.251282 -0.251282)">
       <defs>
        <path id="DejaVuSans-32" d="M 1228 531 
L 3431 531 
L 3431 0 
L 469 0 
L 469 531 
Q 828 903 1448 1529 
Q 2069 2156 2228 2338 
Q 2531 2678 2651 2914 
Q 2772 3150 2772 3378 
Q 2772 3750 2511 3984 
Q 2250 4219 1831 4219 
Q 1534 4219 1204 4116 
Q 875 4013 500 3803 
L 500 4441 
Q 881 4594 1212 4672 
Q 1544 4750 1819 4750 
Q 2544 4750 2975 4387 
Q 3406 4025 3406 3419 
Q 3406 3131 3298 2873 
Q 3191 2616 2906 2266 
Q 2828 2175 2409 1742 
Q 1991 1309 1228 531 
z
" transform="scale(0.015625)"/>
        <path id="DejaVuSans-35" d="M 691 4666 
L 3169 4666 
L 3169 4134 
L 1269 4134 
L 1269 2991 
Q 1406 3038 1543 3061 
Q 1681 3084 1819 3084 
Q 2600 3084 3056 2656 
Q 3513 2228 3513 1497 
Q 3513 744 3044 326 
Q 2575 -91 1722 -91 
Q 1428 -91 1123 -41 
Q 819 9 494 109 
L 494 744 
Q 775 591 1075 516 
Q 1375 441 1709 441 
Q 2250 441 2565 725 
Q 2881 1009 2881 1497 
Q 2881 1984 2565 2268 
Q 2250 2553 1709 2553 
Q 1456 2553 1204 2497 
Q 953 2441 691 2322 
L 691 4666 
z
" transform="scale(0.015625)"/>
       </defs>
       <use xlink:href="#DejaVuSans-6d"/>
       <use xlink:href="#DejaVuSans-69" transform="translate(97.412109 0)"/>
       <use xlink:href="#DejaVuSans-72" transform="translate(125.195312 0)"/>
       <use xlink:href="#DejaVuSans-2d" transform="translate(159.933594 0)"/>
       <use xlink:href="#DejaVuSans-32" transform="translate(196.017578 0)"/>
       <use xlink:href="#DejaVuSans-35" transform="translate(259.640625 0)"/>
      </g>
     </g>
    </g>
    <g id="xtick_4">
     <g id="line2d_4">
      <g>
       <use xlink:href="#m4674a1db31" x="659.303772" y="628.19137" style="stroke: #000000; stroke-width: 1.346154"/>
      </g>
     </g>
     <g id="text_4">
      <!-- mir-15 -->
      <g transform="translate(618.69031 664.52847) scale(0.251282 -0.251282)">
       <use xlink:href="#DejaVuSans-6d"/>
       <use xlink:href="#DejaVuSans-69" transform="translate(97.412109 0)"/>
       <use xlink:href="#DejaVuSans-72" transform="translate(125.195312 0)"/>
       <use xlink:href="#DejaVuSans-2d" transform="translate(159.933594 0)"/>
       <use xlink:href="#DejaVuSans-31" transform="translate(196.017578 0)"/>
       <use xlink:href="#DejaVuSans-35" transform="translate(259.640625 0)"/>
      </g>
     </g>
    </g>
    <g id="xtick_5">
     <g id="line2d_5">
      <g>
       <use xlink:href="#m4674a1db31" x="807.625842" y="628.19137" style="stroke: #000000; stroke-width: 1.346154"/>
      </g>
     </g>
     <g id="text_5">
      <!-- mir-221 -->
      <g transform="translate(759.01847 664.52847) scale(0.251282 -0.251282)">
       <use xlink:href="#DejaVuSans-6d"/>
       <use xlink:href="#DejaVuSans-69" transform="translate(97.412109 0)"/>
       <use xlink:href="#DejaVuSans-72" transform="translate(125.195312 0)"/>
       <use xlink:href="#DejaVuSans-2d" transform="translate(159.933594 0)"/>
       <use xlink:href="#DejaVuSans-32" transform="translate(196.017578 0)"/>
       <use xlink:href="#DejaVuSans-32" transform="translate(259.640625 0)"/>
       <use xlink:href="#DejaVuSans-31" transform="translate(323.263672 0)"/>
      </g>
     </g>
    </g>
    <g id="xtick_6">
     <g id="line2d_6">
      <g>
       <use xlink:href="#m4674a1db31" x="955.947912" y="628.19137" style="stroke: #000000; stroke-width: 1.346154"/>
      </g>
     </g>
     <g id="text_6">
      <!-- mir-30 -->
      <g transform="translate(915.33445 664.52847) scale(0.251282 -0.251282)">
       <defs>
        <path id="DejaVuSans-33" d="M 2597 2516 
Q 3050 2419 3304 2112 
Q 3559 1806 3559 1356 
Q 3559 666 3084 287 
Q 2609 -91 1734 -91 
Q 1441 -91 1130 -33 
Q 819 25 488 141 
L 488 750 
Q 750 597 1062 519 
Q 1375 441 1716 441 
Q 2309 441 2620 675 
Q 2931 909 2931 1356 
Q 2931 1769 2642 2001 
Q 2353 2234 1838 2234 
L 1294 2234 
L 1294 2753 
L 1863 2753 
Q 2328 2753 2575 2939 
Q 2822 3125 2822 3475 
Q 2822 3834 2567 4026 
Q 2313 4219 1838 4219 
Q 1578 4219 1281 4162 
Q 984 4106 628 3988 
L 628 4550 
Q 988 4650 1302 4700 
Q 1616 4750 1894 4750 
Q 2613 4750 3031 4423 
Q 3450 4097 3450 3541 
Q 3450 3153 3228 2886 
Q 3006 2619 2597 2516 
z
" transform="scale(0.015625)"/>
        <path id="DejaVuSans-30" d="M 2034 4250 
Q 1547 4250 1301 3770 
Q 1056 3291 1056 2328 
Q 1056 1369 1301 889 
Q 1547 409 2034 409 
Q 2525 409 2770 889 
Q 3016 1369 3016 2328 
Q 3016 3291 2770 3770 
Q 2525 4250 2034 4250 
z
M 2034 4750 
Q 2819 4750 3233 4129 
Q 3647 3509 3647 2328 
Q 3647 1150 3233 529 
Q 2819 -91 2034 -91 
Q 1250 -91 836 529 
Q 422 1150 422 2328 
Q 422 3509 836 4129 
Q 1250 4750 2034 4750 
z
" transform="scale(0.015625)"/>
       </defs>
       <use xlink:href="#DejaVuSans-6d"/>
       <use xlink:href="#DejaVuSans-69" transform="translate(97.412109 0)"/>
       <use xlink:href="#DejaVuSans-72" transform="translate(125.195312 0)"/>
       <use xlink:href="#DejaVuSans-2d" transform="translate(159.933594 0)"/>
       <use xlink:href="#DejaVuSans-33" transform="translate(196.017578 0)"/>
       <use xlink:href="#DejaVuSans-30" transform="translate(259.640625 0)"/>
      </g>
     </g>
    </g>
    <g id="xtick_7">
     <g id="line2d_7">
      <g>
       <use xlink:href="#m4674a1db31" x="1104.269982" y="628.19137" style="stroke: #000000; stroke-width: 1.346154"/>
      </g>
     </g>
     <g id="text_7">
      <!-- let-7 -->
      <g transform="translate(1075.596344 664.52847) scale(0.251282 -0.251282)">
       <defs>
        <path id="DejaVuSans-6c" d="M 603 4863 
L 1178 4863 
L 1178 0 
L 603 0 
L 603 4863 
z
" transform="scale(0.015625)"/>
        <path id="DejaVuSans-65" d="M 3597 1894 
L 3597 1613 
L 953 1613 
Q 991 1019 1311 708 
Q 1631 397 2203 397 
Q 2534 397 2845 478 
Q 3156 559 3463 722 
L 3463 178 
Q 3153 47 2828 -22 
Q 2503 -91 2169 -91 
Q 1331 -91 842 396 
Q 353 884 353 1716 
Q 353 2575 817 3079 
Q 1281 3584 2069 3584 
Q 2775 3584 3186 3129 
Q 3597 2675 3597 1894 
z
M 3022 2063 
Q 3016 2534 2758 2815 
Q 2500 3097 2075 3097 
Q 1594 3097 1305 2825 
Q 1016 2553 972 2059 
L 3022 2063 
z
" transform="scale(0.015625)"/>
        <path id="DejaVuSans-74" d="M 1172 4494 
L 1172 3500 
L 2356 3500 
L 2356 3053 
L 1172 3053 
L 1172 1153 
Q 1172 725 1289 603 
Q 1406 481 1766 481 
L 2356 481 
L 2356 0 
L 1766 0 
Q 1100 0 847 248 
Q 594 497 594 1153 
L 594 3053 
L 172 3053 
L 172 3500 
L 594 3500 
L 594 4494 
L 1172 4494 
z
" transform="scale(0.015625)"/>
       </defs>
       <use xlink:href="#DejaVuSans-6c"/>
       <use xlink:href="#DejaVuSans-65" transform="translate(27.783203 0)"/>
       <use xlink:href="#DejaVuSans-74" transform="translate(89.306641 0)"/>
       <use xlink:href="#DejaVuSans-2d" transform="translate(128.515625 0)"/>
       <use xlink:href="#DejaVuSans-37" transform="translate(164.599609 0)"/>
      </g>
     </g>
    </g>
    <g id="xtick_8">
     <g id="line2d_8">
      <g>
       <use xlink:href="#m4674a1db31" x="1252.592052" y="628.19137" style="stroke: #000000; stroke-width: 1.346154"/>
      </g>
     </g>
     <g id="text_8">
      <!-- mir-26 -->
      <g transform="translate(1211.97859 664.52847) scale(0.251282 -0.251282)">
       <defs>
        <path id="DejaVuSans-36" d="M 2113 2584 
Q 1688 2584 1439 2293 
Q 1191 2003 1191 1497 
Q 1191 994 1439 701 
Q 1688 409 2113 409 
Q 2538 409 2786 701 
Q 3034 994 3034 1497 
Q 3034 2003 2786 2293 
Q 2538 2584 2113 2584 
z
M 3366 4563 
L 3366 3988 
Q 3128 4100 2886 4159 
Q 2644 4219 2406 4219 
Q 1781 4219 1451 3797 
Q 1122 3375 1075 2522 
Q 1259 2794 1537 2939 
Q 1816 3084 2150 3084 
Q 2853 3084 3261 2657 
Q 3669 2231 3669 1497 
Q 3669 778 3244 343 
Q 2819 -91 2113 -91 
Q 1303 -91 875 529 
Q 447 1150 447 2328 
Q 447 3434 972 4092 
Q 1497 4750 2381 4750 
Q 2619 4750 2861 4703 
Q 3103 4656 3366 4563 
z
" transform="scale(0.015625)"/>
       </defs>
       <use xlink:href="#DejaVuSans-6d"/>
       <use xlink:href="#DejaVuSans-69" transform="translate(97.412109 0)"/>
       <use xlink:href="#DejaVuSans-72" transform="translate(125.195312 0)"/>
       <use xlink:href="#DejaVuSans-2d" transform="translate(159.933594 0)"/>
       <use xlink:href="#DejaVuSans-32" transform="translate(196.017578 0)"/>
       <use xlink:href="#DejaVuSans-36" transform="translate(259.640625 0)"/>
      </g>
     </g>
    </g>
    <g id="xtick_9">
     <g id="line2d_9">
      <g>
       <use xlink:href="#m4674a1db31" x="1400.914122" y="628.19137" style="stroke: #000000; stroke-width: 1.346154"/>
      </g>
     </g>
     <g id="text_9">
      <!-- mir-196 -->
      <g transform="translate(1352.30675 664.52847) scale(0.251282 -0.251282)">
       <use xlink:href="#DejaVuSans-6d"/>
       <use xlink:href="#DejaVuSans-69" transform="translate(97.412109 0)"/>
       <use xlink:href="#DejaVuSans-72" transform="translate(125.195312 0)"/>
       <use xlink:href="#DejaVuSans-2d" transform="translate(159.933594 0)"/>
       <use xlink:href="#DejaVuSans-31" transform="translate(196.017578 0)"/>
       <use xlink:href="#DejaVuSans-39" transform="translate(259.640625 0)"/>
       <use xlink:href="#DejaVuSans-36" transform="translate(323.263672 0)"/>
      </g>
     </g>
    </g>
    <g id="xtick_10">
     <g id="line2d_10">
      <g>
       <use xlink:href="#m4674a1db31" x="1549.236192" y="628.19137" style="stroke: #000000; stroke-width: 1.346154"/>
      </g>
     </g>
     <g id="text_10">
      <!-- mir-103 -->
      <g transform="translate(1500.62882 664.52847) scale(0.251282 -0.251282)">
       <use xlink:href="#DejaVuSans-6d"/>
       <use xlink:href="#DejaVuSans-69" transform="translate(97.412109 0)"/>
       <use xlink:href="#DejaVuSans-72" transform="translate(125.195312 0)"/>
       <use xlink:href="#DejaVuSans-2d" transform="translate(159.933594 0)"/>
       <use xlink:href="#DejaVuSans-31" transform="translate(196.017578 0)"/>
       <use xlink:href="#DejaVuSans-30" transform="translate(259.640625 0)"/>
       <use xlink:href="#DejaVuSans-33" transform="translate(323.263672 0)"/>
      </g>
     </g>
    </g>
   </g>
   <g id="matplotlib.axis_2">
    <g id="ytick_1">
     <g id="line2d_11">
      <path d="M 68.794952 628.19137 
L 1665.594476 628.19137 
" clip-path="url(#pcb759dd3c2)" style="fill: none; stroke-dasharray: 0.8,1.32; stroke-dashoffset: 0; stroke: #000000; stroke-opacity: 0.8; stroke-width: 0.8"/>
     </g>
     <g id="line2d_12">
      <defs>
       <path id="me269836878" d="M 0 0 
L -2.24359 0 
" style="stroke: #000000; stroke-width: 1.346154"/>
      </defs>
      <g>
       <use xlink:href="#me269836878" x="68.794952" y="628.19137" style="stroke: #000000; stroke-width: 1.346154"/>
      </g>
     </g>
     <g id="text_11">
      <!-- 0% -->
      <g transform="translate(23.187821 637.738125) scale(0.251282 -0.251282)">
       <defs>
        <path id="DejaVuSans-25" d="M 4653 2053 
Q 4381 2053 4226 1822 
Q 4072 1591 4072 1178 
Q 4072 772 4226 539 
Q 4381 306 4653 306 
Q 4919 306 5073 539 
Q 5228 772 5228 1178 
Q 5228 1588 5073 1820 
Q 4919 2053 4653 2053 
z
M 4653 2450 
Q 5147 2450 5437 2106 
Q 5728 1763 5728 1178 
Q 5728 594 5436 251 
Q 5144 -91 4653 -91 
Q 4153 -91 3862 251 
Q 3572 594 3572 1178 
Q 3572 1766 3864 2108 
Q 4156 2450 4653 2450 
z
M 1428 4353 
Q 1159 4353 1004 4120 
Q 850 3888 850 3481 
Q 850 3069 1003 2837 
Q 1156 2606 1428 2606 
Q 1700 2606 1854 2837 
Q 2009 3069 2009 3481 
Q 2009 3884 1853 4118 
Q 1697 4353 1428 4353 
z
M 4250 4750 
L 4750 4750 
L 1831 -91 
L 1331 -91 
L 4250 4750 
z
M 1428 4750 
Q 1922 4750 2215 4408 
Q 2509 4066 2509 3481 
Q 2509 2891 2217 2550 
Q 1925 2209 1428 2209 
Q 931 2209 642 2551 
Q 353 2894 353 3481 
Q 353 4063 643 4406 
Q 934 4750 1428 4750 
z
" transform="scale(0.015625)"/>
       </defs>
       <use xlink:href="#DejaVuSans-30"/>
       <use xlink:href="#DejaVuSans-25" transform="translate(63.623047 0)"/>
      </g>
     </g>
    </g>
    <g id="ytick_2">
     <g id="line2d_13">
      <path d="M 68.794952 526.283934 
L 1665.594476 526.283934 
" clip-path="url(#pcb759dd3c2)" style="fill: none; stroke-dasharray: 0.8,1.32; stroke-dashoffset: 0; stroke: #000000; stroke-opacity: 0.8; stroke-width: 0.8"/>
     </g>
     <g id="line2d_14">
      <g>
       <use xlink:href="#me269836878" x="68.794952" y="526.283934" style="stroke: #000000; stroke-width: 1.346154"/>
      </g>
     </g>
     <g id="text_12">
      <!-- 10% -->
      <g transform="translate(7.2 535.830689) scale(0.251282 -0.251282)">
       <use xlink:href="#DejaVuSans-31"/>
       <use xlink:href="#DejaVuSans-30" transform="translate(63.623047 0)"/>
       <use xlink:href="#DejaVuSans-25" transform="translate(127.246094 0)"/>
      </g>
     </g>
    </g>
    <g id="ytick_3">
     <g id="line2d_15">
      <path d="M 68.794952 424.376498 
L 1665.594476 424.376498 
" clip-path="url(#pcb759dd3c2)" style="fill: none; stroke-dasharray: 0.8,1.32; stroke-dashoffset: 0; stroke: #000000; stroke-opacity: 0.8; stroke-width: 0.8"/>
     </g>
     <g id="line2d_16">
      <g>
       <use xlink:href="#me269836878" x="68.794952" y="424.376498" style="stroke: #000000; stroke-width: 1.346154"/>
      </g>
     </g>
     <g id="text_13">
      <!-- 20% -->
      <g transform="translate(7.2 433.923253) scale(0.251282 -0.251282)">
       <use xlink:href="#DejaVuSans-32"/>
       <use xlink:href="#DejaVuSans-30" transform="translate(63.623047 0)"/>
       <use xlink:href="#DejaVuSans-25" transform="translate(127.246094 0)"/>
      </g>
     </g>
    </g>
    <g id="ytick_4">
     <g id="line2d_17">
      <path d="M 68.794952 322.469062 
L 1665.594476 322.469062 
" clip-path="url(#pcb759dd3c2)" style="fill: none; stroke-dasharray: 0.8,1.32; stroke-dashoffset: 0; stroke: #000000; stroke-opacity: 0.8; stroke-width: 0.8"/>
     </g>
     <g id="line2d_18">
      <g>
       <use xlink:href="#me269836878" x="68.794952" y="322.469062" style="stroke: #000000; stroke-width: 1.346154"/>
      </g>
     </g>
     <g id="text_14">
      <!-- 30% -->
      <g transform="translate(7.2 332.015817) scale(0.251282 -0.251282)">
       <use xlink:href="#DejaVuSans-33"/>
       <use xlink:href="#DejaVuSans-30" transform="translate(63.623047 0)"/>
       <use xlink:href="#DejaVuSans-25" transform="translate(127.246094 0)"/>
      </g>
     </g>
    </g>
    <g id="ytick_5">
     <g id="line2d_19">
      <path d="M 68.794952 220.561627 
L 1665.594476 220.561627 
" clip-path="url(#pcb759dd3c2)" style="fill: none; stroke-dasharray: 0.8,1.32; stroke-dashoffset: 0; stroke: #000000; stroke-opacity: 0.8; stroke-width: 0.8"/>
     </g>
     <g id="line2d_20">
      <g>
       <use xlink:href="#me269836878" x="68.794952" y="220.561627" style="stroke: #000000; stroke-width: 1.346154"/>
      </g>
     </g>
     <g id="text_15">
      <!-- 40% -->
      <g transform="translate(7.2 230.108381) scale(0.251282 -0.251282)">
       <defs>
        <path id="DejaVuSans-34" d="M 2419 4116 
L 825 1625 
L 2419 1625 
L 2419 4116 
z
M 2253 4666 
L 3047 4666 
L 3047 1625 
L 3713 1625 
L 3713 1100 
L 3047 1100 
L 3047 0 
L 2419 0 
L 2419 1100 
L 313 1100 
L 313 1709 
L 2253 4666 
z
" transform="scale(0.015625)"/>
       </defs>
       <use xlink:href="#DejaVuSans-34"/>
       <use xlink:href="#DejaVuSans-30" transform="translate(63.623047 0)"/>
       <use xlink:href="#DejaVuSans-25" transform="translate(127.246094 0)"/>
      </g>
     </g>
    </g>
    <g id="ytick_6">
     <g id="line2d_21">
      <path d="M 68.794952 118.654191 
L 1665.594476 118.654191 
" clip-path="url(#pcb759dd3c2)" style="fill: none; stroke-dasharray: 0.8,1.32; stroke-dashoffset: 0; stroke: #000000; stroke-opacity: 0.8; stroke-width: 0.8"/>
     </g>
     <g id="line2d_22">
      <g>
       <use xlink:href="#me269836878" x="68.794952" y="118.654191" style="stroke: #000000; stroke-width: 1.346154"/>
      </g>
     </g>
     <g id="text_16">
      <!-- 50% -->
      <g transform="translate(7.2 128.200946) scale(0.251282 -0.251282)">
       <use xlink:href="#DejaVuSans-35"/>
       <use xlink:href="#DejaVuSans-30" transform="translate(63.623047 0)"/>
       <use xlink:href="#DejaVuSans-25" transform="translate(127.246094 0)"/>
      </g>
     </g>
    </g>
    <g id="ytick_7">
     <g id="line2d_23">
      <path d="M 68.794952 16.746755 
L 1665.594476 16.746755 
" clip-path="url(#pcb759dd3c2)" style="fill: none; stroke-dasharray: 0.8,1.32; stroke-dashoffset: 0; stroke: #000000; stroke-opacity: 0.8; stroke-width: 0.8"/>
     </g>
     <g id="line2d_24">
      <g>
       <use xlink:href="#me269836878" x="68.794952" y="16.746755" style="stroke: #000000; stroke-width: 1.346154"/>
      </g>
     </g>
     <g id="text_17">
      <!-- 60% -->
      <g transform="translate(7.2 26.29351) scale(0.251282 -0.251282)">
       <use xlink:href="#DejaVuSans-36"/>
       <use xlink:href="#DejaVuSans-30" transform="translate(63.623047 0)"/>
       <use xlink:href="#DejaVuSans-25" transform="translate(127.246094 0)"/>
      </g>
     </g>
    </g>
   </g>
   <g id="patch_93">
    <path d="M 68.794952 628.19137 
L 68.794952 16.746755 
" style="fill: none; stroke: #000000; stroke-width: 0.897436; stroke-linejoin: miter; stroke-linecap: square"/>
   </g>
   <g id="patch_94">
    <path d="M 68.794952 628.19137 
L 1665.594476 628.19137 
" style="fill: none; stroke: #000000; stroke-width: 0.897436; stroke-linejoin: miter; stroke-linecap: square"/>
   </g>
   <g id="legend_1">
    <g id="patch_95">
     <path d="M 329.182455 708.258312 
L 1405.206974 708.258312 
Q 1409.514666 708.258312 1409.514666 703.95062 
L 1409.514666 673.840524 
Q 1409.514666 669.532832 1405.206974 669.532832 
L 329.182455 669.532832 
Q 324.874762 669.532832 324.874762 673.840524 
L 324.874762 703.95062 
Q 324.874762 708.258312 329.182455 708.258312 
z
" style="fill: #ffffff; opacity: 0.8"/>
    </g>
    <g id="patch_96">
     <path d="M 333.490147 697.425139 
L 356.374762 697.425139 
L 356.374762 674.540524 
L 333.490147 674.540524 
z
" style="fill: #f0e442"/>
    </g>
    <g id="text_18">
     <!-- SeedNonCanonical -->
     <g transform="translate(383.701685 695.163601) scale(0.215385 -0.215385)">
      <defs>
       <path id="DejaVuSans-53" d="M 3425 4513 
L 3425 3897 
Q 3066 4069 2747 4153 
Q 2428 4238 2131 4238 
Q 1616 4238 1336 4038 
Q 1056 3838 1056 3469 
Q 1056 3159 1242 3001 
Q 1428 2844 1947 2747 
L 2328 2669 
Q 3034 2534 3370 2195 
Q 3706 1856 3706 1288 
Q 3706 609 3251 259 
Q 2797 -91 1919 -91 
Q 1588 -91 1214 -16 
Q 841 59 441 206 
L 441 856 
Q 825 641 1194 531 
Q 1563 422 1919 422 
Q 2459 422 2753 634 
Q 3047 847 3047 1241 
Q 3047 1584 2836 1778 
Q 2625 1972 2144 2069 
L 1759 2144 
Q 1053 2284 737 2584 
Q 422 2884 422 3419 
Q 422 4038 858 4394 
Q 1294 4750 2059 4750 
Q 2388 4750 2728 4690 
Q 3069 4631 3425 4513 
z
" transform="scale(0.015625)"/>
       <path id="DejaVuSans-64" d="M 2906 2969 
L 2906 4863 
L 3481 4863 
L 3481 0 
L 2906 0 
L 2906 525 
Q 2725 213 2448 61 
Q 2172 -91 1784 -91 
Q 1150 -91 751 415 
Q 353 922 353 1747 
Q 353 2572 751 3078 
Q 1150 3584 1784 3584 
Q 2172 3584 2448 3432 
Q 2725 3281 2906 2969 
z
M 947 1747 
Q 947 1113 1208 752 
Q 1469 391 1925 391 
Q 2381 391 2643 752 
Q 2906 1113 2906 1747 
Q 2906 2381 2643 2742 
Q 2381 3103 1925 3103 
Q 1469 3103 1208 2742 
Q 947 2381 947 1747 
z
" transform="scale(0.015625)"/>
       <path id="DejaVuSans-4e" d="M 628 4666 
L 1478 4666 
L 3547 763 
L 3547 4666 
L 4159 4666 
L 4159 0 
L 3309 0 
L 1241 3903 
L 1241 0 
L 628 0 
L 628 4666 
z
" transform="scale(0.015625)"/>
       <path id="DejaVuSans-6f" d="M 1959 3097 
Q 1497 3097 1228 2736 
Q 959 2375 959 1747 
Q 959 1119 1226 758 
Q 1494 397 1959 397 
Q 2419 397 2687 759 
Q 2956 1122 2956 1747 
Q 2956 2369 2687 2733 
Q 2419 3097 1959 3097 
z
M 1959 3584 
Q 2709 3584 3137 3096 
Q 3566 2609 3566 1747 
Q 3566 888 3137 398 
Q 2709 -91 1959 -91 
Q 1206 -91 779 398 
Q 353 888 353 1747 
Q 353 2609 779 3096 
Q 1206 3584 1959 3584 
z
" transform="scale(0.015625)"/>
       <path id="DejaVuSans-6e" d="M 3513 2113 
L 3513 0 
L 2938 0 
L 2938 2094 
Q 2938 2591 2744 2837 
Q 2550 3084 2163 3084 
Q 1697 3084 1428 2787 
Q 1159 2491 1159 1978 
L 1159 0 
L 581 0 
L 581 3500 
L 1159 3500 
L 1159 2956 
Q 1366 3272 1645 3428 
Q 1925 3584 2291 3584 
Q 2894 3584 3203 3211 
Q 3513 2838 3513 2113 
z
" transform="scale(0.015625)"/>
       <path id="DejaVuSans-43" d="M 4122 4306 
L 4122 3641 
Q 3803 3938 3442 4084 
Q 3081 4231 2675 4231 
Q 1875 4231 1450 3742 
Q 1025 3253 1025 2328 
Q 1025 1406 1450 917 
Q 1875 428 2675 428 
Q 3081 428 3442 575 
Q 3803 722 4122 1019 
L 4122 359 
Q 3791 134 3420 21 
Q 3050 -91 2638 -91 
Q 1578 -91 968 557 
Q 359 1206 359 2328 
Q 359 3453 968 4101 
Q 1578 4750 2638 4750 
Q 3056 4750 3426 4639 
Q 3797 4528 4122 4306 
z
" transform="scale(0.015625)"/>
       <path id="DejaVuSans-61" d="M 2194 1759 
Q 1497 1759 1228 1600 
Q 959 1441 959 1056 
Q 959 750 1161 570 
Q 1363 391 1709 391 
Q 2188 391 2477 730 
Q 2766 1069 2766 1631 
L 2766 1759 
L 2194 1759 
z
M 3341 1997 
L 3341 0 
L 2766 0 
L 2766 531 
Q 2569 213 2275 61 
Q 1981 -91 1556 -91 
Q 1019 -91 701 211 
Q 384 513 384 1019 
Q 384 1609 779 1909 
Q 1175 2209 1959 2209 
L 2766 2209 
L 2766 2266 
Q 2766 2663 2505 2880 
Q 2244 3097 1772 3097 
Q 1472 3097 1187 3025 
Q 903 2953 641 2809 
L 641 3341 
Q 956 3463 1253 3523 
Q 1550 3584 1831 3584 
Q 2591 3584 2966 3190 
Q 3341 2797 3341 1997 
z
" transform="scale(0.015625)"/>
       <path id="DejaVuSans-63" d="M 3122 3366 
L 3122 2828 
Q 2878 2963 2633 3030 
Q 2388 3097 2138 3097 
Q 1578 3097 1268 2742 
Q 959 2388 959 1747 
Q 959 1106 1268 751 
Q 1578 397 2138 397 
Q 2388 397 2633 464 
Q 2878 531 3122 666 
L 3122 134 
Q 2881 22 2623 -34 
Q 2366 -91 2075 -91 
Q 1284 -91 818 406 
Q 353 903 353 1747 
Q 353 2603 823 3093 
Q 1294 3584 2113 3584 
Q 2378 3584 2631 3529 
Q 2884 3475 3122 3366 
z
" transform="scale(0.015625)"/>
      </defs>
      <use xlink:href="#DejaVuSans-53"/>
      <use xlink:href="#DejaVuSans-65" transform="translate(63.476562 0)"/>
      <use xlink:href="#DejaVuSans-65" transform="translate(125 0)"/>
      <use xlink:href="#DejaVuSans-64" transform="translate(186.523438 0)"/>
      <use xlink:href="#DejaVuSans-4e" transform="translate(250 0)"/>
      <use xlink:href="#DejaVuSans-6f" transform="translate(324.804688 0)"/>
      <use xlink:href="#DejaVuSans-6e" transform="translate(385.986328 0)"/>
      <use xlink:href="#DejaVuSans-43" transform="translate(449.365234 0)"/>
      <use xlink:href="#DejaVuSans-61" transform="translate(519.189453 0)"/>
      <use xlink:href="#DejaVuSans-6e" transform="translate(580.46875 0)"/>
      <use xlink:href="#DejaVuSans-6f" transform="translate(643.847656 0)"/>
      <use xlink:href="#DejaVuSans-6e" transform="translate(705.029297 0)"/>
      <use xlink:href="#DejaVuSans-69" transform="translate(768.408203 0)"/>
      <use xlink:href="#DejaVuSans-63" transform="translate(796.191406 0)"/>
      <use xlink:href="#DejaVuSans-61" transform="translate(851.171875 0)"/>
      <use xlink:href="#DejaVuSans-6c" transform="translate(912.451172 0)"/>
     </g>
    </g>
    <g id="patch_97">
     <path d="M 607.089185 697.425139 
L 629.973801 697.425139 
L 629.973801 674.540524 
L 607.089185 674.540524 
z
" style="fill: #009e73"/>
    </g>
    <g id="text_19">
     <!-- Seed6mer -->
     <g transform="translate(657.300724 695.163601) scale(0.215385 -0.215385)">
      <use xlink:href="#DejaVuSans-53"/>
      <use xlink:href="#DejaVuSans-65" transform="translate(63.476562 0)"/>
      <use xlink:href="#DejaVuSans-65" transform="translate(125 0)"/>
      <use xlink:href="#DejaVuSans-64" transform="translate(186.523438 0)"/>
      <use xlink:href="#DejaVuSans-36" transform="translate(250 0)"/>
      <use xlink:href="#DejaVuSans-6d" transform="translate(313.623047 0)"/>
      <use xlink:href="#DejaVuSans-65" transform="translate(411.035156 0)"/>
      <use xlink:href="#DejaVuSans-72" transform="translate(472.558594 0)"/>
     </g>
    </g>
    <g id="patch_98">
     <path d="M 788.809858 697.425139 
L 811.694474 697.425139 
L 811.694474 674.540524 
L 788.809858 674.540524 
z
" style="fill: #cc79a7"/>
    </g>
    <g id="text_20">
     <!-- Seed7mer -->
     <g transform="translate(839.021397 695.163601) scale(0.215385 -0.215385)">
      <use xlink:href="#DejaVuSans-53"/>
      <use xlink:href="#DejaVuSans-65" transform="translate(63.476562 0)"/>
      <use xlink:href="#DejaVuSans-65" transform="translate(125 0)"/>
      <use xlink:href="#DejaVuSans-64" transform="translate(186.523438 0)"/>
      <use xlink:href="#DejaVuSans-37" transform="translate(250 0)"/>
      <use xlink:href="#DejaVuSans-6d" transform="translate(313.623047 0)"/>
      <use xlink:href="#DejaVuSans-65" transform="translate(411.035156 0)"/>
      <use xlink:href="#DejaVuSans-72" transform="translate(472.558594 0)"/>
     </g>
    </g>
    <g id="patch_99">
     <path d="M 970.530531 697.425139 
L 993.415147 697.425139 
L 993.415147 674.540524 
L 970.530531 674.540524 
z
" style="fill: #0072b2"/>
    </g>
    <g id="text_21">
     <!-- Seed8mer -->
     <g transform="translate(1020.74207 695.163601) scale(0.215385 -0.215385)">
      <defs>
       <path id="DejaVuSans-38" d="M 2034 2216 
Q 1584 2216 1326 1975 
Q 1069 1734 1069 1313 
Q 1069 891 1326 650 
Q 1584 409 2034 409 
Q 2484 409 2743 651 
Q 3003 894 3003 1313 
Q 3003 1734 2745 1975 
Q 2488 2216 2034 2216 
z
M 1403 2484 
Q 997 2584 770 2862 
Q 544 3141 544 3541 
Q 544 4100 942 4425 
Q 1341 4750 2034 4750 
Q 2731 4750 3128 4425 
Q 3525 4100 3525 3541 
Q 3525 3141 3298 2862 
Q 3072 2584 2669 2484 
Q 3125 2378 3379 2068 
Q 3634 1759 3634 1313 
Q 3634 634 3220 271 
Q 2806 -91 2034 -91 
Q 1263 -91 848 271 
Q 434 634 434 1313 
Q 434 1759 690 2068 
Q 947 2378 1403 2484 
z
M 1172 3481 
Q 1172 3119 1398 2916 
Q 1625 2713 2034 2713 
Q 2441 2713 2670 2916 
Q 2900 3119 2900 3481 
Q 2900 3844 2670 4047 
Q 2441 4250 2034 4250 
Q 1625 4250 1398 4047 
Q 1172 3844 1172 3481 
z
" transform="scale(0.015625)"/>
      </defs>
      <use xlink:href="#DejaVuSans-53"/>
      <use xlink:href="#DejaVuSans-65" transform="translate(63.476562 0)"/>
      <use xlink:href="#DejaVuSans-65" transform="translate(125 0)"/>
      <use xlink:href="#DejaVuSans-64" transform="translate(186.523438 0)"/>
      <use xlink:href="#DejaVuSans-38" transform="translate(250 0)"/>
      <use xlink:href="#DejaVuSans-6d" transform="translate(313.623047 0)"/>
      <use xlink:href="#DejaVuSans-65" transform="translate(411.035156 0)"/>
      <use xlink:href="#DejaVuSans-72" transform="translate(472.558594 0)"/>
     </g>
    </g>
    <g id="patch_100">
     <path d="M 1152.251205 697.425139 
L 1175.13582 697.425139 
L 1175.13582 674.540524 
L 1152.251205 674.540524 
z
" style="fill: #e9e9e9"/>
    </g>
    <g id="text_22">
     <!-- TotalCanonicalSeed -->
     <g transform="translate(1202.462743 695.163601) scale(0.215385 -0.215385)">
      <defs>
       <path id="DejaVuSans-54" d="M -19 4666 
L 3928 4666 
L 3928 4134 
L 2272 4134 
L 2272 0 
L 1638 0 
L 1638 4134 
L -19 4134 
L -19 4666 
z
" transform="scale(0.015625)"/>
      </defs>
      <use xlink:href="#DejaVuSans-54"/>
      <use xlink:href="#DejaVuSans-6f" transform="translate(44.083984 0)"/>
      <use xlink:href="#DejaVuSans-74" transform="translate(105.265625 0)"/>
      <use xlink:href="#DejaVuSans-61" transform="translate(144.474609 0)"/>
      <use xlink:href="#DejaVuSans-6c" transform="translate(205.753906 0)"/>
      <use xlink:href="#DejaVuSans-43" transform="translate(233.537109 0)"/>
      <use xlink:href="#DejaVuSans-61" transform="translate(303.361328 0)"/>
      <use xlink:href="#DejaVuSans-6e" transform="translate(364.640625 0)"/>
      <use xlink:href="#DejaVuSans-6f" transform="translate(428.019531 0)"/>
      <use xlink:href="#DejaVuSans-6e" transform="translate(489.201172 0)"/>
      <use xlink:href="#DejaVuSans-69" transform="translate(552.580078 0)"/>
      <use xlink:href="#DejaVuSans-63" transform="translate(580.363281 0)"/>
      <use xlink:href="#DejaVuSans-61" transform="translate(635.34375 0)"/>
      <use xlink:href="#DejaVuSans-6c" transform="translate(696.623047 0)"/>
      <use xlink:href="#DejaVuSans-53" transform="translate(724.40625 0)"/>
      <use xlink:href="#DejaVuSans-65" transform="translate(787.882812 0)"/>
      <use xlink:href="#DejaVuSans-65" transform="translate(849.40625 0)"/>
      <use xlink:href="#DejaVuSans-64" transform="translate(910.929688 0)"/>
     </g>
    </g>
   </g>
  </g>
 </g>
 <defs>
  <clipPath id="pcb759dd3c2">
   <rect x="68.794952" y="16.746755" width="1596.799524" height="611.444615"/>
  </clipPath>
 </defs>
</svg>
