<?xml version="1.0" encoding="utf-8" standalone="no"?>
<!DOCTYPE svg PUBLIC "-//W3C//DTD SVG 1.1//EN"
  "http://www.w3.org/Graphics/SVG/1.1/DTD/svg11.dtd">
<svg xmlns:xlink="http://www.w3.org/1999/xlink" width="832.827188pt" height="832.520781pt" viewBox="0 0 832.827188 832.520781" xmlns="http://www.w3.org/2000/svg" version="1.1">
 <metadata>
  <rdf:RDF xmlns:dc="http://purl.org/dc/elements/1.1/" xmlns:cc="http://creativecommons.org/ns#" xmlns:rdf="http://www.w3.org/1999/02/22-rdf-syntax-ns#">
   <cc:Work>
    <dc:type rdf:resource="http://purl.org/dc/dcmitype/StillImage"/>
    <dc:date>2024-10-29T15:52:28.322268</dc:date>
    <dc:format>image/svg+xml</dc:format>
    <dc:creator>
     <cc:Agent>
      <dc:title>Matplotlib v3.9.2, https://matplotlib.org/</dc:title>
     </cc:Agent>
    </dc:creator>
   </cc:Work>
  </rdf:RDF>
 </metadata>
 <defs>
  <style type="text/css">*{stroke-linejoin: round; stroke-linecap: butt}</style>
 </defs>
 <g id="figure_1">
  <g id="patch_1">
   <path d="M -0 832.520781 
L 832.827188 832.520781 
L 832.827188 0 
L -0 0 
z
" style="fill: #ffffff"/>
  </g>
  <g id="axes_1">
   <g id="patch_2">
    <path d="M 99.967187 781.657656 
L 825.627187 781.657656 
L 825.627187 18.597656 
L 99.967187 18.597656 
z
" style="fill: #ffffff"/>
   </g>
   <g id="PolyCollection_1">
    <path d="M 224.423403 724.428156 
L 217.397638 724.428156 
L 217.386051 719.80355 
L 217.427096 715.178944 
L 217.509204 710.554338 
L 217.616258 705.929732 
L 217.728606 701.305126 
L 217.824291 696.68052 
L 217.880358 692.055914 
L 217.874075 687.431308 
L 217.783977 682.806702 
L 217.590642 678.182096 
L 217.277227 673.55749 
L 216.82976 668.932884 
L 216.237283 664.308277 
L 215.491883 659.683671 
L 214.58867 655.059065 
L 213.525722 650.434459 
L 212.303978 645.809853 
L 210.92706 641.185247 
L 209.400997 636.560641 
L 207.73383 631.936035 
L 205.935137 627.311429 
L 204.015494 622.686823 
L 201.985987 618.062217 
L 199.857809 613.437611 
L 197.642045 608.813005 
L 195.349652 604.188399 
L 192.991648 599.563793 
L 190.579472 594.939187 
L 188.125453 590.31458 
L 185.64332 585.689974 
L 183.148668 581.065368 
L 180.659296 576.440762 
L 178.195308 571.816156 
L 175.778891 567.19155 
L 173.433653 562.566944 
L 171.183455 557.942338 
L 169.050729 553.317732 
L 167.054368 548.693126 
L 165.207403 544.06852 
L 163.514764 539.443914 
L 161.971532 534.819308 
L 160.562063 530.194702 
L 159.2603 525.570096 
L 158.031441 520.94549 
L 156.834927 516.320884 
L 155.628498 511.696277 
L 154.372879 507.071671 
L 153.036534 502.447065 
L 151.599855 497.822459 
L 150.058221 493.197853 
L 148.423459 488.573247 
L 146.723442 483.948641 
L 144.999814 479.324035 
L 143.30406 474.699429 
L 141.692425 470.074823 
L 140.220336 465.450217 
L 138.937093 460.825611 
L 137.881568 456.201005 
L 137.079474 451.576399 
L 136.542571 446.951793 
L 136.269813 442.327187 
L 136.250187 437.70258 
L 136.466737 433.077974 
L 136.901105 428.453368 
L 137.537912 423.828762 
L 138.36833 419.204156 
L 139.392353 414.57955 
L 140.619458 409.954944 
L 142.067529 405.330338 
L 143.760171 400.705732 
L 145.722705 396.081126 
L 147.977365 391.45652 
L 150.538307 386.831914 
L 153.407163 382.207308 
L 156.569811 377.582702 
L 159.994899 372.958096 
L 163.634415 368.33349 
L 167.426309 363.708884 
L 171.298815 359.084277 
L 175.175906 354.459671 
L 178.983108 349.835065 
L 182.65293 345.210459 
L 186.129239 340.585853 
L 189.370161 335.961247 
L 192.349307 331.336641 
L 195.055425 326.712035 
L 197.490757 322.087429 
L 199.668494 317.462823 
L 201.609786 312.838217 
L 203.340703 308.213611 
L 204.889469 303.589005 
L 206.28418 298.964399 
L 207.55109 294.339793 
L 208.713473 289.715187 
L 209.790993 285.09058 
L 210.799465 280.465974 
L 211.750906 275.841368 
L 212.65377 271.216762 
L 213.513292 266.592156 
L 228.307749 266.592156 
L 228.307749 266.592156 
L 229.167271 271.216762 
L 230.070135 275.841368 
L 231.021577 280.465974 
L 232.030049 285.09058 
L 233.107569 289.715187 
L 234.269952 294.339793 
L 235.536862 298.964399 
L 236.931572 303.589005 
L 238.480339 308.213611 
L 240.211255 312.838217 
L 242.152547 317.462823 
L 244.330285 322.087429 
L 246.765617 326.712035 
L 249.471735 331.336641 
L 252.45088 335.961247 
L 255.691802 340.585853 
L 259.168112 345.210459 
L 262.837933 349.835065 
L 266.645135 354.459671 
L 270.522226 359.084277 
L 274.394733 363.708884 
L 278.186626 368.33349 
L 281.826143 372.958096 
L 285.25123 377.582702 
L 288.413879 382.207308 
L 291.282735 386.831914 
L 293.843676 391.45652 
L 296.098336 396.081126 
L 298.060871 400.705732 
L 299.753512 405.330338 
L 301.201583 409.954944 
L 302.428688 414.57955 
L 303.452712 419.204156 
L 304.283129 423.828762 
L 304.919936 428.453368 
L 305.354304 433.077974 
L 305.570854 437.70258 
L 305.551229 442.327187 
L 305.27847 446.951793 
L 304.741568 451.576399 
L 303.939474 456.201005 
L 302.883948 460.825611 
L 301.600706 465.450217 
L 300.128616 470.074823 
L 298.516981 474.699429 
L 296.821227 479.324035 
L 295.097599 483.948641 
L 293.397583 488.573247 
L 291.76282 493.197853 
L 290.221187 497.822459 
L 288.784508 502.447065 
L 287.448163 507.071671 
L 286.192544 511.696277 
L 284.986114 516.320884 
L 283.789601 520.94549 
L 282.560742 525.570096 
L 281.258979 530.194702 
L 279.84951 534.819308 
L 278.306278 539.443914 
L 276.613639 544.06852 
L 274.766674 548.693126 
L 272.770313 553.317732 
L 270.637586 557.942338 
L 268.387388 562.566944 
L 266.04215 567.19155 
L 263.625734 571.816156 
L 261.161746 576.440762 
L 258.672373 581.065368 
L 256.177722 585.689974 
L 253.695589 590.31458 
L 251.241569 594.939187 
L 248.829393 599.563793 
L 246.47139 604.188399 
L 244.178997 608.813005 
L 241.963233 613.437611 
L 239.835055 618.062217 
L 237.805547 622.686823 
L 235.885905 627.311429 
L 234.087211 631.936035 
L 232.420045 636.560641 
L 230.893981 641.185247 
L 229.517063 645.809853 
L 228.295319 650.434459 
L 227.232372 655.059065 
L 226.329159 659.683671 
L 225.583758 664.308277 
L 224.991282 668.932884 
L 224.543815 673.55749 
L 224.2304 678.182096 
L 224.037065 682.806702 
L 223.946966 687.431308 
L 223.940684 692.055914 
L 223.99675 696.68052 
L 224.092436 701.305126 
L 224.204784 705.929732 
L 224.311838 710.554338 
L 224.393945 715.178944 
L 224.434991 719.80355 
L 224.423403 724.428156 
z
" clip-path="url(#p6ec9595d2c)" style="fill: #f0e442"/>
   </g>
   <g id="PolyCollection_2">
    <path d="M 471.237651 762.581156 
L 454.356724 762.581156 
L 453.563328 757.95655 
L 452.724865 753.331944 
L 451.838002 748.707338 
L 450.89913 744.082732 
L 449.904543 739.458126 
L 448.850624 734.83352 
L 447.734016 730.208914 
L 446.551754 725.584308 
L 445.301349 720.959702 
L 443.98081 716.335096 
L 442.58861 711.71049 
L 441.123589 707.085884 
L 439.584825 702.461277 
L 437.971485 697.836671 
L 436.28268 693.212065 
L 434.517361 688.587459 
L 432.674269 683.962853 
L 430.751971 679.338247 
L 428.748992 674.713641 
L 426.664053 670.089035 
L 424.496398 665.464429 
L 422.246218 660.839823 
L 419.915121 656.215217 
L 417.506631 651.590611 
L 415.026682 646.966005 
L 412.48404 642.341399 
L 409.890632 637.716793 
L 407.261729 633.092187 
L 404.61595 628.46758 
L 401.975054 623.842974 
L 399.363517 619.218368 
L 396.80788 614.593762 
L 394.335894 609.969156 
L 391.975489 605.34455 
L 389.753626 600.719944 
L 387.695082 596.095338 
L 385.821265 591.470732 
L 384.149128 586.846126 
L 382.690264 582.22152 
L 381.450277 577.596914 
L 380.428466 572.972308 
L 379.617883 568.347702 
L 379.005767 563.723096 
L 378.574351 559.09849 
L 378.301986 554.473884 
L 378.164523 549.849277 
L 378.136854 545.224671 
L 378.194507 540.600065 
L 378.315186 535.975459 
L 378.480147 531.350853 
L 378.675326 526.726247 
L 378.892129 522.101641 
L 379.127858 517.477035 
L 379.385747 512.852429 
L 379.674616 508.227823 
L 380.008186 503.603217 
L 380.404109 498.978611 
L 380.882791 494.354005 
L 381.466079 489.729399 
L 382.175907 485.104793 
L 383.03297 480.480187 
L 384.0555 475.85558 
L 385.258211 471.230974 
L 386.651443 466.606368 
L 388.240546 461.981762 
L 390.025522 457.357156 
L 392.000917 452.73255 
L 394.155968 448.107944 
L 396.474967 443.483338 
L 398.937835 438.858732 
L 401.520848 434.234126 
L 404.197499 429.60952 
L 406.939435 424.984914 
L 409.717435 420.360308 
L 412.502383 415.735702 
L 415.266208 411.111096 
L 417.982735 406.48649 
L 420.628431 401.861884 
L 423.183019 397.237277 
L 425.629933 392.612671 
L 427.956604 387.988065 
L 430.15458 383.363459 
L 432.219469 378.738853 
L 434.150726 374.114247 
L 435.951294 369.489641 
L 437.627123 364.865035 
L 439.186606 360.240429 
L 440.639938 355.615823 
L 441.998468 350.991217 
L 443.274046 346.366611 
L 444.478413 341.742005 
L 445.622659 337.117399 
L 446.71677 332.492793 
L 447.769279 327.868187 
L 448.787028 323.24358 
L 449.775054 318.618974 
L 450.736572 313.994368 
L 451.673071 309.369762 
L 452.584478 304.745156 
L 473.009897 304.745156 
L 473.009897 304.745156 
L 473.921304 309.369762 
L 474.857803 313.994368 
L 475.819321 318.618974 
L 476.807347 323.24358 
L 477.825096 327.868187 
L 478.877605 332.492793 
L 479.971716 337.117399 
L 481.115962 341.742005 
L 482.320329 346.366611 
L 483.595907 350.991217 
L 484.954437 355.615823 
L 486.407769 360.240429 
L 487.967252 364.865035 
L 489.643081 369.489641 
L 491.443649 374.114247 
L 493.374906 378.738853 
L 495.439795 383.363459 
L 497.637771 387.988065 
L 499.964442 392.612671 
L 502.411356 397.237277 
L 504.965944 401.861884 
L 507.61164 406.48649 
L 510.328167 411.111096 
L 513.091992 415.735702 
L 515.87694 420.360308 
L 518.65494 424.984914 
L 521.396876 429.60952 
L 524.073527 434.234126 
L 526.65654 438.858732 
L 529.119408 443.483338 
L 531.438407 448.107944 
L 533.593458 452.73255 
L 535.568853 457.357156 
L 537.353829 461.981762 
L 538.942932 466.606368 
L 540.336164 471.230974 
L 541.538875 475.85558 
L 542.561405 480.480187 
L 543.418468 485.104793 
L 544.128296 489.729399 
L 544.711584 494.354005 
L 545.190266 498.978611 
L 545.586189 503.603217 
L 545.919759 508.227823 
L 546.208628 512.852429 
L 546.466517 517.477035 
L 546.702246 522.101641 
L 546.919049 526.726247 
L 547.114228 531.350853 
L 547.279189 535.975459 
L 547.399868 540.600065 
L 547.457521 545.224671 
L 547.429852 549.849277 
L 547.292389 554.473884 
L 547.020024 559.09849 
L 546.588608 563.723096 
L 545.976492 568.347702 
L 545.165909 572.972308 
L 544.144098 577.596914 
L 542.904111 582.22152 
L 541.445247 586.846126 
L 539.77311 591.470732 
L 537.899293 596.095338 
L 535.840749 600.719944 
L 533.618886 605.34455 
L 531.258481 609.969156 
L 528.786495 614.593762 
L 526.230858 619.218368 
L 523.619321 623.842974 
L 520.978425 628.46758 
L 518.332646 633.092187 
L 515.703743 637.716793 
L 513.110335 642.341399 
L 510.567693 646.966005 
L 508.087744 651.590611 
L 505.679254 656.215217 
L 503.348157 660.839823 
L 501.097977 665.464429 
L 498.930322 670.089035 
L 496.845383 674.713641 
L 494.842404 679.338247 
L 492.920106 683.962853 
L 491.077014 688.587459 
L 489.311695 693.212065 
L 487.62289 697.836671 
L 486.00955 702.461277 
L 484.470786 707.085884 
L 483.005765 711.71049 
L 481.613565 716.335096 
L 480.293026 720.959702 
L 479.042621 725.584308 
L 477.860359 730.208914 
L 476.743751 734.83352 
L 475.689832 739.458126 
L 474.695245 744.082732 
L 473.756373 748.707338 
L 472.86951 753.331944 
L 472.031047 757.95655 
L 471.237651 762.581156 
z
" clip-path="url(#p6ec9595d2c)" style="fill: #0072b2"/>
   </g>
   <g id="PolyCollection_3">
    <path d="M 763.205381 762.581156 
L 646.162327 762.581156 
L 645.345093 755.258863 
L 644.737573 747.93657 
L 644.330349 740.614277 
L 644.11005 733.291985 
L 644.059829 725.969692 
L 644.15994 718.647399 
L 644.388384 711.325106 
L 644.721613 704.002813 
L 645.135245 696.68052 
L 645.604765 689.358227 
L 646.106186 682.035934 
L 646.616639 674.713641 
L 647.114877 667.391348 
L 647.58167 660.069055 
L 648.000085 652.746762 
L 648.355647 645.424469 
L 648.636389 638.102176 
L 648.832787 630.779884 
L 648.937606 623.457591 
L 648.945675 616.135298 
L 648.853609 608.813005 
L 648.659497 601.490712 
L 648.362593 594.168419 
L 647.963022 586.846126 
L 647.461529 579.523833 
L 646.85928 572.20154 
L 646.157735 564.879247 
L 645.358602 557.556954 
L 644.463871 550.234661 
L 643.47592 542.912368 
L 642.397704 535.590075 
L 641.232984 528.267783 
L 639.986616 520.94549 
L 638.664842 513.623197 
L 637.275594 506.300904 
L 635.828762 498.978611 
L 634.336422 491.656318 
L 632.812992 484.334025 
L 631.275303 477.011732 
L 629.742571 469.689439 
L 628.236256 462.367146 
L 626.77981 455.044853 
L 625.398315 447.72256 
L 624.118009 440.400267 
L 622.965733 433.077974 
L 621.968299 425.755682 
L 621.151806 418.433389 
L 620.540936 411.111096 
L 620.15825 403.788803 
L 620.023521 396.46651 
L 620.153116 389.144217 
L 620.559468 381.821924 
L 621.250654 374.499631 
L 622.230086 367.177338 
L 623.496346 359.855045 
L 625.043156 352.532752 
L 626.859488 345.210459 
L 628.92981 337.888166 
L 631.234454 330.565873 
L 633.750097 323.24358 
L 636.450322 315.921288 
L 639.306254 308.598995 
L 642.287238 301.276702 
L 645.361533 293.954409 
L 648.497008 286.632116 
L 651.661806 279.309823 
L 654.824976 271.98753 
L 657.957034 264.665237 
L 661.030462 257.342944 
L 664.020119 250.020651 
L 666.90358 242.698358 
L 669.661377 235.376065 
L 672.277162 228.053772 
L 674.737793 220.731479 
L 677.033341 213.409187 
L 679.157036 206.086894 
L 681.105151 198.764601 
L 682.876839 191.442308 
L 684.473935 184.120015 
L 685.900715 176.797722 
L 687.163642 169.475429 
L 688.271088 162.153136 
L 689.233044 154.830843 
L 690.060829 147.50855 
L 690.766795 140.186257 
L 691.364029 132.863964 
L 691.866076 125.541671 
L 692.286655 118.219378 
L 692.639403 110.897086 
L 692.937627 103.574793 
L 693.19408 96.2525 
L 693.42076 88.930207 
L 693.628728 81.607914 
L 693.82797 74.285621 
L 694.027269 66.963328 
L 694.234129 59.641035 
L 694.454714 52.318742 
L 694.693835 44.996449 
L 694.954958 37.674156 
L 714.412751 37.674156 
L 714.412751 37.674156 
L 714.673873 44.996449 
L 714.912994 52.318742 
L 715.133579 59.641035 
L 715.340439 66.963328 
L 715.539739 74.285621 
L 715.73898 81.607914 
L 715.946949 88.930207 
L 716.173628 96.2525 
L 716.430081 103.574793 
L 716.728306 110.897086 
L 717.081054 118.219378 
L 717.501633 125.541671 
L 718.003679 132.863964 
L 718.600914 140.186257 
L 719.306879 147.50855 
L 720.134664 154.830843 
L 721.096621 162.153136 
L 722.204066 169.475429 
L 723.466994 176.797722 
L 724.893774 184.120015 
L 726.490869 191.442308 
L 728.262558 198.764601 
L 730.210672 206.086894 
L 732.334367 213.409187 
L 734.629915 220.731479 
L 737.090547 228.053772 
L 739.706332 235.376065 
L 742.464128 242.698358 
L 745.347589 250.020651 
L 748.337247 257.342944 
L 751.410674 264.665237 
L 754.542732 271.98753 
L 757.705902 279.309823 
L 760.870701 286.632116 
L 764.006175 293.954409 
L 767.08047 301.276702 
L 770.061454 308.598995 
L 772.917386 315.921288 
L 775.617611 323.24358 
L 778.133254 330.565873 
L 780.437899 337.888166 
L 782.508221 345.210459 
L 784.324553 352.532752 
L 785.871363 359.855045 
L 787.137623 367.177338 
L 788.117054 374.499631 
L 788.80824 381.821924 
L 789.214593 389.144217 
L 789.344187 396.46651 
L 789.209458 403.788803 
L 788.826773 411.111096 
L 788.215902 418.433389 
L 787.399409 425.755682 
L 786.401975 433.077974 
L 785.2497 440.400267 
L 783.969394 447.72256 
L 782.587898 455.044853 
L 781.131452 462.367146 
L 779.625137 469.689439 
L 778.092405 477.011732 
L 776.554717 484.334025 
L 775.031286 491.656318 
L 773.538946 498.978611 
L 772.092114 506.300904 
L 770.702866 513.623197 
L 769.381092 520.94549 
L 768.134724 528.267783 
L 766.970005 535.590075 
L 765.891788 542.912368 
L 764.903838 550.234661 
L 764.009106 557.556954 
L 763.209974 564.879247 
L 762.508428 572.20154 
L 761.906179 579.523833 
L 761.404686 586.846126 
L 761.005116 594.168419 
L 760.708211 601.490712 
L 760.514099 608.813005 
L 760.422033 616.135298 
L 760.430103 623.457591 
L 760.534922 630.779884 
L 760.731319 638.102176 
L 761.012061 645.424469 
L 761.367624 652.746762 
L 761.786038 660.069055 
L 762.252831 667.391348 
L 762.751069 674.713641 
L 763.261522 682.035934 
L 763.762943 689.358227 
L 764.232463 696.68052 
L 764.646095 704.002813 
L 764.979324 711.325106 
L 765.207768 718.647399 
L 765.307879 725.969692 
L 765.257659 733.291985 
L 765.03736 740.614277 
L 764.630135 747.93657 
L 764.022615 755.258863 
L 763.205381 762.581156 
z
" clip-path="url(#p6ec9595d2c)" style="fill: #cc79a7"/>
   </g>
   <g id="matplotlib.axis_1">
    <g id="xtick_1">
     <g id="line2d_1">
      <defs>
       <path id="m88b43d5a1a" d="M 0 0 
L 0 3.5 
" style="stroke: #000000; stroke-width: 0.8"/>
      </defs>
      <g>
       <use xlink:href="#m88b43d5a1a" x="220.910521" y="781.657656" style="stroke: #000000; stroke-width: 0.8"/>
      </g>
     </g>
     <g id="text_1">
      <!-- Manakov2022 -->
      <g transform="translate(129.731771 819.913594) scale(0.26 -0.26)">
       <defs>
        <path id="DejaVuSans-4d" d="M 628 4666 
L 1569 4666 
L 2759 1491 
L 3956 4666 
L 4897 4666 
L 4897 0 
L 4281 0 
L 4281 4097 
L 3078 897 
L 2444 897 
L 1241 4097 
L 1241 0 
L 628 0 
L 628 4666 
z
" transform="scale(0.015625)"/>
        <path id="DejaVuSans-61" d="M 2194 1759 
Q 1497 1759 1228 1600 
Q 959 1441 959 1056 
Q 959 750 1161 570 
Q 1363 391 1709 391 
Q 2188 391 2477 730 
Q 2766 1069 2766 1631 
L 2766 1759 
L 2194 1759 
z
M 3341 1997 
L 3341 0 
L 2766 0 
L 2766 531 
Q 2569 213 2275 61 
Q 1981 -91 1556 -91 
Q 1019 -91 701 211 
Q 384 513 384 1019 
Q 384 1609 779 1909 
Q 1175 2209 1959 2209 
L 2766 2209 
L 2766 2266 
Q 2766 2663 2505 2880 
Q 2244 3097 1772 3097 
Q 1472 3097 1187 3025 
Q 903 2953 641 2809 
L 641 3341 
Q 956 3463 1253 3523 
Q 1550 3584 1831 3584 
Q 2591 3584 2966 3190 
Q 3341 2797 3341 1997 
z
" transform="scale(0.015625)"/>
        <path id="DejaVuSans-6e" d="M 3513 2113 
L 3513 0 
L 2938 0 
L 2938 2094 
Q 2938 2591 2744 2837 
Q 2550 3084 2163 3084 
Q 1697 3084 1428 2787 
Q 1159 2491 1159 1978 
L 1159 0 
L 581 0 
L 581 3500 
L 1159 3500 
L 1159 2956 
Q 1366 3272 1645 3428 
Q 1925 3584 2291 3584 
Q 2894 3584 3203 3211 
Q 3513 2838 3513 2113 
z
" transform="scale(0.015625)"/>
        <path id="DejaVuSans-6b" d="M 581 4863 
L 1159 4863 
L 1159 1991 
L 2875 3500 
L 3609 3500 
L 1753 1863 
L 3688 0 
L 2938 0 
L 1159 1709 
L 1159 0 
L 581 0 
L 581 4863 
z
" transform="scale(0.015625)"/>
        <path id="DejaVuSans-6f" d="M 1959 3097 
Q 1497 3097 1228 2736 
Q 959 2375 959 1747 
Q 959 1119 1226 758 
Q 1494 397 1959 397 
Q 2419 397 2687 759 
Q 2956 1122 2956 1747 
Q 2956 2369 2687 2733 
Q 2419 3097 1959 3097 
z
M 1959 3584 
Q 2709 3584 3137 3096 
Q 3566 2609 3566 1747 
Q 3566 888 3137 398 
Q 2709 -91 1959 -91 
Q 1206 -91 779 398 
Q 353 888 353 1747 
Q 353 2609 779 3096 
Q 1206 3584 1959 3584 
z
" transform="scale(0.015625)"/>
        <path id="DejaVuSans-76" d="M 191 3500 
L 800 3500 
L 1894 563 
L 2988 3500 
L 3597 3500 
L 2284 0 
L 1503 0 
L 191 3500 
z
" transform="scale(0.015625)"/>
        <path id="DejaVuSans-32" d="M 1228 531 
L 3431 531 
L 3431 0 
L 469 0 
L 469 531 
Q 828 903 1448 1529 
Q 2069 2156 2228 2338 
Q 2531 2678 2651 2914 
Q 2772 3150 2772 3378 
Q 2772 3750 2511 3984 
Q 2250 4219 1831 4219 
Q 1534 4219 1204 4116 
Q 875 4013 500 3803 
L 500 4441 
Q 881 4594 1212 4672 
Q 1544 4750 1819 4750 
Q 2544 4750 2975 4387 
Q 3406 4025 3406 3419 
Q 3406 3131 3298 2873 
Q 3191 2616 2906 2266 
Q 2828 2175 2409 1742 
Q 1991 1309 1228 531 
z
" transform="scale(0.015625)"/>
        <path id="DejaVuSans-30" d="M 2034 4250 
Q 1547 4250 1301 3770 
Q 1056 3291 1056 2328 
Q 1056 1369 1301 889 
Q 1547 409 2034 409 
Q 2525 409 2770 889 
Q 3016 1369 3016 2328 
Q 3016 3291 2770 3770 
Q 2525 4250 2034 4250 
z
M 2034 4750 
Q 2819 4750 3233 4129 
Q 3647 3509 3647 2328 
Q 3647 1150 3233 529 
Q 2819 -91 2034 -91 
Q 1250 -91 836 529 
Q 422 1150 422 2328 
Q 422 3509 836 4129 
Q 1250 4750 2034 4750 
z
" transform="scale(0.015625)"/>
       </defs>
       <use xlink:href="#DejaVuSans-4d"/>
       <use xlink:href="#DejaVuSans-61" x="86.279297"/>
       <use xlink:href="#DejaVuSans-6e" x="147.558594"/>
       <use xlink:href="#DejaVuSans-61" x="210.9375"/>
       <use xlink:href="#DejaVuSans-6b" x="272.216797"/>
       <use xlink:href="#DejaVuSans-6f" x="326.501953"/>
       <use xlink:href="#DejaVuSans-76" x="387.683594"/>
       <use xlink:href="#DejaVuSans-32" x="446.863281"/>
       <use xlink:href="#DejaVuSans-30" x="510.486328"/>
       <use xlink:href="#DejaVuSans-32" x="574.109375"/>
       <use xlink:href="#DejaVuSans-32" x="637.732422"/>
      </g>
     </g>
    </g>
    <g id="xtick_2">
     <g id="line2d_2">
      <g>
       <use xlink:href="#m88b43d5a1a" x="462.797187" y="781.657656" style="stroke: #000000; stroke-width: 0.8"/>
      </g>
     </g>
     <g id="text_2">
      <!-- Hejret2023 -->
      <g transform="translate(390.177969 819.913594) scale(0.26 -0.26)">
       <defs>
        <path id="DejaVuSans-48" d="M 628 4666 
L 1259 4666 
L 1259 2753 
L 3553 2753 
L 3553 4666 
L 4184 4666 
L 4184 0 
L 3553 0 
L 3553 2222 
L 1259 2222 
L 1259 0 
L 628 0 
L 628 4666 
z
" transform="scale(0.015625)"/>
        <path id="DejaVuSans-65" d="M 3597 1894 
L 3597 1613 
L 953 1613 
Q 991 1019 1311 708 
Q 1631 397 2203 397 
Q 2534 397 2845 478 
Q 3156 559 3463 722 
L 3463 178 
Q 3153 47 2828 -22 
Q 2503 -91 2169 -91 
Q 1331 -91 842 396 
Q 353 884 353 1716 
Q 353 2575 817 3079 
Q 1281 3584 2069 3584 
Q 2775 3584 3186 3129 
Q 3597 2675 3597 1894 
z
M 3022 2063 
Q 3016 2534 2758 2815 
Q 2500 3097 2075 3097 
Q 1594 3097 1305 2825 
Q 1016 2553 972 2059 
L 3022 2063 
z
" transform="scale(0.015625)"/>
        <path id="DejaVuSans-6a" d="M 603 3500 
L 1178 3500 
L 1178 -63 
Q 1178 -731 923 -1031 
Q 669 -1331 103 -1331 
L -116 -1331 
L -116 -844 
L 38 -844 
Q 366 -844 484 -692 
Q 603 -541 603 -63 
L 603 3500 
z
M 603 4863 
L 1178 4863 
L 1178 4134 
L 603 4134 
L 603 4863 
z
" transform="scale(0.015625)"/>
        <path id="DejaVuSans-72" d="M 2631 2963 
Q 2534 3019 2420 3045 
Q 2306 3072 2169 3072 
Q 1681 3072 1420 2755 
Q 1159 2438 1159 1844 
L 1159 0 
L 581 0 
L 581 3500 
L 1159 3500 
L 1159 2956 
Q 1341 3275 1631 3429 
Q 1922 3584 2338 3584 
Q 2397 3584 2469 3576 
Q 2541 3569 2628 3553 
L 2631 2963 
z
" transform="scale(0.015625)"/>
        <path id="DejaVuSans-74" d="M 1172 4494 
L 1172 3500 
L 2356 3500 
L 2356 3053 
L 1172 3053 
L 1172 1153 
Q 1172 725 1289 603 
Q 1406 481 1766 481 
L 2356 481 
L 2356 0 
L 1766 0 
Q 1100 0 847 248 
Q 594 497 594 1153 
L 594 3053 
L 172 3053 
L 172 3500 
L 594 3500 
L 594 4494 
L 1172 4494 
z
" transform="scale(0.015625)"/>
        <path id="DejaVuSans-33" d="M 2597 2516 
Q 3050 2419 3304 2112 
Q 3559 1806 3559 1356 
Q 3559 666 3084 287 
Q 2609 -91 1734 -91 
Q 1441 -91 1130 -33 
Q 819 25 488 141 
L 488 750 
Q 750 597 1062 519 
Q 1375 441 1716 441 
Q 2309 441 2620 675 
Q 2931 909 2931 1356 
Q 2931 1769 2642 2001 
Q 2353 2234 1838 2234 
L 1294 2234 
L 1294 2753 
L 1863 2753 
Q 2328 2753 2575 2939 
Q 2822 3125 2822 3475 
Q 2822 3834 2567 4026 
Q 2313 4219 1838 4219 
Q 1578 4219 1281 4162 
Q 984 4106 628 3988 
L 628 4550 
Q 988 4650 1302 4700 
Q 1616 4750 1894 4750 
Q 2613 4750 3031 4423 
Q 3450 4097 3450 3541 
Q 3450 3153 3228 2886 
Q 3006 2619 2597 2516 
z
" transform="scale(0.015625)"/>
       </defs>
       <use xlink:href="#DejaVuSans-48"/>
       <use xlink:href="#DejaVuSans-65" x="75.195312"/>
       <use xlink:href="#DejaVuSans-6a" x="136.71875"/>
       <use xlink:href="#DejaVuSans-72" x="164.501953"/>
       <use xlink:href="#DejaVuSans-65" x="203.365234"/>
       <use xlink:href="#DejaVuSans-74" x="264.888672"/>
       <use xlink:href="#DejaVuSans-32" x="304.097656"/>
       <use xlink:href="#DejaVuSans-30" x="367.720703"/>
       <use xlink:href="#DejaVuSans-32" x="431.34375"/>
       <use xlink:href="#DejaVuSans-33" x="494.966797"/>
      </g>
     </g>
    </g>
    <g id="xtick_3">
     <g id="line2d_3">
      <g>
       <use xlink:href="#m88b43d5a1a" x="704.683854" y="781.657656" style="stroke: #000000; stroke-width: 0.8"/>
      </g>
     </g>
     <g id="text_3">
      <!-- Klimentova2022 -->
      <g transform="translate(598.238229 819.913594) scale(0.26 -0.26)">
       <defs>
        <path id="DejaVuSans-4b" d="M 628 4666 
L 1259 4666 
L 1259 2694 
L 3353 4666 
L 4166 4666 
L 1850 2491 
L 4331 0 
L 3500 0 
L 1259 2247 
L 1259 0 
L 628 0 
L 628 4666 
z
" transform="scale(0.015625)"/>
        <path id="DejaVuSans-6c" d="M 603 4863 
L 1178 4863 
L 1178 0 
L 603 0 
L 603 4863 
z
" transform="scale(0.015625)"/>
        <path id="DejaVuSans-69" d="M 603 3500 
L 1178 3500 
L 1178 0 
L 603 0 
L 603 3500 
z
M 603 4863 
L 1178 4863 
L 1178 4134 
L 603 4134 
L 603 4863 
z
" transform="scale(0.015625)"/>
        <path id="DejaVuSans-6d" d="M 3328 2828 
Q 3544 3216 3844 3400 
Q 4144 3584 4550 3584 
Q 5097 3584 5394 3201 
Q 5691 2819 5691 2113 
L 5691 0 
L 5113 0 
L 5113 2094 
Q 5113 2597 4934 2840 
Q 4756 3084 4391 3084 
Q 3944 3084 3684 2787 
Q 3425 2491 3425 1978 
L 3425 0 
L 2847 0 
L 2847 2094 
Q 2847 2600 2669 2842 
Q 2491 3084 2119 3084 
Q 1678 3084 1418 2786 
Q 1159 2488 1159 1978 
L 1159 0 
L 581 0 
L 581 3500 
L 1159 3500 
L 1159 2956 
Q 1356 3278 1631 3431 
Q 1906 3584 2284 3584 
Q 2666 3584 2933 3390 
Q 3200 3197 3328 2828 
z
" transform="scale(0.015625)"/>
       </defs>
       <use xlink:href="#DejaVuSans-4b"/>
       <use xlink:href="#DejaVuSans-6c" x="65.576172"/>
       <use xlink:href="#DejaVuSans-69" x="93.359375"/>
       <use xlink:href="#DejaVuSans-6d" x="121.142578"/>
       <use xlink:href="#DejaVuSans-65" x="218.554688"/>
       <use xlink:href="#DejaVuSans-6e" x="280.078125"/>
       <use xlink:href="#DejaVuSans-74" x="343.457031"/>
       <use xlink:href="#DejaVuSans-6f" x="382.666016"/>
       <use xlink:href="#DejaVuSans-76" x="443.847656"/>
       <use xlink:href="#DejaVuSans-61" x="503.027344"/>
       <use xlink:href="#DejaVuSans-32" x="564.306641"/>
       <use xlink:href="#DejaVuSans-30" x="627.929688"/>
       <use xlink:href="#DejaVuSans-32" x="691.552734"/>
       <use xlink:href="#DejaVuSans-32" x="755.175781"/>
      </g>
     </g>
    </g>
   </g>
   <g id="matplotlib.axis_2">
    <g id="ytick_1">
     <g id="line2d_4">
      <path d="M 99.967187 781.657656 
L 825.627187 781.657656 
" clip-path="url(#p6ec9595d2c)" style="fill: none; stroke-dasharray: 0.8,1.32; stroke-dashoffset: 0; stroke: #000000; stroke-opacity: 0.8; stroke-width: 0.8"/>
     </g>
     <g id="line2d_5">
      <defs>
       <path id="m1111958dfd" d="M 0 0 
L -3.5 0 
" style="stroke: #000000; stroke-width: 0.8"/>
      </defs>
      <g>
       <use xlink:href="#m1111958dfd" x="99.967187" y="781.657656" style="stroke: #000000; stroke-width: 0.8"/>
      </g>
     </g>
     <g id="text_4">
      <!-- 0% -->
      <g transform="translate(45.375 793.055312) scale(0.3 -0.3)">
       <defs>
        <path id="DejaVuSans-25" d="M 4653 2053 
Q 4381 2053 4226 1822 
Q 4072 1591 4072 1178 
Q 4072 772 4226 539 
Q 4381 306 4653 306 
Q 4919 306 5073 539 
Q 5228 772 5228 1178 
Q 5228 1588 5073 1820 
Q 4919 2053 4653 2053 
z
M 4653 2450 
Q 5147 2450 5437 2106 
Q 5728 1763 5728 1178 
Q 5728 594 5436 251 
Q 5144 -91 4653 -91 
Q 4153 -91 3862 251 
Q 3572 594 3572 1178 
Q 3572 1766 3864 2108 
Q 4156 2450 4653 2450 
z
M 1428 4353 
Q 1159 4353 1004 4120 
Q 850 3888 850 3481 
Q 850 3069 1003 2837 
Q 1156 2606 1428 2606 
Q 1700 2606 1854 2837 
Q 2009 3069 2009 3481 
Q 2009 3884 1853 4118 
Q 1697 4353 1428 4353 
z
M 4250 4750 
L 4750 4750 
L 1831 -91 
L 1331 -91 
L 4250 4750 
z
M 1428 4750 
Q 1922 4750 2215 4408 
Q 2509 4066 2509 3481 
Q 2509 2891 2217 2550 
Q 1925 2209 1428 2209 
Q 931 2209 642 2551 
Q 353 2894 353 3481 
Q 353 4063 643 4406 
Q 934 4750 1428 4750 
z
" transform="scale(0.015625)"/>
       </defs>
       <use xlink:href="#DejaVuSans-30"/>
       <use xlink:href="#DejaVuSans-25" x="63.623047"/>
      </g>
     </g>
    </g>
    <g id="ytick_2">
     <g id="line2d_6">
      <path d="M 99.967187 705.351656 
L 825.627187 705.351656 
" clip-path="url(#p6ec9595d2c)" style="fill: none; stroke-dasharray: 0.8,1.32; stroke-dashoffset: 0; stroke: #000000; stroke-opacity: 0.8; stroke-width: 0.8"/>
     </g>
     <g id="line2d_7">
      <g>
       <use xlink:href="#m1111958dfd" x="99.967187" y="705.351656" style="stroke: #000000; stroke-width: 0.8"/>
      </g>
     </g>
    </g>
    <g id="ytick_3">
     <g id="line2d_8">
      <path d="M 99.967187 629.045656 
L 825.627187 629.045656 
" clip-path="url(#p6ec9595d2c)" style="fill: none; stroke-dasharray: 0.8,1.32; stroke-dashoffset: 0; stroke: #000000; stroke-opacity: 0.8; stroke-width: 0.8"/>
     </g>
     <g id="line2d_9">
      <g>
       <use xlink:href="#m1111958dfd" x="99.967187" y="629.045656" style="stroke: #000000; stroke-width: 0.8"/>
      </g>
     </g>
     <g id="text_5">
      <!-- 20% -->
      <g transform="translate(26.2875 640.443312) scale(0.3 -0.3)">
       <use xlink:href="#DejaVuSans-32"/>
       <use xlink:href="#DejaVuSans-30" x="63.623047"/>
       <use xlink:href="#DejaVuSans-25" x="127.246094"/>
      </g>
     </g>
    </g>
    <g id="ytick_4">
     <g id="line2d_10">
      <path d="M 99.967187 552.739656 
L 825.627187 552.739656 
" clip-path="url(#p6ec9595d2c)" style="fill: none; stroke-dasharray: 0.8,1.32; stroke-dashoffset: 0; stroke: #000000; stroke-opacity: 0.8; stroke-width: 0.8"/>
     </g>
     <g id="line2d_11">
      <g>
       <use xlink:href="#m1111958dfd" x="99.967187" y="552.739656" style="stroke: #000000; stroke-width: 0.8"/>
      </g>
     </g>
    </g>
    <g id="ytick_5">
     <g id="line2d_12">
      <path d="M 99.967187 476.433656 
L 825.627187 476.433656 
" clip-path="url(#p6ec9595d2c)" style="fill: none; stroke-dasharray: 0.8,1.32; stroke-dashoffset: 0; stroke: #000000; stroke-opacity: 0.8; stroke-width: 0.8"/>
     </g>
     <g id="line2d_13">
      <g>
       <use xlink:href="#m1111958dfd" x="99.967187" y="476.433656" style="stroke: #000000; stroke-width: 0.8"/>
      </g>
     </g>
     <g id="text_6">
      <!-- 40% -->
      <g transform="translate(26.2875 487.831312) scale(0.3 -0.3)">
       <defs>
        <path id="DejaVuSans-34" d="M 2419 4116 
L 825 1625 
L 2419 1625 
L 2419 4116 
z
M 2253 4666 
L 3047 4666 
L 3047 1625 
L 3713 1625 
L 3713 1100 
L 3047 1100 
L 3047 0 
L 2419 0 
L 2419 1100 
L 313 1100 
L 313 1709 
L 2253 4666 
z
" transform="scale(0.015625)"/>
       </defs>
       <use xlink:href="#DejaVuSans-34"/>
       <use xlink:href="#DejaVuSans-30" x="63.623047"/>
       <use xlink:href="#DejaVuSans-25" x="127.246094"/>
      </g>
     </g>
    </g>
    <g id="ytick_6">
     <g id="line2d_14">
      <path d="M 99.967187 400.127656 
L 825.627187 400.127656 
" clip-path="url(#p6ec9595d2c)" style="fill: none; stroke-dasharray: 0.8,1.32; stroke-dashoffset: 0; stroke: #000000; stroke-opacity: 0.8; stroke-width: 0.8"/>
     </g>
     <g id="line2d_15">
      <g>
       <use xlink:href="#m1111958dfd" x="99.967187" y="400.127656" style="stroke: #000000; stroke-width: 0.8"/>
      </g>
     </g>
    </g>
    <g id="ytick_7">
     <g id="line2d_16">
      <path d="M 99.967187 323.821656 
L 825.627187 323.821656 
" clip-path="url(#p6ec9595d2c)" style="fill: none; stroke-dasharray: 0.8,1.32; stroke-dashoffset: 0; stroke: #000000; stroke-opacity: 0.8; stroke-width: 0.8"/>
     </g>
     <g id="line2d_17">
      <g>
       <use xlink:href="#m1111958dfd" x="99.967187" y="323.821656" style="stroke: #000000; stroke-width: 0.8"/>
      </g>
     </g>
     <g id="text_7">
      <!-- 60% -->
      <g transform="translate(26.2875 335.219312) scale(0.3 -0.3)">
       <defs>
        <path id="DejaVuSans-36" d="M 2113 2584 
Q 1688 2584 1439 2293 
Q 1191 2003 1191 1497 
Q 1191 994 1439 701 
Q 1688 409 2113 409 
Q 2538 409 2786 701 
Q 3034 994 3034 1497 
Q 3034 2003 2786 2293 
Q 2538 2584 2113 2584 
z
M 3366 4563 
L 3366 3988 
Q 3128 4100 2886 4159 
Q 2644 4219 2406 4219 
Q 1781 4219 1451 3797 
Q 1122 3375 1075 2522 
Q 1259 2794 1537 2939 
Q 1816 3084 2150 3084 
Q 2853 3084 3261 2657 
Q 3669 2231 3669 1497 
Q 3669 778 3244 343 
Q 2819 -91 2113 -91 
Q 1303 -91 875 529 
Q 447 1150 447 2328 
Q 447 3434 972 4092 
Q 1497 4750 2381 4750 
Q 2619 4750 2861 4703 
Q 3103 4656 3366 4563 
z
" transform="scale(0.015625)"/>
       </defs>
       <use xlink:href="#DejaVuSans-36"/>
       <use xlink:href="#DejaVuSans-30" x="63.623047"/>
       <use xlink:href="#DejaVuSans-25" x="127.246094"/>
      </g>
     </g>
    </g>
    <g id="ytick_8">
     <g id="line2d_18">
      <path d="M 99.967187 247.515656 
L 825.627187 247.515656 
" clip-path="url(#p6ec9595d2c)" style="fill: none; stroke-dasharray: 0.8,1.32; stroke-dashoffset: 0; stroke: #000000; stroke-opacity: 0.8; stroke-width: 0.8"/>
     </g>
     <g id="line2d_19">
      <g>
       <use xlink:href="#m1111958dfd" x="99.967187" y="247.515656" style="stroke: #000000; stroke-width: 0.8"/>
      </g>
     </g>
    </g>
    <g id="ytick_9">
     <g id="line2d_20">
      <path d="M 99.967187 171.209656 
L 825.627187 171.209656 
" clip-path="url(#p6ec9595d2c)" style="fill: none; stroke-dasharray: 0.8,1.32; stroke-dashoffset: 0; stroke: #000000; stroke-opacity: 0.8; stroke-width: 0.8"/>
     </g>
     <g id="line2d_21">
      <g>
       <use xlink:href="#m1111958dfd" x="99.967187" y="171.209656" style="stroke: #000000; stroke-width: 0.8"/>
      </g>
     </g>
     <g id="text_8">
      <!-- 80% -->
      <g transform="translate(26.2875 182.607312) scale(0.3 -0.3)">
       <defs>
        <path id="DejaVuSans-38" d="M 2034 2216 
Q 1584 2216 1326 1975 
Q 1069 1734 1069 1313 
Q 1069 891 1326 650 
Q 1584 409 2034 409 
Q 2484 409 2743 651 
Q 3003 894 3003 1313 
Q 3003 1734 2745 1975 
Q 2488 2216 2034 2216 
z
M 1403 2484 
Q 997 2584 770 2862 
Q 544 3141 544 3541 
Q 544 4100 942 4425 
Q 1341 4750 2034 4750 
Q 2731 4750 3128 4425 
Q 3525 4100 3525 3541 
Q 3525 3141 3298 2862 
Q 3072 2584 2669 2484 
Q 3125 2378 3379 2068 
Q 3634 1759 3634 1313 
Q 3634 634 3220 271 
Q 2806 -91 2034 -91 
Q 1263 -91 848 271 
Q 434 634 434 1313 
Q 434 1759 690 2068 
Q 947 2378 1403 2484 
z
M 1172 3481 
Q 1172 3119 1398 2916 
Q 1625 2713 2034 2713 
Q 2441 2713 2670 2916 
Q 2900 3119 2900 3481 
Q 2900 3844 2670 4047 
Q 2441 4250 2034 4250 
Q 1625 4250 1398 4047 
Q 1172 3844 1172 3481 
z
" transform="scale(0.015625)"/>
       </defs>
       <use xlink:href="#DejaVuSans-38"/>
       <use xlink:href="#DejaVuSans-30" x="63.623047"/>
       <use xlink:href="#DejaVuSans-25" x="127.246094"/>
      </g>
     </g>
    </g>
    <g id="ytick_10">
     <g id="line2d_22">
      <path d="M 99.967187 94.903656 
L 825.627187 94.903656 
" clip-path="url(#p6ec9595d2c)" style="fill: none; stroke-dasharray: 0.8,1.32; stroke-dashoffset: 0; stroke: #000000; stroke-opacity: 0.8; stroke-width: 0.8"/>
     </g>
     <g id="line2d_23">
      <g>
       <use xlink:href="#m1111958dfd" x="99.967187" y="94.903656" style="stroke: #000000; stroke-width: 0.8"/>
      </g>
     </g>
    </g>
    <g id="ytick_11">
     <g id="line2d_24">
      <path d="M 99.967187 18.597656 
L 825.627187 18.597656 
" clip-path="url(#p6ec9595d2c)" style="fill: none; stroke-dasharray: 0.8,1.32; stroke-dashoffset: 0; stroke: #000000; stroke-opacity: 0.8; stroke-width: 0.8"/>
     </g>
     <g id="line2d_25">
      <g>
       <use xlink:href="#m1111958dfd" x="99.967187" y="18.597656" style="stroke: #000000; stroke-width: 0.8"/>
      </g>
     </g>
     <g id="text_9">
      <!-- 100% -->
      <g transform="translate(7.2 29.995312) scale(0.3 -0.3)">
       <defs>
        <path id="DejaVuSans-31" d="M 794 531 
L 1825 531 
L 1825 4091 
L 703 3866 
L 703 4441 
L 1819 4666 
L 2450 4666 
L 2450 531 
L 3481 531 
L 3481 0 
L 794 0 
L 794 531 
z
" transform="scale(0.015625)"/>
       </defs>
       <use xlink:href="#DejaVuSans-31"/>
       <use xlink:href="#DejaVuSans-30" x="63.623047"/>
       <use xlink:href="#DejaVuSans-30" x="127.246094"/>
       <use xlink:href="#DejaVuSans-25" x="190.869141"/>
      </g>
     </g>
    </g>
   </g>
   <g id="LineCollection_1">
    <path d="M 136.250187 457.357156 
L 305.570854 457.357156 
" clip-path="url(#p6ec9595d2c)" style="fill: none; stroke: #000000; stroke-width: 1.5"/>
   </g>
   <g id="LineCollection_2">
    <path d="M 378.136854 533.663156 
L 547.457521 533.663156 
" clip-path="url(#p6ec9595d2c)" style="fill: none; stroke: #000000; stroke-width: 1.5"/>
   </g>
   <g id="LineCollection_3">
    <path d="M 620.023521 476.433656 
L 789.344187 476.433656 
" clip-path="url(#p6ec9595d2c)" style="fill: none; stroke: #000000; stroke-width: 1.5"/>
   </g>
   <g id="patch_3">
    <path d="M 99.967187 781.657656 
L 99.967187 18.597656 
" style="fill: none; stroke: #000000; stroke-linejoin: miter; stroke-linecap: square"/>
   </g>
   <g id="patch_4">
    <path d="M 99.967187 781.657656 
L 825.627187 781.657656 
" style="fill: none; stroke: #000000; stroke-linejoin: miter; stroke-linecap: square"/>
   </g>
  </g>
 </g>
 <defs>
  <clipPath id="p6ec9595d2c">
   <rect x="99.967187" y="18.597656" width="725.66" height="763.06"/>
  </clipPath>
 </defs>
</svg>
