<?xml version="1.0" encoding="utf-8" standalone="no"?>
<!DOCTYPE svg PUBLIC "-//W3C//DTD SVG 1.1//EN"
  "http://www.w3.org/Graphics/SVG/1.1/DTD/svg11.dtd">
<svg xmlns:xlink="http://www.w3.org/1999/xlink" width="832.782187pt" height="832.640781pt" viewBox="0 0 832.782187 832.640781" xmlns="http://www.w3.org/2000/svg" version="1.1">
 <metadata>
  <rdf:RDF xmlns:dc="http://purl.org/dc/elements/1.1/" xmlns:cc="http://creativecommons.org/ns#" xmlns:rdf="http://www.w3.org/1999/02/22-rdf-syntax-ns#">
   <cc:Work>
    <dc:type rdf:resource="http://purl.org/dc/dcmitype/StillImage"/>
    <dc:date>2025-01-09T14:34:07.060710</dc:date>
    <dc:format>image/svg+xml</dc:format>
    <dc:creator>
     <cc:Agent>
      <dc:title>Matplotlib v3.10.0, https://matplotlib.org/</dc:title>
     </cc:Agent>
    </dc:creator>
   </cc:Work>
  </rdf:RDF>
 </metadata>
 <defs>
  <style type="text/css">*{stroke-linejoin: round; stroke-linecap: butt}</style>
 </defs>
 <g id="figure_1">
  <g id="patch_1">
   <path d="M 0 832.640781 
L 832.782187 832.640781 
L 832.782187 0 
L 0 0 
z
" style="fill: #ffffff"/>
  </g>
  <g id="axes_1">
   <g id="patch_2">
    <path d="M 99.967187 781.777656 
L 825.582187 781.777656 
L 825.582187 18.597656 
L 99.967187 18.597656 
z
" style="fill: #ffffff"/>
   </g>
   <g id="FillBetweenPolyCollection_1">
    <path d="M 222.793193 724.539156 
L 219.012848 724.539156 
L 219.027538 719.913823 
L 219.079482 715.28849 
L 219.161728 710.663156 
L 219.263806 706.037823 
L 219.372086 701.41249 
L 219.470258 696.787156 
L 219.539849 692.161823 
L 219.560729 687.53649 
L 219.511618 682.911156 
L 219.370623 678.285823 
L 219.115873 673.66049 
L 218.726325 669.035156 
L 218.182782 664.409823 
L 217.469083 659.78449 
L 216.573383 655.159156 
L 215.489327 650.533823 
L 214.216919 645.90849 
L 212.762839 641.283156 
L 211.140069 636.657823 
L 209.366751 632.03249 
L 207.464376 627.407156 
L 205.455517 622.781823 
L 203.36144 618.15649 
L 201.199955 613.531156 
L 198.983874 608.905823 
L 196.720301 604.28049 
L 194.410913 599.655156 
L 192.053175 595.029823 
L 189.642364 590.40449 
L 187.174137 585.779156 
L 184.647318 581.153823 
L 182.066559 576.52849 
L 179.444466 571.903156 
L 176.80284 567.277823 
L 174.17267 562.65249 
L 171.592674 558.027156 
L 169.106318 553.401823 
L 166.757517 548.77649 
L 164.585471 544.151156 
L 162.61935 539.525823 
L 160.873649 534.90049 
L 159.345064 530.275156 
L 158.011519 525.649823 
L 156.833691 521.02449 
L 155.758948 516.399156 
L 154.727259 511.773823 
L 153.678293 507.14849 
L 152.558768 502.523156 
L 151.329084 497.897823 
L 149.968356 493.27249 
L 148.477206 488.647156 
L 146.877953 484.021823 
L 145.212168 479.39649 
L 143.535923 474.771156 
L 141.913386 470.145823 
L 140.409655 465.52049 
L 139.08387 460.895156 
L 137.98357 456.269823 
L 137.14109 451.64449 
L 136.572391 447.019156 
L 136.278327 442.393823 
L 136.247937 437.76849 
L 136.463066 433.143156 
L 136.90348 428.517823 
L 137.551689 423.89249 
L 138.396805 419.267156 
L 139.437001 414.641823 
L 140.680297 410.01649 
L 142.143611 405.391156 
L 143.85017 400.765823 
L 145.82552 396.14049 
L 148.092582 391.515156 
L 150.666355 386.889823 
L 153.549046 382.26449 
L 156.726402 377.639156 
L 160.165955 373.013823 
L 163.817595 368.38849 
L 167.616529 363.763156 
L 171.488236 359.137823 
L 175.354696 354.51249 
L 179.140948 349.887156 
L 182.781024 345.261823 
L 186.222474 340.63649 
L 189.429018 336.011156 
L 192.381176 331.385823 
L 195.075085 326.76049 
L 197.519916 322.135156 
L 199.734429 317.509823 
L 201.743226 312.88449 
L 203.573184 308.259156 
L 205.250421 303.633823 
L 206.798055 299.00849 
L 208.234815 294.383156 
L 209.57452 289.757823 
L 210.826263 285.13249 
L 211.995147 280.507156 
L 213.083321 275.881823 
L 214.091117 271.25649 
L 215.018092 266.631156 
L 226.78795 266.631156 
L 226.78795 266.631156 
L 227.714924 271.25649 
L 228.722721 275.881823 
L 229.810895 280.507156 
L 230.979779 285.13249 
L 232.231522 289.757823 
L 233.571226 294.383156 
L 235.007987 299.00849 
L 236.55562 303.633823 
L 238.232858 308.259156 
L 240.062815 312.88449 
L 242.071613 317.509823 
L 244.286125 322.135156 
L 246.730956 326.76049 
L 249.424866 331.385823 
L 252.377024 336.011156 
L 255.583568 340.63649 
L 259.025018 345.261823 
L 262.665093 349.887156 
L 266.451346 354.51249 
L 270.317806 359.137823 
L 274.189513 363.763156 
L 277.988447 368.38849 
L 281.640087 373.013823 
L 285.07964 377.639156 
L 288.256996 382.26449 
L 291.139687 386.889823 
L 293.71346 391.515156 
L 295.980521 396.14049 
L 297.955872 400.765823 
L 299.662431 405.391156 
L 301.125745 410.01649 
L 302.36904 414.641823 
L 303.409237 419.267156 
L 304.254353 423.89249 
L 304.902561 428.517823 
L 305.342975 433.143156 
L 305.558104 437.76849 
L 305.527715 442.393823 
L 305.233651 447.019156 
L 304.664952 451.64449 
L 303.822472 456.269823 
L 302.722172 460.895156 
L 301.396386 465.52049 
L 299.892656 470.145823 
L 298.270119 474.771156 
L 296.593874 479.39649 
L 294.928089 484.021823 
L 293.328836 488.647156 
L 291.837686 493.27249 
L 290.476958 497.897823 
L 289.247274 502.523156 
L 288.127749 507.14849 
L 287.078782 511.773823 
L 286.047093 516.399156 
L 284.972351 521.02449 
L 283.794522 525.649823 
L 282.460978 530.275156 
L 280.932392 534.90049 
L 279.186692 539.525823 
L 277.220571 544.151156 
L 275.048525 548.77649 
L 272.699723 553.401823 
L 270.213367 558.027156 
L 267.633372 562.65249 
L 265.003202 567.277823 
L 262.361576 571.903156 
L 259.739483 576.52849 
L 257.158723 581.153823 
L 254.631905 585.779156 
L 252.163677 590.40449 
L 249.752867 595.029823 
L 247.395129 599.655156 
L 245.08574 604.28049 
L 242.822168 608.905823 
L 240.606086 613.531156 
L 238.444602 618.15649 
L 236.350525 622.781823 
L 234.341666 627.407156 
L 232.439291 632.03249 
L 230.665972 636.657823 
L 229.043202 641.283156 
L 227.589123 645.90849 
L 226.316714 650.533823 
L 225.232659 655.159156 
L 224.336958 659.78449 
L 223.62326 664.409823 
L 223.079717 669.035156 
L 222.690169 673.66049 
L 222.435418 678.285823 
L 222.294423 682.911156 
L 222.245313 687.53649 
L 222.266193 692.161823 
L 222.335783 696.787156 
L 222.433956 701.41249 
L 222.542236 706.037823 
L 222.644313 710.663156 
L 222.72656 715.28849 
L 222.778504 719.913823 
L 222.793193 724.539156 
z
" clip-path="url(#pefdebf4a8b)" style="fill: #f0e442"/>
   </g>
   <g id="FillBetweenPolyCollection_2">
    <path d="M 469.109739 762.698156 
L 456.439636 762.698156 
L 455.833142 758.072823 
L 455.159904 753.44749 
L 454.407767 748.822156 
L 453.564319 744.196823 
L 452.617512 739.57149 
L 451.556295 734.946156 
L 450.371227 730.320823 
L 449.055002 725.69549 
L 447.602858 721.070156 
L 446.012827 716.444823 
L 444.285815 711.81949 
L 442.425505 707.194156 
L 440.438095 702.568823 
L 438.331901 697.94349 
L 436.116869 693.318156 
L 433.804029 688.692823 
L 431.404964 684.06749 
L 428.93132 679.442156 
L 426.394424 674.816823 
L 423.805022 670.19149 
L 421.173183 665.566156 
L 418.508355 660.940823 
L 415.819577 656.31549 
L 413.115832 651.690156 
L 410.406484 647.064823 
L 407.701769 642.43949 
L 405.013287 637.814156 
L 402.354409 633.188823 
L 399.740574 628.56349 
L 397.189392 623.938156 
L 394.720522 619.312823 
L 392.355296 614.68749 
L 390.116082 610.062156 
L 388.0254 605.436823 
L 386.104836 600.81149 
L 384.373833 596.186156 
L 382.848425 591.560823 
L 381.540052 586.93549 
L 380.45453 582.310156 
L 379.591313 577.684823 
L 378.943126 573.05949 
L 378.496025 568.434156 
L 378.229928 563.808823 
L 378.119604 559.18349 
L 378.136058 554.558156 
L 378.24824 549.932823 
L 378.424945 545.30749 
L 378.636774 540.682156 
L 378.857998 536.056823 
L 379.068198 531.43149 
L 379.253551 526.806156 
L 379.407677 522.180823 
L 379.53199 517.55549 
L 379.635543 512.930156 
L 379.73439 508.304823 
L 379.850533 503.67949 
L 380.010524 499.054156 
L 380.243856 494.428823 
L 380.581223 489.80349 
L 381.052786 485.178156 
L 381.686523 480.552823 
L 382.506779 475.92749 
L 383.533042 471.302156 
L 384.779029 466.676823 
L 386.252077 462.05149 
L 387.952861 457.426156 
L 389.875422 452.800823 
L 392.007474 448.17549 
L 394.330969 443.550156 
L 396.822865 438.924823 
L 399.45605 434.29949 
L 402.20039 429.674156 
L 405.02383 425.048823 
L 407.893514 420.42349 
L 410.776885 415.798156 
L 413.642708 411.172823 
L 416.462 406.54749 
L 419.20882 401.922156 
L 421.860916 397.296823 
L 424.400183 392.67149 
L 426.812956 388.046156 
L 429.0901 383.420823 
L 431.226927 378.79549 
L 433.222941 374.170156 
L 435.081428 369.544823 
L 436.80892 364.91949 
L 438.414565 360.294156 
L 439.909436 355.668823 
L 441.305806 351.04349 
L 442.616452 346.418156 
L 443.853986 341.792823 
L 445.030274 337.16749 
L 446.155951 332.542156 
L 447.24005 327.916823 
L 448.289754 323.29149 
L 449.310282 318.666156 
L 450.304879 314.040823 
L 451.274928 309.41549 
L 452.220142 304.790156 
L 473.329233 304.790156 
L 473.329233 304.790156 
L 474.274447 309.41549 
L 475.244496 314.040823 
L 476.239093 318.666156 
L 477.259621 323.29149 
L 478.309325 327.916823 
L 479.393424 332.542156 
L 480.519101 337.16749 
L 481.695389 341.792823 
L 482.932923 346.418156 
L 484.243569 351.04349 
L 485.639939 355.668823 
L 487.13481 360.294156 
L 488.740455 364.91949 
L 490.467947 369.544823 
L 492.326434 374.170156 
L 494.322448 378.79549 
L 496.459275 383.420823 
L 498.736419 388.046156 
L 501.149192 392.67149 
L 503.688459 397.296823 
L 506.340555 401.922156 
L 509.087375 406.54749 
L 511.906667 411.172823 
L 514.77249 415.798156 
L 517.655861 420.42349 
L 520.525545 425.048823 
L 523.348985 429.674156 
L 526.093325 434.29949 
L 528.72651 438.924823 
L 531.218406 443.550156 
L 533.541901 448.17549 
L 535.673953 452.800823 
L 537.596514 457.426156 
L 539.297298 462.05149 
L 540.770346 466.676823 
L 542.016333 471.302156 
L 543.042596 475.92749 
L 543.862852 480.552823 
L 544.496589 485.178156 
L 544.968152 489.80349 
L 545.305519 494.428823 
L 545.538851 499.054156 
L 545.698842 503.67949 
L 545.814985 508.304823 
L 545.913832 512.930156 
L 546.017385 517.55549 
L 546.141698 522.180823 
L 546.295824 526.806156 
L 546.481177 531.43149 
L 546.691377 536.056823 
L 546.912601 540.682156 
L 547.12443 545.30749 
L 547.301135 549.932823 
L 547.413317 554.558156 
L 547.429771 559.18349 
L 547.319447 563.808823 
L 547.05335 568.434156 
L 546.606249 573.05949 
L 545.958062 577.684823 
L 545.094845 582.310156 
L 544.009323 586.93549 
L 542.70095 591.560823 
L 541.175542 596.186156 
L 539.444539 600.81149 
L 537.523975 605.436823 
L 535.433293 610.062156 
L 533.194079 614.68749 
L 530.828853 619.312823 
L 528.359983 623.938156 
L 525.808801 628.56349 
L 523.194966 633.188823 
L 520.536088 637.814156 
L 517.847606 642.43949 
L 515.142891 647.064823 
L 512.433543 651.690156 
L 509.729798 656.31549 
L 507.04102 660.940823 
L 504.376192 665.566156 
L 501.744353 670.19149 
L 499.154951 674.816823 
L 496.618055 679.442156 
L 494.144411 684.06749 
L 491.745346 688.692823 
L 489.432506 693.318156 
L 487.217474 697.94349 
L 485.11128 702.568823 
L 483.12387 707.194156 
L 481.26356 711.81949 
L 479.536548 716.444823 
L 477.946517 721.070156 
L 476.494373 725.69549 
L 475.178148 730.320823 
L 473.99308 734.946156 
L 472.931863 739.57149 
L 471.985056 744.196823 
L 471.141608 748.822156 
L 470.389471 753.44749 
L 469.716233 758.072823 
L 469.109739 762.698156 
z
" clip-path="url(#pefdebf4a8b)" style="fill: #0072b2"/>
   </g>
   <g id="FillBetweenPolyCollection_3">
    <path d="M 761.697074 762.698156 
L 647.595635 762.698156 
L 646.796651 755.374712 
L 646.210454 748.051267 
L 645.829524 740.727823 
L 645.642289 733.404378 
L 645.633491 726.080934 
L 645.784675 718.75749 
L 646.074751 711.434045 
L 646.480623 704.110601 
L 646.977854 696.787156 
L 647.541332 689.463712 
L 648.145926 682.140267 
L 648.767094 674.816823 
L 649.381426 667.493378 
L 649.967106 660.169934 
L 650.504279 652.84649 
L 650.975314 645.523045 
L 651.364968 638.199601 
L 651.660443 630.876156 
L 651.851361 623.552712 
L 651.929651 616.229267 
L 651.889383 608.905823 
L 651.726553 601.582378 
L 651.43885 594.258934 
L 651.025418 586.93549 
L 650.486635 579.612045 
L 649.823921 572.288601 
L 649.039599 564.965156 
L 648.136807 557.641712 
L 647.11947 550.318267 
L 645.992337 542.994823 
L 644.76107 535.671378 
L 643.432384 528.347934 
L 642.014223 521.02449 
L 640.515954 513.701045 
L 638.948564 506.377601 
L 637.324839 499.054156 
L 635.659509 491.730712 
L 633.969332 484.407267 
L 632.273116 477.083823 
L 630.591653 469.760378 
L 628.947555 462.436934 
L 627.365008 455.11349 
L 625.869415 447.790045 
L 624.486957 440.466601 
L 623.244078 433.143156 
L 622.166902 425.819712 
L 621.280612 418.496267 
L 620.608802 411.172823 
L 620.172843 403.849378 
L 619.991271 396.525934 
L 620.079231 389.20249 
L 620.448002 381.879045 
L 621.10461 374.555601 
L 622.051567 367.232156 
L 623.286716 359.908712 
L 624.803224 352.585267 
L 626.589689 345.261823 
L 628.630386 337.938378 
L 630.905619 330.614934 
L 633.392178 323.29149 
L 636.063881 315.968045 
L 638.892179 308.644601 
L 641.846803 301.321156 
L 644.896429 293.997712 
L 648.009348 286.674267 
L 651.154104 279.350823 
L 654.300106 272.027378 
L 657.41817 264.703934 
L 660.481008 257.38049 
L 663.463637 250.057045 
L 666.343705 242.733601 
L 669.101742 235.410156 
L 671.721325 228.086712 
L 674.18917 220.763267 
L 676.495147 213.439823 
L 678.632236 206.116378 
L 680.596425 198.792934 
L 682.386553 191.46949 
L 684.004118 184.146045 
L 685.453051 176.822601 
L 686.739465 169.499156 
L 687.871383 162.175712 
L 688.858455 154.852267 
L 689.711668 147.528823 
L 690.443055 140.205378 
L 691.065405 132.881934 
L 691.59198 125.55849 
L 692.036241 118.235045 
L 692.411591 110.911601 
L 692.731127 103.588156 
L 693.007423 96.264712 
L 693.252327 88.941267 
L 693.476787 81.617823 
L 693.690706 74.294378 
L 693.902822 66.970934 
L 694.12063 59.64749 
L 694.350319 52.324045 
L 694.596762 45.000601 
L 694.863519 37.677156 
L 714.42919 37.677156 
L 714.42919 37.677156 
L 714.695946 45.000601 
L 714.942389 52.324045 
L 715.172079 59.64749 
L 715.389886 66.970934 
L 715.602003 74.294378 
L 715.815921 81.617823 
L 716.040381 88.941267 
L 716.285285 96.264712 
L 716.561581 103.588156 
L 716.881118 110.911601 
L 717.256467 118.235045 
L 717.700728 125.55849 
L 718.227303 132.881934 
L 718.849653 140.205378 
L 719.58104 147.528823 
L 720.434253 154.852267 
L 721.421325 162.175712 
L 722.553243 169.499156 
L 723.839657 176.822601 
L 725.288591 184.146045 
L 726.906156 191.46949 
L 728.696283 198.792934 
L 730.660472 206.116378 
L 732.797562 213.439823 
L 735.103538 220.763267 
L 737.571383 228.086712 
L 740.190966 235.410156 
L 742.949003 242.733601 
L 745.829072 250.057045 
L 748.8117 257.38049 
L 751.874539 264.703934 
L 754.992602 272.027378 
L 758.138604 279.350823 
L 761.28336 286.674267 
L 764.396279 293.997712 
L 767.445905 301.321156 
L 770.400529 308.644601 
L 773.228827 315.968045 
L 775.90053 323.29149 
L 778.387089 330.614934 
L 780.662322 337.938378 
L 782.703019 345.261823 
L 784.489485 352.585267 
L 786.005992 359.908712 
L 787.241141 367.232156 
L 788.188098 374.555601 
L 788.844707 381.879045 
L 789.213477 389.20249 
L 789.301437 396.525934 
L 789.119865 403.849378 
L 788.683906 411.172823 
L 788.012096 418.496267 
L 787.125806 425.819712 
L 786.04863 433.143156 
L 784.805752 440.466601 
L 783.423294 447.790045 
L 781.9277 455.11349 
L 780.345153 462.436934 
L 778.701056 469.760378 
L 777.019592 477.083823 
L 775.323377 484.407267 
L 773.633199 491.730712 
L 771.967869 499.054156 
L 770.344144 506.377601 
L 768.776754 513.701045 
L 767.278485 521.02449 
L 765.860325 528.347934 
L 764.531639 535.671378 
L 763.300371 542.994823 
L 762.173238 550.318267 
L 761.155902 557.641712 
L 760.25311 564.965156 
L 759.468788 572.288601 
L 758.806074 579.612045 
L 758.26729 586.93549 
L 757.853858 594.258934 
L 757.566156 601.582378 
L 757.403326 608.905823 
L 757.363057 616.229267 
L 757.441347 623.552712 
L 757.632265 630.876156 
L 757.92774 638.199601 
L 758.317394 645.523045 
L 758.788429 652.84649 
L 759.325602 660.169934 
L 759.911282 667.493378 
L 760.525614 674.816823 
L 761.146783 682.140267 
L 761.751377 689.463712 
L 762.314855 696.787156 
L 762.812085 704.110601 
L 763.217957 711.434045 
L 763.508033 718.75749 
L 763.659217 726.080934 
L 763.65042 733.404378 
L 763.463184 740.727823 
L 763.082255 748.051267 
L 762.496057 755.374712 
L 761.697074 762.698156 
z
" clip-path="url(#pefdebf4a8b)" style="fill: #cc79a7"/>
   </g>
   <g id="matplotlib.axis_1">
    <g id="xtick_1">
     <g id="line2d_1">
      <defs>
       <path id="mb001531f98" d="M 0 0 
L 0 3.5 
" style="stroke: #000000; stroke-width: 0.8"/>
      </defs>
      <g>
       <use xlink:href="#mb001531f98" x="220.903021" y="781.777656" style="stroke: #000000; stroke-width: 0.8"/>
      </g>
     </g>
     <g id="text_1">
      <!-- Manakov22 -->
      <g transform="translate(146.266771 820.033594) scale(0.26 -0.26)">
       <defs>
        <path id="DejaVuSans-4d" d="M 628 4666 
L 1569 4666 
L 2759 1491 
L 3956 4666 
L 4897 4666 
L 4897 0 
L 4281 0 
L 4281 4097 
L 3078 897 
L 2444 897 
L 1241 4097 
L 1241 0 
L 628 0 
L 628 4666 
z
" transform="scale(0.015625)"/>
        <path id="DejaVuSans-61" d="M 2194 1759 
Q 1497 1759 1228 1600 
Q 959 1441 959 1056 
Q 959 750 1161 570 
Q 1363 391 1709 391 
Q 2188 391 2477 730 
Q 2766 1069 2766 1631 
L 2766 1759 
L 2194 1759 
z
M 3341 1997 
L 3341 0 
L 2766 0 
L 2766 531 
Q 2569 213 2275 61 
Q 1981 -91 1556 -91 
Q 1019 -91 701 211 
Q 384 513 384 1019 
Q 384 1609 779 1909 
Q 1175 2209 1959 2209 
L 2766 2209 
L 2766 2266 
Q 2766 2663 2505 2880 
Q 2244 3097 1772 3097 
Q 1472 3097 1187 3025 
Q 903 2953 641 2809 
L 641 3341 
Q 956 3463 1253 3523 
Q 1550 3584 1831 3584 
Q 2591 3584 2966 3190 
Q 3341 2797 3341 1997 
z
" transform="scale(0.015625)"/>
        <path id="DejaVuSans-6e" d="M 3513 2113 
L 3513 0 
L 2938 0 
L 2938 2094 
Q 2938 2591 2744 2837 
Q 2550 3084 2163 3084 
Q 1697 3084 1428 2787 
Q 1159 2491 1159 1978 
L 1159 0 
L 581 0 
L 581 3500 
L 1159 3500 
L 1159 2956 
Q 1366 3272 1645 3428 
Q 1925 3584 2291 3584 
Q 2894 3584 3203 3211 
Q 3513 2838 3513 2113 
z
" transform="scale(0.015625)"/>
        <path id="DejaVuSans-6b" d="M 581 4863 
L 1159 4863 
L 1159 1991 
L 2875 3500 
L 3609 3500 
L 1753 1863 
L 3688 0 
L 2938 0 
L 1159 1709 
L 1159 0 
L 581 0 
L 581 4863 
z
" transform="scale(0.015625)"/>
        <path id="DejaVuSans-6f" d="M 1959 3097 
Q 1497 3097 1228 2736 
Q 959 2375 959 1747 
Q 959 1119 1226 758 
Q 1494 397 1959 397 
Q 2419 397 2687 759 
Q 2956 1122 2956 1747 
Q 2956 2369 2687 2733 
Q 2419 3097 1959 3097 
z
M 1959 3584 
Q 2709 3584 3137 3096 
Q 3566 2609 3566 1747 
Q 3566 888 3137 398 
Q 2709 -91 1959 -91 
Q 1206 -91 779 398 
Q 353 888 353 1747 
Q 353 2609 779 3096 
Q 1206 3584 1959 3584 
z
" transform="scale(0.015625)"/>
        <path id="DejaVuSans-76" d="M 191 3500 
L 800 3500 
L 1894 563 
L 2988 3500 
L 3597 3500 
L 2284 0 
L 1503 0 
L 191 3500 
z
" transform="scale(0.015625)"/>
        <path id="DejaVuSans-32" d="M 1228 531 
L 3431 531 
L 3431 0 
L 469 0 
L 469 531 
Q 828 903 1448 1529 
Q 2069 2156 2228 2338 
Q 2531 2678 2651 2914 
Q 2772 3150 2772 3378 
Q 2772 3750 2511 3984 
Q 2250 4219 1831 4219 
Q 1534 4219 1204 4116 
Q 875 4013 500 3803 
L 500 4441 
Q 881 4594 1212 4672 
Q 1544 4750 1819 4750 
Q 2544 4750 2975 4387 
Q 3406 4025 3406 3419 
Q 3406 3131 3298 2873 
Q 3191 2616 2906 2266 
Q 2828 2175 2409 1742 
Q 1991 1309 1228 531 
z
" transform="scale(0.015625)"/>
       </defs>
       <use xlink:href="#DejaVuSans-4d"/>
       <use xlink:href="#DejaVuSans-61" transform="translate(86.279297 0)"/>
       <use xlink:href="#DejaVuSans-6e" transform="translate(147.558594 0)"/>
       <use xlink:href="#DejaVuSans-61" transform="translate(210.9375 0)"/>
       <use xlink:href="#DejaVuSans-6b" transform="translate(272.216797 0)"/>
       <use xlink:href="#DejaVuSans-6f" transform="translate(326.501953 0)"/>
       <use xlink:href="#DejaVuSans-76" transform="translate(387.683594 0)"/>
       <use xlink:href="#DejaVuSans-32" transform="translate(446.863281 0)"/>
       <use xlink:href="#DejaVuSans-32" transform="translate(510.486328 0)"/>
      </g>
     </g>
    </g>
    <g id="xtick_2">
     <g id="line2d_2">
      <g>
       <use xlink:href="#mb001531f98" x="462.774687" y="781.777656" style="stroke: #000000; stroke-width: 0.8"/>
      </g>
     </g>
     <g id="text_2">
      <!-- Hejret23 -->
      <g transform="translate(406.697969 820.033594) scale(0.26 -0.26)">
       <defs>
        <path id="DejaVuSans-48" d="M 628 4666 
L 1259 4666 
L 1259 2753 
L 3553 2753 
L 3553 4666 
L 4184 4666 
L 4184 0 
L 3553 0 
L 3553 2222 
L 1259 2222 
L 1259 0 
L 628 0 
L 628 4666 
z
" transform="scale(0.015625)"/>
        <path id="DejaVuSans-65" d="M 3597 1894 
L 3597 1613 
L 953 1613 
Q 991 1019 1311 708 
Q 1631 397 2203 397 
Q 2534 397 2845 478 
Q 3156 559 3463 722 
L 3463 178 
Q 3153 47 2828 -22 
Q 2503 -91 2169 -91 
Q 1331 -91 842 396 
Q 353 884 353 1716 
Q 353 2575 817 3079 
Q 1281 3584 2069 3584 
Q 2775 3584 3186 3129 
Q 3597 2675 3597 1894 
z
M 3022 2063 
Q 3016 2534 2758 2815 
Q 2500 3097 2075 3097 
Q 1594 3097 1305 2825 
Q 1016 2553 972 2059 
L 3022 2063 
z
" transform="scale(0.015625)"/>
        <path id="DejaVuSans-6a" d="M 603 3500 
L 1178 3500 
L 1178 -63 
Q 1178 -731 923 -1031 
Q 669 -1331 103 -1331 
L -116 -1331 
L -116 -844 
L 38 -844 
Q 366 -844 484 -692 
Q 603 -541 603 -63 
L 603 3500 
z
M 603 4863 
L 1178 4863 
L 1178 4134 
L 603 4134 
L 603 4863 
z
" transform="scale(0.015625)"/>
        <path id="DejaVuSans-72" d="M 2631 2963 
Q 2534 3019 2420 3045 
Q 2306 3072 2169 3072 
Q 1681 3072 1420 2755 
Q 1159 2438 1159 1844 
L 1159 0 
L 581 0 
L 581 3500 
L 1159 3500 
L 1159 2956 
Q 1341 3275 1631 3429 
Q 1922 3584 2338 3584 
Q 2397 3584 2469 3576 
Q 2541 3569 2628 3553 
L 2631 2963 
z
" transform="scale(0.015625)"/>
        <path id="DejaVuSans-74" d="M 1172 4494 
L 1172 3500 
L 2356 3500 
L 2356 3053 
L 1172 3053 
L 1172 1153 
Q 1172 725 1289 603 
Q 1406 481 1766 481 
L 2356 481 
L 2356 0 
L 1766 0 
Q 1100 0 847 248 
Q 594 497 594 1153 
L 594 3053 
L 172 3053 
L 172 3500 
L 594 3500 
L 594 4494 
L 1172 4494 
z
" transform="scale(0.015625)"/>
        <path id="DejaVuSans-33" d="M 2597 2516 
Q 3050 2419 3304 2112 
Q 3559 1806 3559 1356 
Q 3559 666 3084 287 
Q 2609 -91 1734 -91 
Q 1441 -91 1130 -33 
Q 819 25 488 141 
L 488 750 
Q 750 597 1062 519 
Q 1375 441 1716 441 
Q 2309 441 2620 675 
Q 2931 909 2931 1356 
Q 2931 1769 2642 2001 
Q 2353 2234 1838 2234 
L 1294 2234 
L 1294 2753 
L 1863 2753 
Q 2328 2753 2575 2939 
Q 2822 3125 2822 3475 
Q 2822 3834 2567 4026 
Q 2313 4219 1838 4219 
Q 1578 4219 1281 4162 
Q 984 4106 628 3988 
L 628 4550 
Q 988 4650 1302 4700 
Q 1616 4750 1894 4750 
Q 2613 4750 3031 4423 
Q 3450 4097 3450 3541 
Q 3450 3153 3228 2886 
Q 3006 2619 2597 2516 
z
" transform="scale(0.015625)"/>
       </defs>
       <use xlink:href="#DejaVuSans-48"/>
       <use xlink:href="#DejaVuSans-65" transform="translate(75.195312 0)"/>
       <use xlink:href="#DejaVuSans-6a" transform="translate(136.71875 0)"/>
       <use xlink:href="#DejaVuSans-72" transform="translate(164.501953 0)"/>
       <use xlink:href="#DejaVuSans-65" transform="translate(203.365234 0)"/>
       <use xlink:href="#DejaVuSans-74" transform="translate(264.888672 0)"/>
       <use xlink:href="#DejaVuSans-32" transform="translate(304.097656 0)"/>
       <use xlink:href="#DejaVuSans-33" transform="translate(367.720703 0)"/>
      </g>
     </g>
    </g>
    <g id="xtick_3">
     <g id="line2d_3">
      <g>
       <use xlink:href="#mb001531f98" x="704.646354" y="781.777656" style="stroke: #000000; stroke-width: 0.8"/>
      </g>
     </g>
     <g id="text_3">
      <!-- Klimentova22 -->
      <g transform="translate(614.743229 820.033594) scale(0.26 -0.26)">
       <defs>
        <path id="DejaVuSans-4b" d="M 628 4666 
L 1259 4666 
L 1259 2694 
L 3353 4666 
L 4166 4666 
L 1850 2491 
L 4331 0 
L 3500 0 
L 1259 2247 
L 1259 0 
L 628 0 
L 628 4666 
z
" transform="scale(0.015625)"/>
        <path id="DejaVuSans-6c" d="M 603 4863 
L 1178 4863 
L 1178 0 
L 603 0 
L 603 4863 
z
" transform="scale(0.015625)"/>
        <path id="DejaVuSans-69" d="M 603 3500 
L 1178 3500 
L 1178 0 
L 603 0 
L 603 3500 
z
M 603 4863 
L 1178 4863 
L 1178 4134 
L 603 4134 
L 603 4863 
z
" transform="scale(0.015625)"/>
        <path id="DejaVuSans-6d" d="M 3328 2828 
Q 3544 3216 3844 3400 
Q 4144 3584 4550 3584 
Q 5097 3584 5394 3201 
Q 5691 2819 5691 2113 
L 5691 0 
L 5113 0 
L 5113 2094 
Q 5113 2597 4934 2840 
Q 4756 3084 4391 3084 
Q 3944 3084 3684 2787 
Q 3425 2491 3425 1978 
L 3425 0 
L 2847 0 
L 2847 2094 
Q 2847 2600 2669 2842 
Q 2491 3084 2119 3084 
Q 1678 3084 1418 2786 
Q 1159 2488 1159 1978 
L 1159 0 
L 581 0 
L 581 3500 
L 1159 3500 
L 1159 2956 
Q 1356 3278 1631 3431 
Q 1906 3584 2284 3584 
Q 2666 3584 2933 3390 
Q 3200 3197 3328 2828 
z
" transform="scale(0.015625)"/>
       </defs>
       <use xlink:href="#DejaVuSans-4b"/>
       <use xlink:href="#DejaVuSans-6c" transform="translate(65.576172 0)"/>
       <use xlink:href="#DejaVuSans-69" transform="translate(93.359375 0)"/>
       <use xlink:href="#DejaVuSans-6d" transform="translate(121.142578 0)"/>
       <use xlink:href="#DejaVuSans-65" transform="translate(218.554688 0)"/>
       <use xlink:href="#DejaVuSans-6e" transform="translate(280.078125 0)"/>
       <use xlink:href="#DejaVuSans-74" transform="translate(343.457031 0)"/>
       <use xlink:href="#DejaVuSans-6f" transform="translate(382.666016 0)"/>
       <use xlink:href="#DejaVuSans-76" transform="translate(443.847656 0)"/>
       <use xlink:href="#DejaVuSans-61" transform="translate(503.027344 0)"/>
       <use xlink:href="#DejaVuSans-32" transform="translate(564.306641 0)"/>
       <use xlink:href="#DejaVuSans-32" transform="translate(627.929688 0)"/>
      </g>
     </g>
    </g>
   </g>
   <g id="matplotlib.axis_2">
    <g id="ytick_1">
     <g id="line2d_4">
      <path d="M 99.967187 781.777656 
L 825.582187 781.777656 
" clip-path="url(#pefdebf4a8b)" style="fill: none; stroke-dasharray: 0.8,1.32; stroke-dashoffset: 0; stroke: #000000; stroke-opacity: 0.8; stroke-width: 0.8"/>
     </g>
     <g id="line2d_5">
      <defs>
       <path id="m692a4a3f53" d="M 0 0 
L -3.5 0 
" style="stroke: #000000; stroke-width: 0.8"/>
      </defs>
      <g>
       <use xlink:href="#m692a4a3f53" x="99.967187" y="781.777656" style="stroke: #000000; stroke-width: 0.8"/>
      </g>
     </g>
     <g id="text_4">
      <!-- 0% -->
      <g transform="translate(45.375 793.175312) scale(0.3 -0.3)">
       <defs>
        <path id="DejaVuSans-30" d="M 2034 4250 
Q 1547 4250 1301 3770 
Q 1056 3291 1056 2328 
Q 1056 1369 1301 889 
Q 1547 409 2034 409 
Q 2525 409 2770 889 
Q 3016 1369 3016 2328 
Q 3016 3291 2770 3770 
Q 2525 4250 2034 4250 
z
M 2034 4750 
Q 2819 4750 3233 4129 
Q 3647 3509 3647 2328 
Q 3647 1150 3233 529 
Q 2819 -91 2034 -91 
Q 1250 -91 836 529 
Q 422 1150 422 2328 
Q 422 3509 836 4129 
Q 1250 4750 2034 4750 
z
" transform="scale(0.015625)"/>
        <path id="DejaVuSans-25" d="M 4653 2053 
Q 4381 2053 4226 1822 
Q 4072 1591 4072 1178 
Q 4072 772 4226 539 
Q 4381 306 4653 306 
Q 4919 306 5073 539 
Q 5228 772 5228 1178 
Q 5228 1588 5073 1820 
Q 4919 2053 4653 2053 
z
M 4653 2450 
Q 5147 2450 5437 2106 
Q 5728 1763 5728 1178 
Q 5728 594 5436 251 
Q 5144 -91 4653 -91 
Q 4153 -91 3862 251 
Q 3572 594 3572 1178 
Q 3572 1766 3864 2108 
Q 4156 2450 4653 2450 
z
M 1428 4353 
Q 1159 4353 1004 4120 
Q 850 3888 850 3481 
Q 850 3069 1003 2837 
Q 1156 2606 1428 2606 
Q 1700 2606 1854 2837 
Q 2009 3069 2009 3481 
Q 2009 3884 1853 4118 
Q 1697 4353 1428 4353 
z
M 4250 4750 
L 4750 4750 
L 1831 -91 
L 1331 -91 
L 4250 4750 
z
M 1428 4750 
Q 1922 4750 2215 4408 
Q 2509 4066 2509 3481 
Q 2509 2891 2217 2550 
Q 1925 2209 1428 2209 
Q 931 2209 642 2551 
Q 353 2894 353 3481 
Q 353 4063 643 4406 
Q 934 4750 1428 4750 
z
" transform="scale(0.015625)"/>
       </defs>
       <use xlink:href="#DejaVuSans-30"/>
       <use xlink:href="#DejaVuSans-25" transform="translate(63.623047 0)"/>
      </g>
     </g>
    </g>
    <g id="ytick_2">
     <g id="line2d_6">
      <path d="M 99.967187 705.459656 
L 825.582187 705.459656 
" clip-path="url(#pefdebf4a8b)" style="fill: none; stroke-dasharray: 0.8,1.32; stroke-dashoffset: 0; stroke: #000000; stroke-opacity: 0.8; stroke-width: 0.8"/>
     </g>
     <g id="line2d_7">
      <g>
       <use xlink:href="#m692a4a3f53" x="99.967187" y="705.459656" style="stroke: #000000; stroke-width: 0.8"/>
      </g>
     </g>
    </g>
    <g id="ytick_3">
     <g id="line2d_8">
      <path d="M 99.967187 629.141656 
L 825.582187 629.141656 
" clip-path="url(#pefdebf4a8b)" style="fill: none; stroke-dasharray: 0.8,1.32; stroke-dashoffset: 0; stroke: #000000; stroke-opacity: 0.8; stroke-width: 0.8"/>
     </g>
     <g id="line2d_9">
      <g>
       <use xlink:href="#m692a4a3f53" x="99.967187" y="629.141656" style="stroke: #000000; stroke-width: 0.8"/>
      </g>
     </g>
     <g id="text_5">
      <!-- 20% -->
      <g transform="translate(26.2875 640.539312) scale(0.3 -0.3)">
       <use xlink:href="#DejaVuSans-32"/>
       <use xlink:href="#DejaVuSans-30" transform="translate(63.623047 0)"/>
       <use xlink:href="#DejaVuSans-25" transform="translate(127.246094 0)"/>
      </g>
     </g>
    </g>
    <g id="ytick_4">
     <g id="line2d_10">
      <path d="M 99.967187 552.823656 
L 825.582187 552.823656 
" clip-path="url(#pefdebf4a8b)" style="fill: none; stroke-dasharray: 0.8,1.32; stroke-dashoffset: 0; stroke: #000000; stroke-opacity: 0.8; stroke-width: 0.8"/>
     </g>
     <g id="line2d_11">
      <g>
       <use xlink:href="#m692a4a3f53" x="99.967187" y="552.823656" style="stroke: #000000; stroke-width: 0.8"/>
      </g>
     </g>
    </g>
    <g id="ytick_5">
     <g id="line2d_12">
      <path d="M 99.967187 476.505656 
L 825.582187 476.505656 
" clip-path="url(#pefdebf4a8b)" style="fill: none; stroke-dasharray: 0.8,1.32; stroke-dashoffset: 0; stroke: #000000; stroke-opacity: 0.8; stroke-width: 0.8"/>
     </g>
     <g id="line2d_13">
      <g>
       <use xlink:href="#m692a4a3f53" x="99.967187" y="476.505656" style="stroke: #000000; stroke-width: 0.8"/>
      </g>
     </g>
     <g id="text_6">
      <!-- 40% -->
      <g transform="translate(26.2875 487.903312) scale(0.3 -0.3)">
       <defs>
        <path id="DejaVuSans-34" d="M 2419 4116 
L 825 1625 
L 2419 1625 
L 2419 4116 
z
M 2253 4666 
L 3047 4666 
L 3047 1625 
L 3713 1625 
L 3713 1100 
L 3047 1100 
L 3047 0 
L 2419 0 
L 2419 1100 
L 313 1100 
L 313 1709 
L 2253 4666 
z
" transform="scale(0.015625)"/>
       </defs>
       <use xlink:href="#DejaVuSans-34"/>
       <use xlink:href="#DejaVuSans-30" transform="translate(63.623047 0)"/>
       <use xlink:href="#DejaVuSans-25" transform="translate(127.246094 0)"/>
      </g>
     </g>
    </g>
    <g id="ytick_6">
     <g id="line2d_14">
      <path d="M 99.967187 400.187656 
L 825.582187 400.187656 
" clip-path="url(#pefdebf4a8b)" style="fill: none; stroke-dasharray: 0.8,1.32; stroke-dashoffset: 0; stroke: #000000; stroke-opacity: 0.8; stroke-width: 0.8"/>
     </g>
     <g id="line2d_15">
      <g>
       <use xlink:href="#m692a4a3f53" x="99.967187" y="400.187656" style="stroke: #000000; stroke-width: 0.8"/>
      </g>
     </g>
    </g>
    <g id="ytick_7">
     <g id="line2d_16">
      <path d="M 99.967187 323.869656 
L 825.582187 323.869656 
" clip-path="url(#pefdebf4a8b)" style="fill: none; stroke-dasharray: 0.8,1.32; stroke-dashoffset: 0; stroke: #000000; stroke-opacity: 0.8; stroke-width: 0.8"/>
     </g>
     <g id="line2d_17">
      <g>
       <use xlink:href="#m692a4a3f53" x="99.967187" y="323.869656" style="stroke: #000000; stroke-width: 0.8"/>
      </g>
     </g>
     <g id="text_7">
      <!-- 60% -->
      <g transform="translate(26.2875 335.267312) scale(0.3 -0.3)">
       <defs>
        <path id="DejaVuSans-36" d="M 2113 2584 
Q 1688 2584 1439 2293 
Q 1191 2003 1191 1497 
Q 1191 994 1439 701 
Q 1688 409 2113 409 
Q 2538 409 2786 701 
Q 3034 994 3034 1497 
Q 3034 2003 2786 2293 
Q 2538 2584 2113 2584 
z
M 3366 4563 
L 3366 3988 
Q 3128 4100 2886 4159 
Q 2644 4219 2406 4219 
Q 1781 4219 1451 3797 
Q 1122 3375 1075 2522 
Q 1259 2794 1537 2939 
Q 1816 3084 2150 3084 
Q 2853 3084 3261 2657 
Q 3669 2231 3669 1497 
Q 3669 778 3244 343 
Q 2819 -91 2113 -91 
Q 1303 -91 875 529 
Q 447 1150 447 2328 
Q 447 3434 972 4092 
Q 1497 4750 2381 4750 
Q 2619 4750 2861 4703 
Q 3103 4656 3366 4563 
z
" transform="scale(0.015625)"/>
       </defs>
       <use xlink:href="#DejaVuSans-36"/>
       <use xlink:href="#DejaVuSans-30" transform="translate(63.623047 0)"/>
       <use xlink:href="#DejaVuSans-25" transform="translate(127.246094 0)"/>
      </g>
     </g>
    </g>
    <g id="ytick_8">
     <g id="line2d_18">
      <path d="M 99.967187 247.551656 
L 825.582187 247.551656 
" clip-path="url(#pefdebf4a8b)" style="fill: none; stroke-dasharray: 0.8,1.32; stroke-dashoffset: 0; stroke: #000000; stroke-opacity: 0.8; stroke-width: 0.8"/>
     </g>
     <g id="line2d_19">
      <g>
       <use xlink:href="#m692a4a3f53" x="99.967187" y="247.551656" style="stroke: #000000; stroke-width: 0.8"/>
      </g>
     </g>
    </g>
    <g id="ytick_9">
     <g id="line2d_20">
      <path d="M 99.967187 171.233656 
L 825.582187 171.233656 
" clip-path="url(#pefdebf4a8b)" style="fill: none; stroke-dasharray: 0.8,1.32; stroke-dashoffset: 0; stroke: #000000; stroke-opacity: 0.8; stroke-width: 0.8"/>
     </g>
     <g id="line2d_21">
      <g>
       <use xlink:href="#m692a4a3f53" x="99.967187" y="171.233656" style="stroke: #000000; stroke-width: 0.8"/>
      </g>
     </g>
     <g id="text_8">
      <!-- 80% -->
      <g transform="translate(26.2875 182.631312) scale(0.3 -0.3)">
       <defs>
        <path id="DejaVuSans-38" d="M 2034 2216 
Q 1584 2216 1326 1975 
Q 1069 1734 1069 1313 
Q 1069 891 1326 650 
Q 1584 409 2034 409 
Q 2484 409 2743 651 
Q 3003 894 3003 1313 
Q 3003 1734 2745 1975 
Q 2488 2216 2034 2216 
z
M 1403 2484 
Q 997 2584 770 2862 
Q 544 3141 544 3541 
Q 544 4100 942 4425 
Q 1341 4750 2034 4750 
Q 2731 4750 3128 4425 
Q 3525 4100 3525 3541 
Q 3525 3141 3298 2862 
Q 3072 2584 2669 2484 
Q 3125 2378 3379 2068 
Q 3634 1759 3634 1313 
Q 3634 634 3220 271 
Q 2806 -91 2034 -91 
Q 1263 -91 848 271 
Q 434 634 434 1313 
Q 434 1759 690 2068 
Q 947 2378 1403 2484 
z
M 1172 3481 
Q 1172 3119 1398 2916 
Q 1625 2713 2034 2713 
Q 2441 2713 2670 2916 
Q 2900 3119 2900 3481 
Q 2900 3844 2670 4047 
Q 2441 4250 2034 4250 
Q 1625 4250 1398 4047 
Q 1172 3844 1172 3481 
z
" transform="scale(0.015625)"/>
       </defs>
       <use xlink:href="#DejaVuSans-38"/>
       <use xlink:href="#DejaVuSans-30" transform="translate(63.623047 0)"/>
       <use xlink:href="#DejaVuSans-25" transform="translate(127.246094 0)"/>
      </g>
     </g>
    </g>
    <g id="ytick_10">
     <g id="line2d_22">
      <path d="M 99.967187 94.915656 
L 825.582187 94.915656 
" clip-path="url(#pefdebf4a8b)" style="fill: none; stroke-dasharray: 0.8,1.32; stroke-dashoffset: 0; stroke: #000000; stroke-opacity: 0.8; stroke-width: 0.8"/>
     </g>
     <g id="line2d_23">
      <g>
       <use xlink:href="#m692a4a3f53" x="99.967187" y="94.915656" style="stroke: #000000; stroke-width: 0.8"/>
      </g>
     </g>
    </g>
    <g id="ytick_11">
     <g id="line2d_24">
      <path d="M 99.967187 18.597656 
L 825.582187 18.597656 
" clip-path="url(#pefdebf4a8b)" style="fill: none; stroke-dasharray: 0.8,1.32; stroke-dashoffset: 0; stroke: #000000; stroke-opacity: 0.8; stroke-width: 0.8"/>
     </g>
     <g id="line2d_25">
      <g>
       <use xlink:href="#m692a4a3f53" x="99.967187" y="18.597656" style="stroke: #000000; stroke-width: 0.8"/>
      </g>
     </g>
     <g id="text_9">
      <!-- 100% -->
      <g transform="translate(7.2 29.995312) scale(0.3 -0.3)">
       <defs>
        <path id="DejaVuSans-31" d="M 794 531 
L 1825 531 
L 1825 4091 
L 703 3866 
L 703 4441 
L 1819 4666 
L 2450 4666 
L 2450 531 
L 3481 531 
L 3481 0 
L 794 0 
L 794 531 
z
" transform="scale(0.015625)"/>
       </defs>
       <use xlink:href="#DejaVuSans-31"/>
       <use xlink:href="#DejaVuSans-30" transform="translate(63.623047 0)"/>
       <use xlink:href="#DejaVuSans-30" transform="translate(127.246094 0)"/>
       <use xlink:href="#DejaVuSans-25" transform="translate(190.869141 0)"/>
      </g>
     </g>
    </g>
   </g>
   <g id="LineCollection_1">
    <path d="M 136.247937 457.426156 
L 305.558104 457.426156 
" clip-path="url(#pefdebf4a8b)" style="fill: none; stroke: #000000; stroke-width: 1.5"/>
   </g>
   <g id="LineCollection_2">
    <path d="M 378.119604 533.744156 
L 547.429771 533.744156 
" clip-path="url(#pefdebf4a8b)" style="fill: none; stroke: #000000; stroke-width: 1.5"/>
   </g>
   <g id="LineCollection_3">
    <path d="M 619.991271 457.426156 
L 789.301437 457.426156 
" clip-path="url(#pefdebf4a8b)" style="fill: none; stroke: #000000; stroke-width: 1.5"/>
   </g>
   <g id="patch_3">
    <path d="M 99.967187 781.777656 
L 99.967187 18.597656 
" style="fill: none; stroke: #000000; stroke-linejoin: miter; stroke-linecap: square"/>
   </g>
   <g id="patch_4">
    <path d="M 99.967187 781.777656 
L 825.582187 781.777656 
" style="fill: none; stroke: #000000; stroke-linejoin: miter; stroke-linecap: square"/>
   </g>
  </g>
 </g>
 <defs>
  <clipPath id="pefdebf4a8b">
   <rect x="99.967187" y="18.597656" width="725.615" height="763.18"/>
  </clipPath>
 </defs>
</svg>
