<?xml version="1.0" encoding="utf-8" standalone="no"?>
<!DOCTYPE svg PUBLIC "-//W3C//DTD SVG 1.1//EN"
  "http://www.w3.org/Graphics/SVG/1.1/DTD/svg11.dtd">
<svg xmlns:xlink="http://www.w3.org/1999/xlink" width="832.827188pt" height="832.520781pt" viewBox="0 0 832.827188 832.520781" xmlns="http://www.w3.org/2000/svg" version="1.1">
 <metadata>
  <rdf:RDF xmlns:dc="http://purl.org/dc/elements/1.1/" xmlns:cc="http://creativecommons.org/ns#" xmlns:rdf="http://www.w3.org/1999/02/22-rdf-syntax-ns#">
   <cc:Work>
    <dc:type rdf:resource="http://purl.org/dc/dcmitype/StillImage"/>
    <dc:date>2024-10-29T14:01:50.217790</dc:date>
    <dc:format>image/svg+xml</dc:format>
    <dc:creator>
     <cc:Agent>
      <dc:title>Matplotlib v3.9.2, https://matplotlib.org/</dc:title>
     </cc:Agent>
    </dc:creator>
   </cc:Work>
  </rdf:RDF>
 </metadata>
 <defs>
  <style type="text/css">*{stroke-linejoin: round; stroke-linecap: butt}</style>
 </defs>
 <g id="figure_1">
  <g id="patch_1">
   <path d="M -0 832.520781 
L 832.827188 832.520781 
L 832.827188 0 
L -0 0 
z
" style="fill: #ffffff"/>
  </g>
  <g id="axes_1">
   <g id="patch_2">
    <path d="M 99.967187 781.657656 
L 825.627187 781.657656 
L 825.627187 18.597656 
L 99.967187 18.597656 
z
" style="fill: #ffffff"/>
   </g>
   <g id="PolyCollection_1">
    <defs>
     <path id="ma0c5503dfc" d="M 224.423403 -108.092625 
L 217.397638 -108.092625 
L 217.386051 -112.717231 
L 217.427096 -117.341837 
L 217.509204 -121.966443 
L 217.616258 -126.591049 
L 217.728606 -131.215655 
L 217.824291 -135.840261 
L 217.880358 -140.464867 
L 217.874075 -145.089473 
L 217.783977 -149.71408 
L 217.590642 -154.338686 
L 217.277227 -158.963292 
L 216.82976 -163.587898 
L 216.237283 -168.212504 
L 215.491883 -172.83711 
L 214.58867 -177.461716 
L 213.525722 -182.086322 
L 212.303978 -186.710928 
L 210.92706 -191.335534 
L 209.400997 -195.96014 
L 207.73383 -200.584746 
L 205.935137 -205.209352 
L 204.015494 -209.833958 
L 201.985987 -214.458564 
L 199.857809 -219.08317 
L 197.642045 -223.707777 
L 195.349652 -228.332383 
L 192.991648 -232.956989 
L 190.579472 -237.581595 
L 188.125453 -242.206201 
L 185.64332 -246.830807 
L 183.148668 -251.455413 
L 180.659296 -256.080019 
L 178.195308 -260.704625 
L 175.778891 -265.329231 
L 173.433653 -269.953837 
L 171.183455 -274.578443 
L 169.050729 -279.203049 
L 167.054368 -283.827655 
L 165.207403 -288.452261 
L 163.514764 -293.076867 
L 161.971532 -297.701473 
L 160.562063 -302.32608 
L 159.2603 -306.950686 
L 158.031441 -311.575292 
L 156.834927 -316.199898 
L 155.628498 -320.824504 
L 154.372879 -325.44911 
L 153.036534 -330.073716 
L 151.599855 -334.698322 
L 150.058221 -339.322928 
L 148.423459 -343.947534 
L 146.723442 -348.57214 
L 144.999814 -353.196746 
L 143.30406 -357.821352 
L 141.692425 -362.445958 
L 140.220336 -367.070564 
L 138.937093 -371.69517 
L 137.881568 -376.319777 
L 137.079474 -380.944383 
L 136.542571 -385.568989 
L 136.269813 -390.193595 
L 136.250187 -394.818201 
L 136.466737 -399.442807 
L 136.901105 -404.067413 
L 137.537912 -408.692019 
L 138.36833 -413.316625 
L 139.392353 -417.941231 
L 140.619458 -422.565837 
L 142.067529 -427.190443 
L 143.760171 -431.815049 
L 145.722705 -436.439655 
L 147.977365 -441.064261 
L 150.538307 -445.688867 
L 153.407163 -450.313473 
L 156.569811 -454.93808 
L 159.994899 -459.562686 
L 163.634415 -464.187292 
L 167.426309 -468.811898 
L 171.298815 -473.436504 
L 175.175906 -478.06111 
L 178.983108 -482.685716 
L 182.65293 -487.310322 
L 186.129239 -491.934928 
L 189.370161 -496.559534 
L 192.349307 -501.18414 
L 195.055425 -505.808746 
L 197.490757 -510.433352 
L 199.668494 -515.057958 
L 201.609786 -519.682564 
L 203.340703 -524.30717 
L 204.889469 -528.931777 
L 206.28418 -533.556383 
L 207.55109 -538.180989 
L 208.713473 -542.805595 
L 209.790993 -547.430201 
L 210.799465 -552.054807 
L 211.750906 -556.679413 
L 212.65377 -561.304019 
L 213.513292 -565.928625 
L 228.307749 -565.928625 
L 228.307749 -565.928625 
L 229.167271 -561.304019 
L 230.070135 -556.679413 
L 231.021577 -552.054807 
L 232.030049 -547.430201 
L 233.107569 -542.805595 
L 234.269952 -538.180989 
L 235.536862 -533.556383 
L 236.931572 -528.931777 
L 238.480339 -524.30717 
L 240.211255 -519.682564 
L 242.152547 -515.057958 
L 244.330285 -510.433352 
L 246.765617 -505.808746 
L 249.471735 -501.18414 
L 252.45088 -496.559534 
L 255.691802 -491.934928 
L 259.168112 -487.310322 
L 262.837933 -482.685716 
L 266.645135 -478.06111 
L 270.522226 -473.436504 
L 274.394733 -468.811898 
L 278.186626 -464.187292 
L 281.826143 -459.562686 
L 285.25123 -454.93808 
L 288.413879 -450.313473 
L 291.282735 -445.688867 
L 293.843676 -441.064261 
L 296.098336 -436.439655 
L 298.060871 -431.815049 
L 299.753512 -427.190443 
L 301.201583 -422.565837 
L 302.428688 -417.941231 
L 303.452712 -413.316625 
L 304.283129 -408.692019 
L 304.919936 -404.067413 
L 305.354304 -399.442807 
L 305.570854 -394.818201 
L 305.551229 -390.193595 
L 305.27847 -385.568989 
L 304.741568 -380.944383 
L 303.939474 -376.319777 
L 302.883948 -371.69517 
L 301.600706 -367.070564 
L 300.128616 -362.445958 
L 298.516981 -357.821352 
L 296.821227 -353.196746 
L 295.097599 -348.57214 
L 293.397583 -343.947534 
L 291.76282 -339.322928 
L 290.221187 -334.698322 
L 288.784508 -330.073716 
L 287.448163 -325.44911 
L 286.192544 -320.824504 
L 284.986114 -316.199898 
L 283.789601 -311.575292 
L 282.560742 -306.950686 
L 281.258979 -302.32608 
L 279.84951 -297.701473 
L 278.306278 -293.076867 
L 276.613639 -288.452261 
L 274.766674 -283.827655 
L 272.770313 -279.203049 
L 270.637586 -274.578443 
L 268.387388 -269.953837 
L 266.04215 -265.329231 
L 263.625734 -260.704625 
L 261.161746 -256.080019 
L 258.672373 -251.455413 
L 256.177722 -246.830807 
L 253.695589 -242.206201 
L 251.241569 -237.581595 
L 248.829393 -232.956989 
L 246.47139 -228.332383 
L 244.178997 -223.707777 
L 241.963233 -219.08317 
L 239.835055 -214.458564 
L 237.805547 -209.833958 
L 235.885905 -205.209352 
L 234.087211 -200.584746 
L 232.420045 -195.96014 
L 230.893981 -191.335534 
L 229.517063 -186.710928 
L 228.295319 -182.086322 
L 227.232372 -177.461716 
L 226.329159 -172.83711 
L 225.583758 -168.212504 
L 224.991282 -163.587898 
L 224.543815 -158.963292 
L 224.2304 -154.338686 
L 224.037065 -149.71408 
L 223.946966 -145.089473 
L 223.940684 -140.464867 
L 223.99675 -135.840261 
L 224.092436 -131.215655 
L 224.204784 -126.591049 
L 224.311838 -121.966443 
L 224.393945 -117.341837 
L 224.434991 -112.717231 
L 224.423403 -108.092625 
z
" style="stroke: #000000; stroke-width: 1.5"/>
    </defs>
    <g clip-path="url(#pc02dc8f596)">
     <use xlink:href="#ma0c5503dfc" x="0" y="832.520781" style="fill: #f0e442; stroke: #000000; stroke-width: 1.5"/>
    </g>
   </g>
   <g id="PolyCollection_2">
    <defs>
     <path id="mc560299a92" d="M 471.237651 -69.939625 
L 454.356724 -69.939625 
L 453.563328 -74.564231 
L 452.724865 -79.188837 
L 451.838002 -83.813443 
L 450.89913 -88.438049 
L 449.904543 -93.062655 
L 448.850624 -97.687261 
L 447.734016 -102.311867 
L 446.551754 -106.936473 
L 445.301349 -111.56108 
L 443.98081 -116.185686 
L 442.58861 -120.810292 
L 441.123589 -125.434898 
L 439.584825 -130.059504 
L 437.971485 -134.68411 
L 436.28268 -139.308716 
L 434.517361 -143.933322 
L 432.674269 -148.557928 
L 430.751971 -153.182534 
L 428.748992 -157.80714 
L 426.664053 -162.431746 
L 424.496398 -167.056352 
L 422.246218 -171.680958 
L 419.915121 -176.305564 
L 417.506631 -180.93017 
L 415.026682 -185.554777 
L 412.48404 -190.179383 
L 409.890632 -194.803989 
L 407.261729 -199.428595 
L 404.61595 -204.053201 
L 401.975054 -208.677807 
L 399.363517 -213.302413 
L 396.80788 -217.927019 
L 394.335894 -222.551625 
L 391.975489 -227.176231 
L 389.753626 -231.800837 
L 387.695082 -236.425443 
L 385.821265 -241.050049 
L 384.149128 -245.674655 
L 382.690264 -250.299261 
L 381.450277 -254.923867 
L 380.428466 -259.548473 
L 379.617883 -264.17308 
L 379.005767 -268.797686 
L 378.574351 -273.422292 
L 378.301986 -278.046898 
L 378.164523 -282.671504 
L 378.136854 -287.29611 
L 378.194507 -291.920716 
L 378.315186 -296.545322 
L 378.480147 -301.169928 
L 378.675326 -305.794534 
L 378.892129 -310.41914 
L 379.127858 -315.043746 
L 379.385747 -319.668352 
L 379.674616 -324.292958 
L 380.008186 -328.917564 
L 380.404109 -333.54217 
L 380.882791 -338.166777 
L 381.466079 -342.791383 
L 382.175907 -347.415989 
L 383.03297 -352.040595 
L 384.0555 -356.665201 
L 385.258211 -361.289807 
L 386.651443 -365.914413 
L 388.240546 -370.539019 
L 390.025522 -375.163625 
L 392.000917 -379.788231 
L 394.155968 -384.412837 
L 396.474967 -389.037443 
L 398.937835 -393.662049 
L 401.520848 -398.286655 
L 404.197499 -402.911261 
L 406.939435 -407.535867 
L 409.717435 -412.160473 
L 412.502383 -416.78508 
L 415.266208 -421.409686 
L 417.982735 -426.034292 
L 420.628431 -430.658898 
L 423.183019 -435.283504 
L 425.629933 -439.90811 
L 427.956604 -444.532716 
L 430.15458 -449.157322 
L 432.219469 -453.781928 
L 434.150726 -458.406534 
L 435.951294 -463.03114 
L 437.627123 -467.655746 
L 439.186606 -472.280352 
L 440.639938 -476.904958 
L 441.998468 -481.529564 
L 443.274046 -486.15417 
L 444.478413 -490.778777 
L 445.622659 -495.403383 
L 446.71677 -500.027989 
L 447.769279 -504.652595 
L 448.787028 -509.277201 
L 449.775054 -513.901807 
L 450.736572 -518.526413 
L 451.673071 -523.151019 
L 452.584478 -527.775625 
L 473.009897 -527.775625 
L 473.009897 -527.775625 
L 473.921304 -523.151019 
L 474.857803 -518.526413 
L 475.819321 -513.901807 
L 476.807347 -509.277201 
L 477.825096 -504.652595 
L 478.877605 -500.027989 
L 479.971716 -495.403383 
L 481.115962 -490.778777 
L 482.320329 -486.15417 
L 483.595907 -481.529564 
L 484.954437 -476.904958 
L 486.407769 -472.280352 
L 487.967252 -467.655746 
L 489.643081 -463.03114 
L 491.443649 -458.406534 
L 493.374906 -453.781928 
L 495.439795 -449.157322 
L 497.637771 -444.532716 
L 499.964442 -439.90811 
L 502.411356 -435.283504 
L 504.965944 -430.658898 
L 507.61164 -426.034292 
L 510.328167 -421.409686 
L 513.091992 -416.78508 
L 515.87694 -412.160473 
L 518.65494 -407.535867 
L 521.396876 -402.911261 
L 524.073527 -398.286655 
L 526.65654 -393.662049 
L 529.119408 -389.037443 
L 531.438407 -384.412837 
L 533.593458 -379.788231 
L 535.568853 -375.163625 
L 537.353829 -370.539019 
L 538.942932 -365.914413 
L 540.336164 -361.289807 
L 541.538875 -356.665201 
L 542.561405 -352.040595 
L 543.418468 -347.415989 
L 544.128296 -342.791383 
L 544.711584 -338.166777 
L 545.190266 -333.54217 
L 545.586189 -328.917564 
L 545.919759 -324.292958 
L 546.208628 -319.668352 
L 546.466517 -315.043746 
L 546.702246 -310.41914 
L 546.919049 -305.794534 
L 547.114228 -301.169928 
L 547.279189 -296.545322 
L 547.399868 -291.920716 
L 547.457521 -287.29611 
L 547.429852 -282.671504 
L 547.292389 -278.046898 
L 547.020024 -273.422292 
L 546.588608 -268.797686 
L 545.976492 -264.17308 
L 545.165909 -259.548473 
L 544.144098 -254.923867 
L 542.904111 -250.299261 
L 541.445247 -245.674655 
L 539.77311 -241.050049 
L 537.899293 -236.425443 
L 535.840749 -231.800837 
L 533.618886 -227.176231 
L 531.258481 -222.551625 
L 528.786495 -217.927019 
L 526.230858 -213.302413 
L 523.619321 -208.677807 
L 520.978425 -204.053201 
L 518.332646 -199.428595 
L 515.703743 -194.803989 
L 513.110335 -190.179383 
L 510.567693 -185.554777 
L 508.087744 -180.93017 
L 505.679254 -176.305564 
L 503.348157 -171.680958 
L 501.097977 -167.056352 
L 498.930322 -162.431746 
L 496.845383 -157.80714 
L 494.842404 -153.182534 
L 492.920106 -148.557928 
L 491.077014 -143.933322 
L 489.311695 -139.308716 
L 487.62289 -134.68411 
L 486.00955 -130.059504 
L 484.470786 -125.434898 
L 483.005765 -120.810292 
L 481.613565 -116.185686 
L 480.293026 -111.56108 
L 479.042621 -106.936473 
L 477.860359 -102.311867 
L 476.743751 -97.687261 
L 475.689832 -93.062655 
L 474.695245 -88.438049 
L 473.756373 -83.813443 
L 472.86951 -79.188837 
L 472.031047 -74.564231 
L 471.237651 -69.939625 
z
" style="stroke: #000000; stroke-width: 1.5"/>
    </defs>
    <g clip-path="url(#pc02dc8f596)">
     <use xlink:href="#mc560299a92" x="0" y="832.520781" style="fill: #0072b2; stroke: #000000; stroke-width: 1.5"/>
    </g>
   </g>
   <g id="PolyCollection_3">
    <defs>
     <path id="m47e72192d4" d="M 763.205381 -69.939625 
L 646.162327 -69.939625 
L 645.345093 -77.261918 
L 644.737573 -84.584211 
L 644.330349 -91.906504 
L 644.11005 -99.228797 
L 644.059829 -106.55109 
L 644.15994 -113.873383 
L 644.388384 -121.195676 
L 644.721613 -128.517968 
L 645.135245 -135.840261 
L 645.604765 -143.162554 
L 646.106186 -150.484847 
L 646.616639 -157.80714 
L 647.114877 -165.129433 
L 647.58167 -172.451726 
L 648.000085 -179.774019 
L 648.355647 -187.096312 
L 648.636389 -194.418605 
L 648.832787 -201.740898 
L 648.937606 -209.063191 
L 648.945675 -216.385484 
L 648.853609 -223.707777 
L 648.659497 -231.030069 
L 648.362593 -238.352362 
L 647.963022 -245.674655 
L 647.461529 -252.996948 
L 646.85928 -260.319241 
L 646.157735 -267.641534 
L 645.358602 -274.963827 
L 644.463871 -282.28612 
L 643.47592 -289.608413 
L 642.397704 -296.930706 
L 641.232984 -304.252999 
L 639.986616 -311.575292 
L 638.664842 -318.897585 
L 637.275594 -326.219878 
L 635.828762 -333.54217 
L 634.336422 -340.864463 
L 632.812992 -348.186756 
L 631.275303 -355.509049 
L 629.742571 -362.831342 
L 628.236256 -370.153635 
L 626.77981 -377.475928 
L 625.398315 -384.798221 
L 624.118009 -392.120514 
L 622.965733 -399.442807 
L 621.968299 -406.7651 
L 621.151806 -414.087393 
L 620.540936 -421.409686 
L 620.15825 -428.731979 
L 620.023521 -436.054271 
L 620.153116 -443.376564 
L 620.559468 -450.698857 
L 621.250654 -458.02115 
L 622.230086 -465.343443 
L 623.496346 -472.665736 
L 625.043156 -479.988029 
L 626.859488 -487.310322 
L 628.92981 -494.632615 
L 631.234454 -501.954908 
L 633.750097 -509.277201 
L 636.450322 -516.599494 
L 639.306254 -523.921787 
L 642.287238 -531.24408 
L 645.361533 -538.566372 
L 648.497008 -545.888665 
L 651.661806 -553.210958 
L 654.824976 -560.533251 
L 657.957034 -567.855544 
L 661.030462 -575.177837 
L 664.020119 -582.50013 
L 666.90358 -589.822423 
L 669.661377 -597.144716 
L 672.277162 -604.467009 
L 674.737793 -611.789302 
L 677.033341 -619.111595 
L 679.157036 -626.433888 
L 681.105151 -633.756181 
L 682.876839 -641.078473 
L 684.473935 -648.400766 
L 685.900715 -655.723059 
L 687.163642 -663.045352 
L 688.271088 -670.367645 
L 689.233044 -677.689938 
L 690.060829 -685.012231 
L 690.766795 -692.334524 
L 691.364029 -699.656817 
L 691.866076 -706.97911 
L 692.286655 -714.301403 
L 692.639403 -721.623696 
L 692.937627 -728.945989 
L 693.19408 -736.268282 
L 693.42076 -743.590574 
L 693.628728 -750.912867 
L 693.82797 -758.23516 
L 694.027269 -765.557453 
L 694.234129 -772.879746 
L 694.454714 -780.202039 
L 694.693835 -787.524332 
L 694.954958 -794.846625 
L 714.412751 -794.846625 
L 714.412751 -794.846625 
L 714.673873 -787.524332 
L 714.912994 -780.202039 
L 715.133579 -772.879746 
L 715.340439 -765.557453 
L 715.539739 -758.23516 
L 715.73898 -750.912867 
L 715.946949 -743.590574 
L 716.173628 -736.268282 
L 716.430081 -728.945989 
L 716.728306 -721.623696 
L 717.081054 -714.301403 
L 717.501633 -706.97911 
L 718.003679 -699.656817 
L 718.600914 -692.334524 
L 719.306879 -685.012231 
L 720.134664 -677.689938 
L 721.096621 -670.367645 
L 722.204066 -663.045352 
L 723.466994 -655.723059 
L 724.893774 -648.400766 
L 726.490869 -641.078473 
L 728.262558 -633.756181 
L 730.210672 -626.433888 
L 732.334367 -619.111595 
L 734.629915 -611.789302 
L 737.090547 -604.467009 
L 739.706332 -597.144716 
L 742.464128 -589.822423 
L 745.347589 -582.50013 
L 748.337247 -575.177837 
L 751.410674 -567.855544 
L 754.542732 -560.533251 
L 757.705902 -553.210958 
L 760.870701 -545.888665 
L 764.006175 -538.566372 
L 767.08047 -531.24408 
L 770.061454 -523.921787 
L 772.917386 -516.599494 
L 775.617611 -509.277201 
L 778.133254 -501.954908 
L 780.437899 -494.632615 
L 782.508221 -487.310322 
L 784.324553 -479.988029 
L 785.871363 -472.665736 
L 787.137623 -465.343443 
L 788.117054 -458.02115 
L 788.80824 -450.698857 
L 789.214593 -443.376564 
L 789.344187 -436.054271 
L 789.209458 -428.731979 
L 788.826773 -421.409686 
L 788.215902 -414.087393 
L 787.399409 -406.7651 
L 786.401975 -399.442807 
L 785.2497 -392.120514 
L 783.969394 -384.798221 
L 782.587898 -377.475928 
L 781.131452 -370.153635 
L 779.625137 -362.831342 
L 778.092405 -355.509049 
L 776.554717 -348.186756 
L 775.031286 -340.864463 
L 773.538946 -333.54217 
L 772.092114 -326.219878 
L 770.702866 -318.897585 
L 769.381092 -311.575292 
L 768.134724 -304.252999 
L 766.970005 -296.930706 
L 765.891788 -289.608413 
L 764.903838 -282.28612 
L 764.009106 -274.963827 
L 763.209974 -267.641534 
L 762.508428 -260.319241 
L 761.906179 -252.996948 
L 761.404686 -245.674655 
L 761.005116 -238.352362 
L 760.708211 -231.030069 
L 760.514099 -223.707777 
L 760.422033 -216.385484 
L 760.430103 -209.063191 
L 760.534922 -201.740898 
L 760.731319 -194.418605 
L 761.012061 -187.096312 
L 761.367624 -179.774019 
L 761.786038 -172.451726 
L 762.252831 -165.129433 
L 762.751069 -157.80714 
L 763.261522 -150.484847 
L 763.762943 -143.162554 
L 764.232463 -135.840261 
L 764.646095 -128.517968 
L 764.979324 -121.195676 
L 765.207768 -113.873383 
L 765.307879 -106.55109 
L 765.257659 -99.228797 
L 765.03736 -91.906504 
L 764.630135 -84.584211 
L 764.022615 -77.261918 
L 763.205381 -69.939625 
z
" style="stroke: #000000; stroke-width: 1.5"/>
    </defs>
    <g clip-path="url(#pc02dc8f596)">
     <use xlink:href="#m47e72192d4" x="0" y="832.520781" style="fill: #cc79a7; stroke: #000000; stroke-width: 1.5"/>
    </g>
   </g>
   <g id="matplotlib.axis_1">
    <g id="xtick_1">
     <g id="line2d_1">
      <defs>
       <path id="mdc6b80a7e5" d="M 0 0 
L 0 3.5 
" style="stroke: #000000; stroke-width: 0.8"/>
      </defs>
      <g>
       <use xlink:href="#mdc6b80a7e5" x="220.910521" y="781.657656" style="stroke: #000000; stroke-width: 0.8"/>
      </g>
     </g>
     <g id="text_1">
      <!-- Manakov2022 -->
      <g transform="translate(129.731771 819.913594) scale(0.26 -0.26)">
       <defs>
        <path id="DejaVuSans-4d" d="M 628 4666 
L 1569 4666 
L 2759 1491 
L 3956 4666 
L 4897 4666 
L 4897 0 
L 4281 0 
L 4281 4097 
L 3078 897 
L 2444 897 
L 1241 4097 
L 1241 0 
L 628 0 
L 628 4666 
z
" transform="scale(0.015625)"/>
        <path id="DejaVuSans-61" d="M 2194 1759 
Q 1497 1759 1228 1600 
Q 959 1441 959 1056 
Q 959 750 1161 570 
Q 1363 391 1709 391 
Q 2188 391 2477 730 
Q 2766 1069 2766 1631 
L 2766 1759 
L 2194 1759 
z
M 3341 1997 
L 3341 0 
L 2766 0 
L 2766 531 
Q 2569 213 2275 61 
Q 1981 -91 1556 -91 
Q 1019 -91 701 211 
Q 384 513 384 1019 
Q 384 1609 779 1909 
Q 1175 2209 1959 2209 
L 2766 2209 
L 2766 2266 
Q 2766 2663 2505 2880 
Q 2244 3097 1772 3097 
Q 1472 3097 1187 3025 
Q 903 2953 641 2809 
L 641 3341 
Q 956 3463 1253 3523 
Q 1550 3584 1831 3584 
Q 2591 3584 2966 3190 
Q 3341 2797 3341 1997 
z
" transform="scale(0.015625)"/>
        <path id="DejaVuSans-6e" d="M 3513 2113 
L 3513 0 
L 2938 0 
L 2938 2094 
Q 2938 2591 2744 2837 
Q 2550 3084 2163 3084 
Q 1697 3084 1428 2787 
Q 1159 2491 1159 1978 
L 1159 0 
L 581 0 
L 581 3500 
L 1159 3500 
L 1159 2956 
Q 1366 3272 1645 3428 
Q 1925 3584 2291 3584 
Q 2894 3584 3203 3211 
Q 3513 2838 3513 2113 
z
" transform="scale(0.015625)"/>
        <path id="DejaVuSans-6b" d="M 581 4863 
L 1159 4863 
L 1159 1991 
L 2875 3500 
L 3609 3500 
L 1753 1863 
L 3688 0 
L 2938 0 
L 1159 1709 
L 1159 0 
L 581 0 
L 581 4863 
z
" transform="scale(0.015625)"/>
        <path id="DejaVuSans-6f" d="M 1959 3097 
Q 1497 3097 1228 2736 
Q 959 2375 959 1747 
Q 959 1119 1226 758 
Q 1494 397 1959 397 
Q 2419 397 2687 759 
Q 2956 1122 2956 1747 
Q 2956 2369 2687 2733 
Q 2419 3097 1959 3097 
z
M 1959 3584 
Q 2709 3584 3137 3096 
Q 3566 2609 3566 1747 
Q 3566 888 3137 398 
Q 2709 -91 1959 -91 
Q 1206 -91 779 398 
Q 353 888 353 1747 
Q 353 2609 779 3096 
Q 1206 3584 1959 3584 
z
" transform="scale(0.015625)"/>
        <path id="DejaVuSans-76" d="M 191 3500 
L 800 3500 
L 1894 563 
L 2988 3500 
L 3597 3500 
L 2284 0 
L 1503 0 
L 191 3500 
z
" transform="scale(0.015625)"/>
        <path id="DejaVuSans-32" d="M 1228 531 
L 3431 531 
L 3431 0 
L 469 0 
L 469 531 
Q 828 903 1448 1529 
Q 2069 2156 2228 2338 
Q 2531 2678 2651 2914 
Q 2772 3150 2772 3378 
Q 2772 3750 2511 3984 
Q 2250 4219 1831 4219 
Q 1534 4219 1204 4116 
Q 875 4013 500 3803 
L 500 4441 
Q 881 4594 1212 4672 
Q 1544 4750 1819 4750 
Q 2544 4750 2975 4387 
Q 3406 4025 3406 3419 
Q 3406 3131 3298 2873 
Q 3191 2616 2906 2266 
Q 2828 2175 2409 1742 
Q 1991 1309 1228 531 
z
" transform="scale(0.015625)"/>
        <path id="DejaVuSans-30" d="M 2034 4250 
Q 1547 4250 1301 3770 
Q 1056 3291 1056 2328 
Q 1056 1369 1301 889 
Q 1547 409 2034 409 
Q 2525 409 2770 889 
Q 3016 1369 3016 2328 
Q 3016 3291 2770 3770 
Q 2525 4250 2034 4250 
z
M 2034 4750 
Q 2819 4750 3233 4129 
Q 3647 3509 3647 2328 
Q 3647 1150 3233 529 
Q 2819 -91 2034 -91 
Q 1250 -91 836 529 
Q 422 1150 422 2328 
Q 422 3509 836 4129 
Q 1250 4750 2034 4750 
z
" transform="scale(0.015625)"/>
       </defs>
       <use xlink:href="#DejaVuSans-4d"/>
       <use xlink:href="#DejaVuSans-61" x="86.279297"/>
       <use xlink:href="#DejaVuSans-6e" x="147.558594"/>
       <use xlink:href="#DejaVuSans-61" x="210.9375"/>
       <use xlink:href="#DejaVuSans-6b" x="272.216797"/>
       <use xlink:href="#DejaVuSans-6f" x="326.501953"/>
       <use xlink:href="#DejaVuSans-76" x="387.683594"/>
       <use xlink:href="#DejaVuSans-32" x="446.863281"/>
       <use xlink:href="#DejaVuSans-30" x="510.486328"/>
       <use xlink:href="#DejaVuSans-32" x="574.109375"/>
       <use xlink:href="#DejaVuSans-32" x="637.732422"/>
      </g>
     </g>
    </g>
    <g id="xtick_2">
     <g id="line2d_2">
      <g>
       <use xlink:href="#mdc6b80a7e5" x="462.797187" y="781.657656" style="stroke: #000000; stroke-width: 0.8"/>
      </g>
     </g>
     <g id="text_2">
      <!-- Hejret2023 -->
      <g transform="translate(390.177969 819.913594) scale(0.26 -0.26)">
       <defs>
        <path id="DejaVuSans-48" d="M 628 4666 
L 1259 4666 
L 1259 2753 
L 3553 2753 
L 3553 4666 
L 4184 4666 
L 4184 0 
L 3553 0 
L 3553 2222 
L 1259 2222 
L 1259 0 
L 628 0 
L 628 4666 
z
" transform="scale(0.015625)"/>
        <path id="DejaVuSans-65" d="M 3597 1894 
L 3597 1613 
L 953 1613 
Q 991 1019 1311 708 
Q 1631 397 2203 397 
Q 2534 397 2845 478 
Q 3156 559 3463 722 
L 3463 178 
Q 3153 47 2828 -22 
Q 2503 -91 2169 -91 
Q 1331 -91 842 396 
Q 353 884 353 1716 
Q 353 2575 817 3079 
Q 1281 3584 2069 3584 
Q 2775 3584 3186 3129 
Q 3597 2675 3597 1894 
z
M 3022 2063 
Q 3016 2534 2758 2815 
Q 2500 3097 2075 3097 
Q 1594 3097 1305 2825 
Q 1016 2553 972 2059 
L 3022 2063 
z
" transform="scale(0.015625)"/>
        <path id="DejaVuSans-6a" d="M 603 3500 
L 1178 3500 
L 1178 -63 
Q 1178 -731 923 -1031 
Q 669 -1331 103 -1331 
L -116 -1331 
L -116 -844 
L 38 -844 
Q 366 -844 484 -692 
Q 603 -541 603 -63 
L 603 3500 
z
M 603 4863 
L 1178 4863 
L 1178 4134 
L 603 4134 
L 603 4863 
z
" transform="scale(0.015625)"/>
        <path id="DejaVuSans-72" d="M 2631 2963 
Q 2534 3019 2420 3045 
Q 2306 3072 2169 3072 
Q 1681 3072 1420 2755 
Q 1159 2438 1159 1844 
L 1159 0 
L 581 0 
L 581 3500 
L 1159 3500 
L 1159 2956 
Q 1341 3275 1631 3429 
Q 1922 3584 2338 3584 
Q 2397 3584 2469 3576 
Q 2541 3569 2628 3553 
L 2631 2963 
z
" transform="scale(0.015625)"/>
        <path id="DejaVuSans-74" d="M 1172 4494 
L 1172 3500 
L 2356 3500 
L 2356 3053 
L 1172 3053 
L 1172 1153 
Q 1172 725 1289 603 
Q 1406 481 1766 481 
L 2356 481 
L 2356 0 
L 1766 0 
Q 1100 0 847 248 
Q 594 497 594 1153 
L 594 3053 
L 172 3053 
L 172 3500 
L 594 3500 
L 594 4494 
L 1172 4494 
z
" transform="scale(0.015625)"/>
        <path id="DejaVuSans-33" d="M 2597 2516 
Q 3050 2419 3304 2112 
Q 3559 1806 3559 1356 
Q 3559 666 3084 287 
Q 2609 -91 1734 -91 
Q 1441 -91 1130 -33 
Q 819 25 488 141 
L 488 750 
Q 750 597 1062 519 
Q 1375 441 1716 441 
Q 2309 441 2620 675 
Q 2931 909 2931 1356 
Q 2931 1769 2642 2001 
Q 2353 2234 1838 2234 
L 1294 2234 
L 1294 2753 
L 1863 2753 
Q 2328 2753 2575 2939 
Q 2822 3125 2822 3475 
Q 2822 3834 2567 4026 
Q 2313 4219 1838 4219 
Q 1578 4219 1281 4162 
Q 984 4106 628 3988 
L 628 4550 
Q 988 4650 1302 4700 
Q 1616 4750 1894 4750 
Q 2613 4750 3031 4423 
Q 3450 4097 3450 3541 
Q 3450 3153 3228 2886 
Q 3006 2619 2597 2516 
z
" transform="scale(0.015625)"/>
       </defs>
       <use xlink:href="#DejaVuSans-48"/>
       <use xlink:href="#DejaVuSans-65" x="75.195312"/>
       <use xlink:href="#DejaVuSans-6a" x="136.71875"/>
       <use xlink:href="#DejaVuSans-72" x="164.501953"/>
       <use xlink:href="#DejaVuSans-65" x="203.365234"/>
       <use xlink:href="#DejaVuSans-74" x="264.888672"/>
       <use xlink:href="#DejaVuSans-32" x="304.097656"/>
       <use xlink:href="#DejaVuSans-30" x="367.720703"/>
       <use xlink:href="#DejaVuSans-32" x="431.34375"/>
       <use xlink:href="#DejaVuSans-33" x="494.966797"/>
      </g>
     </g>
    </g>
    <g id="xtick_3">
     <g id="line2d_3">
      <g>
       <use xlink:href="#mdc6b80a7e5" x="704.683854" y="781.657656" style="stroke: #000000; stroke-width: 0.8"/>
      </g>
     </g>
     <g id="text_3">
      <!-- Klimentova2022 -->
      <g transform="translate(598.238229 819.913594) scale(0.26 -0.26)">
       <defs>
        <path id="DejaVuSans-4b" d="M 628 4666 
L 1259 4666 
L 1259 2694 
L 3353 4666 
L 4166 4666 
L 1850 2491 
L 4331 0 
L 3500 0 
L 1259 2247 
L 1259 0 
L 628 0 
L 628 4666 
z
" transform="scale(0.015625)"/>
        <path id="DejaVuSans-6c" d="M 603 4863 
L 1178 4863 
L 1178 0 
L 603 0 
L 603 4863 
z
" transform="scale(0.015625)"/>
        <path id="DejaVuSans-69" d="M 603 3500 
L 1178 3500 
L 1178 0 
L 603 0 
L 603 3500 
z
M 603 4863 
L 1178 4863 
L 1178 4134 
L 603 4134 
L 603 4863 
z
" transform="scale(0.015625)"/>
        <path id="DejaVuSans-6d" d="M 3328 2828 
Q 3544 3216 3844 3400 
Q 4144 3584 4550 3584 
Q 5097 3584 5394 3201 
Q 5691 2819 5691 2113 
L 5691 0 
L 5113 0 
L 5113 2094 
Q 5113 2597 4934 2840 
Q 4756 3084 4391 3084 
Q 3944 3084 3684 2787 
Q 3425 2491 3425 1978 
L 3425 0 
L 2847 0 
L 2847 2094 
Q 2847 2600 2669 2842 
Q 2491 3084 2119 3084 
Q 1678 3084 1418 2786 
Q 1159 2488 1159 1978 
L 1159 0 
L 581 0 
L 581 3500 
L 1159 3500 
L 1159 2956 
Q 1356 3278 1631 3431 
Q 1906 3584 2284 3584 
Q 2666 3584 2933 3390 
Q 3200 3197 3328 2828 
z
" transform="scale(0.015625)"/>
       </defs>
       <use xlink:href="#DejaVuSans-4b"/>
       <use xlink:href="#DejaVuSans-6c" x="65.576172"/>
       <use xlink:href="#DejaVuSans-69" x="93.359375"/>
       <use xlink:href="#DejaVuSans-6d" x="121.142578"/>
       <use xlink:href="#DejaVuSans-65" x="218.554688"/>
       <use xlink:href="#DejaVuSans-6e" x="280.078125"/>
       <use xlink:href="#DejaVuSans-74" x="343.457031"/>
       <use xlink:href="#DejaVuSans-6f" x="382.666016"/>
       <use xlink:href="#DejaVuSans-76" x="443.847656"/>
       <use xlink:href="#DejaVuSans-61" x="503.027344"/>
       <use xlink:href="#DejaVuSans-32" x="564.306641"/>
       <use xlink:href="#DejaVuSans-30" x="627.929688"/>
       <use xlink:href="#DejaVuSans-32" x="691.552734"/>
       <use xlink:href="#DejaVuSans-32" x="755.175781"/>
      </g>
     </g>
    </g>
   </g>
   <g id="matplotlib.axis_2">
    <g id="ytick_1">
     <g id="line2d_4">
      <path d="M 99.967187 781.657656 
L 825.627187 781.657656 
" clip-path="url(#pc02dc8f596)" style="fill: none; stroke-dasharray: 0.8,1.32; stroke-dashoffset: 0; stroke: #000000; stroke-opacity: 0.8; stroke-width: 0.8"/>
     </g>
     <g id="line2d_5">
      <defs>
       <path id="mf6fc1dd196" d="M 0 0 
L -3.5 0 
" style="stroke: #000000; stroke-width: 0.8"/>
      </defs>
      <g>
       <use xlink:href="#mf6fc1dd196" x="99.967187" y="781.657656" style="stroke: #000000; stroke-width: 0.8"/>
      </g>
     </g>
     <g id="text_4">
      <!-- 0% -->
      <g transform="translate(45.375 793.055312) scale(0.3 -0.3)">
       <defs>
        <path id="DejaVuSans-25" d="M 4653 2053 
Q 4381 2053 4226 1822 
Q 4072 1591 4072 1178 
Q 4072 772 4226 539 
Q 4381 306 4653 306 
Q 4919 306 5073 539 
Q 5228 772 5228 1178 
Q 5228 1588 5073 1820 
Q 4919 2053 4653 2053 
z
M 4653 2450 
Q 5147 2450 5437 2106 
Q 5728 1763 5728 1178 
Q 5728 594 5436 251 
Q 5144 -91 4653 -91 
Q 4153 -91 3862 251 
Q 3572 594 3572 1178 
Q 3572 1766 3864 2108 
Q 4156 2450 4653 2450 
z
M 1428 4353 
Q 1159 4353 1004 4120 
Q 850 3888 850 3481 
Q 850 3069 1003 2837 
Q 1156 2606 1428 2606 
Q 1700 2606 1854 2837 
Q 2009 3069 2009 3481 
Q 2009 3884 1853 4118 
Q 1697 4353 1428 4353 
z
M 4250 4750 
L 4750 4750 
L 1831 -91 
L 1331 -91 
L 4250 4750 
z
M 1428 4750 
Q 1922 4750 2215 4408 
Q 2509 4066 2509 3481 
Q 2509 2891 2217 2550 
Q 1925 2209 1428 2209 
Q 931 2209 642 2551 
Q 353 2894 353 3481 
Q 353 4063 643 4406 
Q 934 4750 1428 4750 
z
" transform="scale(0.015625)"/>
       </defs>
       <use xlink:href="#DejaVuSans-30"/>
       <use xlink:href="#DejaVuSans-25" x="63.623047"/>
      </g>
     </g>
    </g>
    <g id="ytick_2">
     <g id="line2d_6">
      <path d="M 99.967187 705.351656 
L 825.627187 705.351656 
" clip-path="url(#pc02dc8f596)" style="fill: none; stroke-dasharray: 0.8,1.32; stroke-dashoffset: 0; stroke: #000000; stroke-opacity: 0.8; stroke-width: 0.8"/>
     </g>
     <g id="line2d_7">
      <g>
       <use xlink:href="#mf6fc1dd196" x="99.967187" y="705.351656" style="stroke: #000000; stroke-width: 0.8"/>
      </g>
     </g>
    </g>
    <g id="ytick_3">
     <g id="line2d_8">
      <path d="M 99.967187 629.045656 
L 825.627187 629.045656 
" clip-path="url(#pc02dc8f596)" style="fill: none; stroke-dasharray: 0.8,1.32; stroke-dashoffset: 0; stroke: #000000; stroke-opacity: 0.8; stroke-width: 0.8"/>
     </g>
     <g id="line2d_9">
      <g>
       <use xlink:href="#mf6fc1dd196" x="99.967187" y="629.045656" style="stroke: #000000; stroke-width: 0.8"/>
      </g>
     </g>
     <g id="text_5">
      <!-- 20% -->
      <g transform="translate(26.2875 640.443312) scale(0.3 -0.3)">
       <use xlink:href="#DejaVuSans-32"/>
       <use xlink:href="#DejaVuSans-30" x="63.623047"/>
       <use xlink:href="#DejaVuSans-25" x="127.246094"/>
      </g>
     </g>
    </g>
    <g id="ytick_4">
     <g id="line2d_10">
      <path d="M 99.967187 552.739656 
L 825.627187 552.739656 
" clip-path="url(#pc02dc8f596)" style="fill: none; stroke-dasharray: 0.8,1.32; stroke-dashoffset: 0; stroke: #000000; stroke-opacity: 0.8; stroke-width: 0.8"/>
     </g>
     <g id="line2d_11">
      <g>
       <use xlink:href="#mf6fc1dd196" x="99.967187" y="552.739656" style="stroke: #000000; stroke-width: 0.8"/>
      </g>
     </g>
    </g>
    <g id="ytick_5">
     <g id="line2d_12">
      <path d="M 99.967187 476.433656 
L 825.627187 476.433656 
" clip-path="url(#pc02dc8f596)" style="fill: none; stroke-dasharray: 0.8,1.32; stroke-dashoffset: 0; stroke: #000000; stroke-opacity: 0.8; stroke-width: 0.8"/>
     </g>
     <g id="line2d_13">
      <g>
       <use xlink:href="#mf6fc1dd196" x="99.967187" y="476.433656" style="stroke: #000000; stroke-width: 0.8"/>
      </g>
     </g>
     <g id="text_6">
      <!-- 40% -->
      <g transform="translate(26.2875 487.831312) scale(0.3 -0.3)">
       <defs>
        <path id="DejaVuSans-34" d="M 2419 4116 
L 825 1625 
L 2419 1625 
L 2419 4116 
z
M 2253 4666 
L 3047 4666 
L 3047 1625 
L 3713 1625 
L 3713 1100 
L 3047 1100 
L 3047 0 
L 2419 0 
L 2419 1100 
L 313 1100 
L 313 1709 
L 2253 4666 
z
" transform="scale(0.015625)"/>
       </defs>
       <use xlink:href="#DejaVuSans-34"/>
       <use xlink:href="#DejaVuSans-30" x="63.623047"/>
       <use xlink:href="#DejaVuSans-25" x="127.246094"/>
      </g>
     </g>
    </g>
    <g id="ytick_6">
     <g id="line2d_14">
      <path d="M 99.967187 400.127656 
L 825.627187 400.127656 
" clip-path="url(#pc02dc8f596)" style="fill: none; stroke-dasharray: 0.8,1.32; stroke-dashoffset: 0; stroke: #000000; stroke-opacity: 0.8; stroke-width: 0.8"/>
     </g>
     <g id="line2d_15">
      <g>
       <use xlink:href="#mf6fc1dd196" x="99.967187" y="400.127656" style="stroke: #000000; stroke-width: 0.8"/>
      </g>
     </g>
    </g>
    <g id="ytick_7">
     <g id="line2d_16">
      <path d="M 99.967187 323.821656 
L 825.627187 323.821656 
" clip-path="url(#pc02dc8f596)" style="fill: none; stroke-dasharray: 0.8,1.32; stroke-dashoffset: 0; stroke: #000000; stroke-opacity: 0.8; stroke-width: 0.8"/>
     </g>
     <g id="line2d_17">
      <g>
       <use xlink:href="#mf6fc1dd196" x="99.967187" y="323.821656" style="stroke: #000000; stroke-width: 0.8"/>
      </g>
     </g>
     <g id="text_7">
      <!-- 60% -->
      <g transform="translate(26.2875 335.219312) scale(0.3 -0.3)">
       <defs>
        <path id="DejaVuSans-36" d="M 2113 2584 
Q 1688 2584 1439 2293 
Q 1191 2003 1191 1497 
Q 1191 994 1439 701 
Q 1688 409 2113 409 
Q 2538 409 2786 701 
Q 3034 994 3034 1497 
Q 3034 2003 2786 2293 
Q 2538 2584 2113 2584 
z
M 3366 4563 
L 3366 3988 
Q 3128 4100 2886 4159 
Q 2644 4219 2406 4219 
Q 1781 4219 1451 3797 
Q 1122 3375 1075 2522 
Q 1259 2794 1537 2939 
Q 1816 3084 2150 3084 
Q 2853 3084 3261 2657 
Q 3669 2231 3669 1497 
Q 3669 778 3244 343 
Q 2819 -91 2113 -91 
Q 1303 -91 875 529 
Q 447 1150 447 2328 
Q 447 3434 972 4092 
Q 1497 4750 2381 4750 
Q 2619 4750 2861 4703 
Q 3103 4656 3366 4563 
z
" transform="scale(0.015625)"/>
       </defs>
       <use xlink:href="#DejaVuSans-36"/>
       <use xlink:href="#DejaVuSans-30" x="63.623047"/>
       <use xlink:href="#DejaVuSans-25" x="127.246094"/>
      </g>
     </g>
    </g>
    <g id="ytick_8">
     <g id="line2d_18">
      <path d="M 99.967187 247.515656 
L 825.627187 247.515656 
" clip-path="url(#pc02dc8f596)" style="fill: none; stroke-dasharray: 0.8,1.32; stroke-dashoffset: 0; stroke: #000000; stroke-opacity: 0.8; stroke-width: 0.8"/>
     </g>
     <g id="line2d_19">
      <g>
       <use xlink:href="#mf6fc1dd196" x="99.967187" y="247.515656" style="stroke: #000000; stroke-width: 0.8"/>
      </g>
     </g>
    </g>
    <g id="ytick_9">
     <g id="line2d_20">
      <path d="M 99.967187 171.209656 
L 825.627187 171.209656 
" clip-path="url(#pc02dc8f596)" style="fill: none; stroke-dasharray: 0.8,1.32; stroke-dashoffset: 0; stroke: #000000; stroke-opacity: 0.8; stroke-width: 0.8"/>
     </g>
     <g id="line2d_21">
      <g>
       <use xlink:href="#mf6fc1dd196" x="99.967187" y="171.209656" style="stroke: #000000; stroke-width: 0.8"/>
      </g>
     </g>
     <g id="text_8">
      <!-- 80% -->
      <g transform="translate(26.2875 182.607312) scale(0.3 -0.3)">
       <defs>
        <path id="DejaVuSans-38" d="M 2034 2216 
Q 1584 2216 1326 1975 
Q 1069 1734 1069 1313 
Q 1069 891 1326 650 
Q 1584 409 2034 409 
Q 2484 409 2743 651 
Q 3003 894 3003 1313 
Q 3003 1734 2745 1975 
Q 2488 2216 2034 2216 
z
M 1403 2484 
Q 997 2584 770 2862 
Q 544 3141 544 3541 
Q 544 4100 942 4425 
Q 1341 4750 2034 4750 
Q 2731 4750 3128 4425 
Q 3525 4100 3525 3541 
Q 3525 3141 3298 2862 
Q 3072 2584 2669 2484 
Q 3125 2378 3379 2068 
Q 3634 1759 3634 1313 
Q 3634 634 3220 271 
Q 2806 -91 2034 -91 
Q 1263 -91 848 271 
Q 434 634 434 1313 
Q 434 1759 690 2068 
Q 947 2378 1403 2484 
z
M 1172 3481 
Q 1172 3119 1398 2916 
Q 1625 2713 2034 2713 
Q 2441 2713 2670 2916 
Q 2900 3119 2900 3481 
Q 2900 3844 2670 4047 
Q 2441 4250 2034 4250 
Q 1625 4250 1398 4047 
Q 1172 3844 1172 3481 
z
" transform="scale(0.015625)"/>
       </defs>
       <use xlink:href="#DejaVuSans-38"/>
       <use xlink:href="#DejaVuSans-30" x="63.623047"/>
       <use xlink:href="#DejaVuSans-25" x="127.246094"/>
      </g>
     </g>
    </g>
    <g id="ytick_10">
     <g id="line2d_22">
      <path d="M 99.967187 94.903656 
L 825.627187 94.903656 
" clip-path="url(#pc02dc8f596)" style="fill: none; stroke-dasharray: 0.8,1.32; stroke-dashoffset: 0; stroke: #000000; stroke-opacity: 0.8; stroke-width: 0.8"/>
     </g>
     <g id="line2d_23">
      <g>
       <use xlink:href="#mf6fc1dd196" x="99.967187" y="94.903656" style="stroke: #000000; stroke-width: 0.8"/>
      </g>
     </g>
    </g>
    <g id="ytick_11">
     <g id="line2d_24">
      <path d="M 99.967187 18.597656 
L 825.627187 18.597656 
" clip-path="url(#pc02dc8f596)" style="fill: none; stroke-dasharray: 0.8,1.32; stroke-dashoffset: 0; stroke: #000000; stroke-opacity: 0.8; stroke-width: 0.8"/>
     </g>
     <g id="line2d_25">
      <g>
       <use xlink:href="#mf6fc1dd196" x="99.967187" y="18.597656" style="stroke: #000000; stroke-width: 0.8"/>
      </g>
     </g>
     <g id="text_9">
      <!-- 100% -->
      <g transform="translate(7.2 29.995312) scale(0.3 -0.3)">
       <defs>
        <path id="DejaVuSans-31" d="M 794 531 
L 1825 531 
L 1825 4091 
L 703 3866 
L 703 4441 
L 1819 4666 
L 2450 4666 
L 2450 531 
L 3481 531 
L 3481 0 
L 794 0 
L 794 531 
z
" transform="scale(0.015625)"/>
       </defs>
       <use xlink:href="#DejaVuSans-31"/>
       <use xlink:href="#DejaVuSans-30" x="63.623047"/>
       <use xlink:href="#DejaVuSans-30" x="127.246094"/>
       <use xlink:href="#DejaVuSans-25" x="190.869141"/>
      </g>
     </g>
    </g>
   </g>
   <g id="LineCollection_1">
    <path d="M 136.250187 457.357156 
L 305.570854 457.357156 
" clip-path="url(#pc02dc8f596)" style="fill: none; stroke: #000000; stroke-width: 2.5"/>
   </g>
   <g id="LineCollection_2">
    <path d="M 378.136854 533.663156 
L 547.457521 533.663156 
" clip-path="url(#pc02dc8f596)" style="fill: none; stroke: #000000; stroke-width: 2.5"/>
   </g>
   <g id="LineCollection_3">
    <path d="M 620.023521 476.433656 
L 789.344187 476.433656 
" clip-path="url(#pc02dc8f596)" style="fill: none; stroke: #000000; stroke-width: 2.5"/>
   </g>
   <g id="patch_3">
    <path d="M 99.967187 781.657656 
L 99.967187 18.597656 
" style="fill: none; stroke: #000000; stroke-width: 1.5; stroke-linejoin: miter; stroke-linecap: square"/>
   </g>
   <g id="patch_4">
    <path d="M 99.967187 781.657656 
L 825.627187 781.657656 
" style="fill: none; stroke: #000000; stroke-width: 1.5; stroke-linejoin: miter; stroke-linecap: square"/>
   </g>
  </g>
 </g>
 <defs>
  <clipPath id="pc02dc8f596">
   <rect x="99.967187" y="18.597656" width="725.66" height="763.06"/>
  </clipPath>
 </defs>
</svg>
